SplineFontDB: 3.0
FontName: LineAwesome
FullName: LineAwesome
FamilyName: LineAwesome
Weight: Medium
Version: 001.000
ItalicAngle: 0
UnderlinePosition: -76
UnderlineWidth: 25
Ascent: 448
Descent: 64
InvalidEm: 0
sfntRevision: 0x00010000
LayerCount: 2
Layer: 0 1 "+BBcEMAQ0BD0EOAQ5 +BD8EOwQwBD0A" 1
Layer: 1 1 "+BB8ENQRABDUENAQ9BDgEOQAA +BD8EOwQwBD0A" 0
XUID: [1021 858 -604482102 22451]
StyleMap: 0x0040
FSType: 0
OS2Version: 4
OS2_WeightWidthSlopeOnly: 0
OS2_UseTypoMetrics: 1
CreationTime: 1485111630
ModificationTime: 1485111630
PfmFamily: 17
TTFWeight: 500
TTFWidth: 5
LineGap: 46
VLineGap: 0
Panose: 2 0 6 3 0 0 0 0 0 0
OS2TypoAscent: 448
OS2TypoAOffset: 0
OS2TypoDescent: -64
OS2TypoDOffset: 0
OS2TypoLinegap: 46
OS2WinAscent: 480
OS2WinAOffset: 0
OS2WinDescent: 66
OS2WinDOffset: 0
HheadAscent: 480
HheadAOffset: 0
HheadDescent: -66
HheadDOffset: 0
OS2SubXSize: 332
OS2SubYSize: 358
OS2SubXOff: 0
OS2SubYOff: 71
OS2SupXSize: 332
OS2SupYSize: 358
OS2SupXOff: 0
OS2SupYOff: 245
OS2StrikeYSize: 25
OS2StrikeYPos: 132
OS2Vendor: 'PfEd'
OS2CodePages: 00000001.00000000
OS2UnicodeRanges: 00000001.10000000.00000000.00000000
DEI: 91125
ShortTable: cvt  2
  17
  324
EndShort
ShortTable: maxp 16
  1
  0
  658
  487
  26
  0
  0
  2
  0
  1
  1
  0
  64
  46
  0
  0
EndShort
LangName: 1033 "" "" "" "FontForge 2.0 : LineAwesome : 22-1-2017"
GaspTable: 1 65535 2 0
Encoding: UnicodeBmp
UnicodeInterp: none
NameList: AGL For New Fonts
DisplaySize: -48
AntiAlias: 1
FitToEm: 0
WinInfo: 61753 37 13
BeginChars: 65539 658

StartChar: .notdef
Encoding: 65536 -1 0
Width: 187
Flags: W
LayerCount: 2
Fore
SplineSet
17 0 m 1,0,-1
 17 341 l 1,1,-1
 153 341 l 1,2,-1
 153 0 l 1,3,-1
 17 0 l 1,0,-1
34 17 m 1,4,-1
 136 17 l 1,5,-1
 136 324 l 1,6,-1
 34 324 l 1,7,-1
 34 17 l 1,4,-1
EndSplineSet
EndChar

StartChar: 500px
Encoding: 61696 61696 4
Width: 512
Flags: W
LayerCount: 2
Fore
SplineSet
419 243 m 0,0,1
 456 243 456 243 475.5 218 c 128,-1,2
 495 193 495 193 495 162 c 256,3,4
 495 131 495 131 475 105.5 c 128,-1,5
 455 80 455 80 419 80 c 0,6,7
 397 80 397 80 376.5 92 c 128,-1,8
 356 104 356 104 344.5 116.5 c 128,-1,9
 333 129 333 129 333 129 c 2,10,11
 332 129 332 129 328 124 c 128,-1,12
 324 119 324 119 316.5 111.5 c 128,-1,13
 309 104 309 104 299.5 97 c 128,-1,14
 290 90 290 90 275.5 85 c 128,-1,15
 261 80 261 80 246 80 c 0,16,17
 224 80 224 80 206.5 91.5 c 128,-1,18
 189 103 189 103 182 114 c 128,-1,19
 175 125 175 125 175 129 c 1,20,21
 175 127 175 127 173 122 c 128,-1,22
 171 117 171 117 165 109.5 c 128,-1,23
 159 102 159 102 150.5 95.5 c 128,-1,24
 142 89 142 89 128 84.5 c 128,-1,25
 114 80 114 80 98 80 c 0,26,27
 73 80 73 80 55.5 88.5 c 128,-1,28
 38 97 38 97 30.5 110 c 128,-1,29
 23 123 23 123 20 132.5 c 128,-1,30
 17 142 17 142 17 148 c 1,31,-1
 62 148 l 1,32,33
 62 137 62 137 72 126 c 128,-1,34
 82 115 82 115 98 115 c 0,35,36
 115 115 115 115 126.5 129 c 128,-1,37
 138 143 138 143 138 159.5 c 128,-1,38
 138 176 138 176 127 188 c 128,-1,39
 116 200 116 200 98 200 c 0,40,41
 87 200 87 200 78.5 195.5 c 128,-1,42
 70 191 70 191 67 187 c 2,43,-1
 64 183 l 1,44,-1
 24 183 l 1,45,-1
 45 304 l 1,46,-1
 170 304 l 1,47,-1
 170 268 l 1,48,-1
 77 268 l 1,49,-1
 69 216 l 1,50,51
 69 216 69 216 73 220.5 c 128,-1,52
 77 225 77 225 87.5 229.5 c 128,-1,53
 98 234 98 234 115 234 c 0,54,55
 128 234 128 234 139 229.5 c 128,-1,56
 150 225 150 225 156 219 c 128,-1,57
 162 213 162 213 166.5 207 c 128,-1,58
 171 201 171 201 173 196.5 c 128,-1,59
 175 192 175 192 175 192 c 129,-1,60
 175 192 175 192 177.5 197.5 c 128,-1,61
 180 203 180 203 185.5 210 c 128,-1,62
 191 217 191 217 198.5 224.5 c 128,-1,63
 206 232 206 232 218.5 237.5 c 128,-1,64
 231 243 231 243 246 243 c 128,-1,65
 261 243 261 243 275 237.5 c 128,-1,66
 289 232 289 232 299 224.5 c 128,-1,67
 309 217 309 217 316.5 210 c 128,-1,68
 324 203 324 203 328 197.5 c 128,-1,69
 332 192 332 192 332.5 192 c 128,-1,70
 333 192 333 192 337 197.5 c 128,-1,71
 341 203 341 203 348.5 210 c 128,-1,72
 356 217 356 217 366 224.5 c 128,-1,73
 376 232 376 232 390 237.5 c 128,-1,74
 404 243 404 243 419 243 c 0,0,1
306 161 m 1,75,-1
 306 161 l 1,76,77
 302 165 302 165 296 171.5 c 128,-1,78
 290 178 290 178 274.5 188.5 c 128,-1,79
 259 199 259 199 246 199 c 0,80,81
 227 199 227 199 219.5 186 c 128,-1,82
 212 173 212 173 212 161 c 1,83,-1
 212 161 l 1,84,-1
 212 161 l 1,85,86
 212 154 212 154 214 146.5 c 128,-1,87
 216 139 216 139 224.5 131 c 128,-1,88
 233 123 233 123 246 123 c 256,89,90
 259 123 259 123 274.5 133.5 c 128,-1,91
 290 144 290 144 296 150.5 c 128,-1,92
 302 157 302 157 306 161 c 1,75,-1
454 161 m 0,93,94
 454 168 454 168 451.5 175.5 c 128,-1,95
 449 183 449 183 441 191 c 128,-1,96
 433 199 433 199 420 199 c 256,97,98
 407 199 407 199 391.5 188.5 c 128,-1,99
 376 178 376 178 369.5 171.5 c 128,-1,100
 363 165 363 165 360 161 c 1,101,-1
 360 161 l 1,102,-1
 360 161 l 1,103,104
 363 157 363 157 369.5 150.5 c 128,-1,105
 376 144 376 144 391.5 133.5 c 128,-1,106
 407 123 407 123 420 123 c 0,107,108
 438 123 438 123 446 136 c 128,-1,109
 454 149 454 149 454 161 c 0,93,94
EndSplineSet
EndChar

StartChar: adjust
Encoding: 61697 61697 5
Width: 512
Flags: W
LayerCount: 2
Fore
SplineSet
256 384 m 128,-1,1
 335 384 335 384 391.5 327.5 c 128,-1,2
 448 271 448 271 448 192 c 128,-1,3
 448 113 448 113 391.5 56.5 c 128,-1,4
 335 0 335 0 256 0 c 128,-1,5
 177 0 177 0 120.5 56.5 c 128,-1,6
 64 113 64 113 64 192 c 128,-1,7
 64 271 64 271 120.5 327.5 c 128,-1,0
 177 384 177 384 256 384 c 128,-1,1
256 352 m 1,8,9
 190 352 190 352 143 305 c 128,-1,10
 96 258 96 258 96 192 c 128,-1,11
 96 126 96 126 143 79 c 128,-1,12
 190 32 190 32 256 32 c 1,13,-1
 256 352 l 1,8,9
EndSplineSet
EndChar

StartChar: adn
Encoding: 61698 61698 6
Width: 512
Flags: W
LayerCount: 2
Fore
SplineSet
256 384 m 128,-1,1
 335 384 335 384 391.5 327.5 c 128,-1,2
 448 271 448 271 448 192 c 128,-1,3
 448 113 448 113 391.5 56.5 c 128,-1,4
 335 0 335 0 256 0 c 128,-1,5
 177 0 177 0 120.5 56.5 c 128,-1,6
 64 113 64 113 64 192 c 128,-1,7
 64 271 64 271 120.5 327.5 c 128,-1,0
 177 384 177 384 256 384 c 128,-1,1
256 352 m 128,-1,9
 190 352 190 352 143 305 c 128,-1,10
 96 258 96 258 96 192 c 128,-1,11
 96 126 96 126 143 79 c 128,-1,12
 190 32 190 32 256 32 c 128,-1,13
 322 32 322 32 369 79 c 128,-1,14
 416 126 416 126 416 192 c 128,-1,15
 416 258 416 258 369 305 c 128,-1,8
 322 352 322 352 256 352 c 128,-1,9
256 289 m 1,16,-1
 362 130 l 1,17,-1
 336 130 l 1,18,-1
 312 168 l 1,19,-1
 200 168 l 1,20,-1
 176 130 l 1,21,-1
 150 130 l 1,22,-1
 256 289 l 1,16,-1
256 250 m 1,23,-1
 210 182 l 1,24,-1
 302 182 l 1,25,-1
 256 250 l 1,23,-1
EndSplineSet
EndChar

StartChar: align-center
Encoding: 61699 61699 7
Width: 512
Flags: W
LayerCount: 2
Fore
SplineSet
48 336 m 1,0,-1
 464 336 l 1,1,-1
 464 304 l 1,2,-1
 48 304 l 1,3,-1
 48 336 l 1,0,-1
112 272 m 1,4,-1
 400 272 l 1,5,-1
 400 240 l 1,6,-1
 112 240 l 1,7,-1
 112 272 l 1,4,-1
48 208 m 1,8,-1
 464 208 l 1,9,-1
 464 176 l 1,10,-1
 48 176 l 1,11,-1
 48 208 l 1,8,-1
112 144 m 1,12,-1
 400 144 l 1,13,-1
 400 112 l 1,14,-1
 112 112 l 1,15,-1
 112 144 l 1,12,-1
48 80 m 1,16,-1
 464 80 l 1,17,-1
 464 48 l 1,18,-1
 48 48 l 1,19,-1
 48 80 l 1,16,-1
EndSplineSet
EndChar

StartChar: align-justify
Encoding: 61700 61700 8
Width: 512
Flags: W
LayerCount: 2
Fore
SplineSet
48 336 m 1,0,-1
 464 336 l 1,1,-1
 464 304 l 1,2,-1
 48 304 l 1,3,-1
 48 336 l 1,0,-1
48 272 m 1,4,-1
 464 272 l 1,5,-1
 464 240 l 1,6,-1
 48 240 l 1,7,-1
 48 272 l 1,4,-1
48 208 m 1,8,-1
 464 208 l 1,9,-1
 464 176 l 1,10,-1
 48 176 l 1,11,-1
 48 208 l 1,8,-1
48 144 m 1,12,-1
 464 144 l 1,13,-1
 464 112 l 1,14,-1
 48 112 l 1,15,-1
 48 144 l 1,12,-1
48 80 m 1,16,-1
 464 80 l 1,17,-1
 464 48 l 1,18,-1
 48 48 l 1,19,-1
 48 80 l 1,16,-1
EndSplineSet
EndChar

StartChar: align-left
Encoding: 61701 61701 9
Width: 512
Flags: W
LayerCount: 2
Fore
SplineSet
48 336 m 1,0,-1
 464 336 l 1,1,-1
 464 304 l 1,2,-1
 48 304 l 1,3,-1
 48 336 l 1,0,-1
48 272 m 1,4,-1
 336 272 l 1,5,-1
 336 240 l 1,6,-1
 48 240 l 1,7,-1
 48 272 l 1,4,-1
48 208 m 1,8,-1
 464 208 l 1,9,-1
 464 176 l 1,10,-1
 48 176 l 1,11,-1
 48 208 l 1,8,-1
48 144 m 1,12,-1
 336 144 l 1,13,-1
 336 112 l 1,14,-1
 48 112 l 1,15,-1
 48 144 l 1,12,-1
48 80 m 1,16,-1
 464 80 l 1,17,-1
 464 48 l 1,18,-1
 48 48 l 1,19,-1
 48 80 l 1,16,-1
EndSplineSet
EndChar

StartChar: align-right
Encoding: 61702 61702 10
Width: 512
Flags: W
LayerCount: 2
Fore
SplineSet
48 336 m 1,0,-1
 464 336 l 1,1,-1
 464 304 l 1,2,-1
 48 304 l 1,3,-1
 48 336 l 1,0,-1
176 272 m 1,4,-1
 464 272 l 1,5,-1
 464 240 l 1,6,-1
 176 240 l 1,7,-1
 176 272 l 1,4,-1
48 208 m 1,8,-1
 464 208 l 1,9,-1
 464 176 l 1,10,-1
 48 176 l 1,11,-1
 48 208 l 1,8,-1
176 144 m 1,12,-1
 464 144 l 1,13,-1
 464 112 l 1,14,-1
 176 112 l 1,15,-1
 176 144 l 1,12,-1
48 80 m 1,16,-1
 464 80 l 1,17,-1
 464 48 l 1,18,-1
 48 48 l 1,19,-1
 48 80 l 1,16,-1
EndSplineSet
EndChar

StartChar: amazon
Encoding: 61703 61703 11
Width: 512
Flags: W
LayerCount: 2
Fore
SplineSet
323 448 m 0,0,1
 378 448 378 448 406 420 c 0,2,3
 411 416 411 416 414.5 412 c 128,-1,4
 418 408 418 408 420.5 402 c 128,-1,5
 423 396 423 396 425 393 c 128,-1,6
 427 390 427 390 428 382 c 128,-1,7
 429 374 429 374 429.5 371.5 c 128,-1,8
 430 369 430 369 430.5 360 c 128,-1,9
 431 351 431 351 431 349.5 c 128,-1,10
 431 348 431 348 431 337 c 128,-1,11
 431 326 431 326 431 325 c 2,12,-1
 431 239 l 2,13,14
 431 227 431 227 435 216 c 128,-1,15
 439 205 439 205 441 202 c 128,-1,16
 443 199 443 199 452 188 c 0,17,18
 458 178 458 178 452 173 c 0,19,20
 435 159 435 159 409 136 c 0,21,22
 403 131 403 131 396 135 c 0,23,24
 381 148 381 148 364 172 c 1,25,26
 341 149 341 149 321.5 140.5 c 128,-1,27
 302 132 302 132 273 132 c 0,28,29
 236 132 236 132 213 154 c 128,-1,30
 190 176 190 176 190 218 c 0,31,32
 190 283 190 283 249 308 c 0,33,34
 258 312 258 312 268 315 c 128,-1,35
 278 318 278 318 290.5 320 c 128,-1,36
 303 322 303 322 310.5 323 c 128,-1,37
 318 324 318 324 333 325.5 c 128,-1,38
 348 327 348 327 353 328 c 1,39,-1
 353 335 l 2,40,41
 353 365 353 365 346 375 c 0,42,43
 337 390 337 390 316 390 c 0,44,45
 299 390 299 390 286.5 381 c 128,-1,46
 274 372 274 372 271 356 c 0,47,48
 269 346 269 346 261 346 c 2,49,-1
 208 352 l 2,50,51
 198 354 198 354 200 363 c 0,52,53
 208 408 208 408 243 428 c 128,-1,54
 278 448 278 448 323 448 c 0,0,1
338 283 m 0,55,56
 271 279 271 279 271 228 c 0,57,58
 271 209 271 209 280 198.5 c 128,-1,59
 289 188 289 188 304 188 c 0,60,61
 329 188 329 188 343 212 c 0,62,63
 353 230 353 230 353 271 c 2,64,-1
 353 283 l 2,65,66
 351 283 351 283 348 283 c 128,-1,67
 345 283 345 283 342.5 283 c 128,-1,68
 340 283 340 283 338 283 c 0,55,56
491 154 m 0,69,70
 514 154 514 154 519 148.5 c 128,-1,71
 524 143 524 143 517 119 c 128,-1,72
 510 95 510 95 494 82 c 0,73,74
 491 80 491 80 489 81 c 128,-1,75
 487 82 487 82 488 84 c 0,76,77
 506 127 506 127 500.5 134 c 128,-1,78
 495 141 495 141 449 136 c 0,79,80
 446 136 446 136 445.5 138 c 128,-1,81
 445 140 445 140 448 142 c 0,82,83
 465 154 465 154 491 154 c 0,69,70
122 146 m 0,84,85
 124 147 124 147 126 146 c 0,86,87
 216 93 216 93 324 93 c 0,88,89
 402 93 402 93 476 124 c 0,90,91
 481 126 481 126 484 121.5 c 128,-1,92
 487 117 487 117 482 114 c 0,93,94
 450 90 450 90 406 77 c 128,-1,95
 362 64 362 64 320 64 c 0,96,97
 205 64 205 64 122 140 c 0,98,99
 119 142 119 142 119.5 144 c 128,-1,100
 120 146 120 146 122 146 c 0,84,85
EndSplineSet
EndChar

StartChar: ambulance
Encoding: 61704 61704 12
Width: 512
Flags: W
LayerCount: 2
Fore
SplineSet
272 400 m 128,-1,1
 285 400 285 400 294.5 390.5 c 128,-1,2
 304 381 304 381 304 368 c 2,3,-1
 304 352 l 1,4,-1
 368 352 l 1,5,-1
 376 352 l 1,6,-1
 380 346 l 1,7,-1
 476 234 l 1,8,-1
 480 230 l 1,9,-1
 480 224 l 1,10,-1
 480 64 l 1,11,-1
 480 48 l 1,12,-1
 464 48 l 1,13,-1
 430 48 l 1,14,15
 424 27 424 27 407 13.5 c 128,-1,16
 390 0 390 0 368 0 c 128,-1,17
 346 0 346 0 329 13.5 c 128,-1,18
 312 27 312 27 306 48 c 1,19,-1
 174 48 l 1,20,21
 168 27 168 27 151 13.5 c 128,-1,22
 134 0 134 0 112 0 c 128,-1,23
 90 0 90 0 73 13.5 c 128,-1,24
 56 27 56 27 50 48 c 1,25,-1
 16 48 l 1,26,-1
 0 48 l 1,27,-1
 0 64 l 1,28,-1
 0 336 l 1,29,-1
 0 352 l 1,30,-1
 16 352 l 1,31,-1
 240 352 l 1,32,-1
 240 368 l 2,33,34
 240 381 240 381 249.5 390.5 c 128,-1,0
 259 400 259 400 272 400 c 128,-1,1
32 320 m 1,35,-1
 32 80 l 1,36,-1
 50 80 l 1,37,38
 56 101 56 101 73 114.5 c 128,-1,39
 90 128 90 128 112 128 c 128,-1,40
 134 128 134 128 151 114.5 c 128,-1,41
 168 101 168 101 174 80 c 1,42,-1
 306 80 l 1,43,44
 312 101 312 101 329 114.5 c 128,-1,45
 346 128 346 128 368 128 c 128,-1,46
 390 128 390 128 407 114.5 c 128,-1,47
 424 101 424 101 430 80 c 1,48,-1
 448 80 l 1,49,-1
 448 218 l 1,50,-1
 360 320 l 1,51,-1
 32 320 l 1,35,-1
208 272 m 1,52,-1
 240 272 l 1,53,-1
 240 224 l 1,54,-1
 288 224 l 1,55,-1
 288 192 l 1,56,-1
 240 192 l 1,57,-1
 240 144 l 1,58,-1
 208 144 l 1,59,-1
 208 192 l 1,60,-1
 160 192 l 1,61,-1
 160 224 l 1,62,-1
 208 224 l 1,63,-1
 208 272 l 1,52,-1
112 96 m 128,-1,65
 99 96 99 96 89.5 86.5 c 128,-1,66
 80 77 80 77 80 64 c 128,-1,67
 80 51 80 51 89.5 41.5 c 128,-1,68
 99 32 99 32 112 32 c 128,-1,69
 125 32 125 32 134.5 41.5 c 128,-1,70
 144 51 144 51 144 64 c 128,-1,71
 144 77 144 77 134.5 86.5 c 128,-1,64
 125 96 125 96 112 96 c 128,-1,65
368 96 m 128,-1,73
 355 96 355 96 345.5 86.5 c 128,-1,74
 336 77 336 77 336 64 c 128,-1,75
 336 51 336 51 345.5 41.5 c 128,-1,76
 355 32 355 32 368 32 c 128,-1,77
 381 32 381 32 390.5 41.5 c 128,-1,78
 400 51 400 51 400 64 c 128,-1,79
 400 77 400 77 390.5 86.5 c 128,-1,72
 381 96 381 96 368 96 c 128,-1,73
EndSplineSet
EndChar

StartChar: anchor
Encoding: 61705 61705 13
Width: 512
Flags: W
LayerCount: 2
Fore
SplineSet
256 384 m 128,-1,1
 282 384 282 384 301 365 c 128,-1,2
 320 346 320 346 320 320 c 0,3,4
 320 298 320 298 306.5 281 c 128,-1,5
 293 264 293 264 272 258 c 1,6,-1
 272 224 l 1,7,-1
 320 224 l 1,8,-1
 320 192 l 1,9,-1
 272 192 l 1,10,-1
 272 64 l 1,11,12
 322 68 322 68 355 98 c 0,13,14
 372 113 372 113 385 136 c 1,15,-1
 360 148 l 1,16,-1
 424 177 l 1,17,-1
 440 108 l 1,18,-1
 414 121 l 1,19,20
 399 94 399 94 376 74 c 0,21,22
 335 37 335 37 272 33 c 1,23,-1
 272 32 l 1,24,-1
 256 16 l 1,25,-1
 240 32 l 1,26,-1
 240 33 l 1,27,28
 177 37 177 37 136 74 c 0,29,30
 113 94 113 94 98 121 c 1,31,-1
 72 108 l 1,32,-1
 88 177 l 1,33,-1
 152 148 l 1,34,-1
 127 136 l 1,35,36
 140 113 140 113 157 98 c 0,37,38
 190 68 190 68 240 64 c 1,39,-1
 240 192 l 1,40,-1
 192 192 l 1,41,-1
 192 224 l 1,42,-1
 240 224 l 1,43,-1
 240 258 l 1,44,45
 219 264 219 264 205.5 281 c 128,-1,46
 192 298 192 298 192 320 c 0,47,48
 192 346 192 346 211 365 c 128,-1,0
 230 384 230 384 256 384 c 128,-1,1
256 352 m 128,-1,50
 243 352 243 352 233.5 342.5 c 128,-1,51
 224 333 224 333 224 320 c 128,-1,52
 224 307 224 307 233.5 297.5 c 128,-1,53
 243 288 243 288 256 288 c 128,-1,54
 269 288 269 288 278.5 297.5 c 128,-1,55
 288 307 288 307 288 320 c 128,-1,56
 288 333 288 333 278.5 342.5 c 128,-1,49
 269 352 269 352 256 352 c 128,-1,50
EndSplineSet
EndChar

StartChar: android
Encoding: 61706 61706 14
Width: 512
Flags: W
LayerCount: 2
Fore
SplineSet
152 392 m 2,0,-1
 153 392 l 1,1,-1
 154 392 l 2,2,3
 155 392 155 392 155 392 c 2,4,5
 159 392 159 392 162 388 c 2,6,-1
 186 354 l 1,7,8
 211 368 211 368 240 368 c 128,-1,9
 269 368 269 368 294 354 c 1,10,-1
 318 388 l 2,11,12
 320 391 320 391 324 392 c 0,13,14
 325 392 325 392 325 392 c 2,15,16
 333 392 333 392 333 384 c 0,17,18
 333 381 333 381 332 379 c 2,19,-1
 308 345 l 1,20,21
 352 311 352 311 352 256 c 2,22,-1
 352 96 l 2,23,24
 352 81 352 81 336 71 c 1,25,-1
 336 24 l 2,26,27
 336 8 336 8 324 -4 c 128,-1,28
 312 -16 312 -16 296 -16 c 128,-1,29
 280 -16 280 -16 268 -4 c 128,-1,30
 256 8 256 8 256 24 c 2,31,-1
 256 64 l 1,32,-1
 224 64 l 1,33,-1
 224 24 l 2,34,35
 224 8 224 8 212 -4 c 128,-1,36
 200 -16 200 -16 184 -16 c 128,-1,37
 168 -16 168 -16 156 -4 c 128,-1,38
 144 8 144 8 144 24 c 2,39,-1
 144 71 l 1,40,41
 128 81 128 81 128 96 c 2,42,-1
 128 256 l 2,43,44
 128 311 128 311 172 345 c 1,45,-1
 148 379 l 2,46,47
 147 381 147 381 147 384 c 0,48,49
 147 390 147 390 152 392 c 2,0,-1
240 336 m 128,-1,51
 211 336 211 336 189 318 c 128,-1,52
 167 300 167 300 162 272 c 1,53,-1
 318 272 l 1,54,55
 313 300 313 300 291 318 c 128,-1,50
 269 336 269 336 240 336 c 128,-1,51
208 320 m 128,-1,57
 215 320 215 320 219.5 315.5 c 128,-1,58
 224 311 224 311 224 304 c 128,-1,59
 224 297 224 297 219.5 292.5 c 128,-1,60
 215 288 215 288 208 288 c 128,-1,61
 201 288 201 288 196.5 292.5 c 128,-1,62
 192 297 192 297 192 304 c 128,-1,63
 192 311 192 311 196.5 315.5 c 128,-1,56
 201 320 201 320 208 320 c 128,-1,57
272 320 m 128,-1,65
 279 320 279 320 283.5 315.5 c 128,-1,66
 288 311 288 311 288 304 c 128,-1,67
 288 297 288 297 283.5 292.5 c 128,-1,68
 279 288 279 288 272 288 c 128,-1,69
 265 288 265 288 260.5 292.5 c 128,-1,70
 256 297 256 297 256 304 c 128,-1,71
 256 311 256 311 260.5 315.5 c 128,-1,64
 265 320 265 320 272 320 c 128,-1,65
80 272 m 1,72,-1
 112 272 l 1,73,-1
 112 112 l 1,74,-1
 80 112 l 1,75,-1
 80 272 l 1,72,-1
368 272 m 1,76,-1
 400 272 l 1,77,-1
 400 112 l 1,78,-1
 368 112 l 1,79,-1
 368 272 l 1,76,-1
160 240 m 1,80,-1
 160 96 l 1,81,-1
 176 96 l 1,82,-1
 176 80 l 1,83,-1
 176 24 l 2,84,85
 176 16 176 16 184 16 c 128,-1,86
 192 16 192 16 192 24 c 2,87,-1
 192 80 l 1,88,-1
 192 96 l 1,89,-1
 208 96 l 1,90,-1
 272 96 l 1,91,-1
 288 96 l 1,92,-1
 288 80 l 1,93,-1
 288 24 l 2,94,95
 288 16 288 16 296 16 c 128,-1,96
 304 16 304 16 304 24 c 2,97,-1
 304 80 l 1,98,-1
 304 96 l 1,99,-1
 320 96 l 1,100,-1
 320 240 l 1,101,-1
 160 240 l 1,80,-1
EndSplineSet
EndChar

StartChar: angellist
Encoding: 61707 61707 15
Width: 512
Flags: W
LayerCount: 2
Fore
SplineSet
205 384 m 0,0,1
 212 384 212 384 219 380 c 0,2,3
 229 375 229 375 240 362 c 0,4,5
 254 344 254 344 268 309 c 0,6,7
 273 298 273 298 278 286 c 1,8,9
 282 301 282 301 283 305 c 0,10,11
 294 338 294 338 308 358 c 0,12,13
 318 372 318 372 328 378 c 0,14,15
 342 385 342 385 358 382 c 0,16,17
 372 379 372 379 378 364 c 0,18,19
 382 354 382 354 382 340 c 0,20,21
 382 319 382 319 376 284 c 0,22,23
 369 252 369 252 358 216 c 1,24,25
 367 210 367 210 372 203.5 c 128,-1,26
 377 197 377 197 379.5 190 c 128,-1,27
 382 183 382 183 383 176.5 c 128,-1,28
 384 170 384 170 384.5 165 c 128,-1,29
 385 160 385 160 384.5 155 c 128,-1,30
 384 150 384 150 384 150 c 1,31,32
 384 59 384 59 330 22 c 0,33,34
 298 0 298 0 254 0 c 0,35,36
 206 0 206 0 174 14 c 0,37,38
 147 27 147 27 129.5 53.5 c 128,-1,39
 112 80 112 80 112 120 c 0,40,41
 112 147 112 147 126 162 c 0,42,43
 135 170 135 170 150 172 c 1,44,45
 144 188 144 188 146 201 c 0,46,47
 148 222 148 222 167 234 c 0,48,49
 175 239 175 239 184 240 c 0,50,51
 188 240 188 240 192 239 c 1,52,53
 183 262 183 262 178 281 c 0,54,55
 169 315 169 315 168 336 c 0,56,57
 168 351 168 351 172 362 c 0,58,59
 177 376 177 376 190 382 c 0,60,61
 197 385 197 385 205 384 c 0,0,1
202 352 m 1,62,63
 202 352 202 352 202 352 c 129,-1,64
 202 352 202 352 202 350 c 0,65,66
 200 346 200 346 200 337 c 0,67,68
 200 318 200 318 208 290 c 0,69,70
 217 259 217 259 230 228 c 1,71,72
 241 240 241 240 258 240 c 2,73,-1
 259 240 l 1,74,75
 251 268 251 268 239 297 c 0,76,77
 227 327 227 327 214 342 c 0,78,79
 209 349 209 349 204 352 c 0,80,81
 203 352 203 352 202 352 c 1,62,63
346 350 m 0,82,83
 345 350 345 350 344 350 c 0,84,85
 339 347 339 347 334 340 c 0,86,87
 323 325 323 325 314 295 c 0,88,89
 304 267 304 267 299 238 c 1,90,91
 316 235 316 235 330 231 c 1,92,93
 339 262 339 262 344 290 c 0,94,95
 350 322 350 322 350 339 c 0,96,97
 350 345 350 345 348 350 c 1,98,99
 348 350 348 350 346 350 c 0,82,83
258 208 m 0,100,101
 254 208 254 208 252 206 c 0,102,103
 249 203 249 203 248 198 c 0,104,105
 248 194 248 194 250 190 c 0,106,107
 250 189 250 189 250.5 188 c 128,-1,108
 251 187 251 187 252 186 c 0,109,110
 254 184 254 184 256 184 c 2,111,-1
 302 170 l 2,112,113
 313 167 313 167 313 155 c 0,114,115
 313 142 313 142 300 139 c 0,116,117
 291 137 291 137 282 132 c 0,118,119
 272 125 272 125 269 118 c 0,120,121
 266 114 266 114 266 106 c 0,122,123
 266 89 266 89 274 78 c 2,124,-1
 280 72 l 1,125,-1
 262 45 l 1,126,127
 254 50 254 50 248 60 c 0,128,129
 243 66 243 66 240 77 c 0,130,131
 239 77 239 77 238 73.5 c 128,-1,132
 237 70 237 70 236 68 c 0,133,134
 224 54 224 54 206 54 c 0,135,136
 190 54 190 54 175 67 c 0,137,138
 165 75 165 75 154 92 c 1,139,-1
 182 110 l 1,140,141
 191 96 191 96 196 90 c 0,142,143
 202 86 202 86 206 86 c 0,144,145
 209 86 209 86 212 89 c 1,146,147
 206 99 206 99 201 105 c 0,148,149
 178 135 178 135 158 140 c 0,150,151
 152 142 152 142 149 139 c 0,152,153
 144 134 144 134 144 120 c 0,154,155
 144 64 144 64 188 44 c 0,156,157
 213 32 213 32 254 32 c 0,158,159
 288 32 288 32 312 48 c 0,160,161
 352 76 352 76 352 150 c 0,162,163
 352 152 352 152 352 157 c 128,-1,164
 352 162 352 162 352 164.5 c 128,-1,165
 352 167 352 167 351.5 171 c 128,-1,166
 351 175 351 175 350 178 c 128,-1,167
 349 181 349 181 346 184 c 0,168,169
 329 208 329 208 258 208 c 0,100,101
184 208 m 0,170,171
 178 204 178 204 178 198 c 0,172,173
 177 190 177 190 180 180 c 0,174,175
 183 175 183 175 186.5 169 c 128,-1,176
 190 163 190 163 193 159 c 2,177,-1
 196 156 l 2,178,179
 211 145 211 145 226 124 c 1,180,181
 226 127 226 127 226 126 c 1,182,183
 230 126 230 126 235 128 c 0,184,185
 239 130 239 130 240 132.5 c 128,-1,186
 241 135 241 135 239 140 c 0,187,188
 226 174 226 174 204 195 c 0,189,190
 196 204 196 204 188 206 c 0,191,192
 185 208 185 208 184 208 c 0,170,171
EndSplineSet
EndChar

StartChar: angle-double-down
Encoding: 61708 61708 16
Width: 512
Flags: W
LayerCount: 2
Fore
SplineSet
84 341 m 1,0,-1
 256 168 l 1,1,-1
 428 341 l 1,2,-1
 452 318 l 1,3,-1
 268 134 l 1,4,-1
 256 123 l 1,5,-1
 244 134 l 1,6,-1
 60 318 l 1,7,-1
 84 341 l 1,0,-1
84 229 m 1,8,-1
 256 56 l 1,9,-1
 428 229 l 1,10,-1
 452 206 l 1,11,-1
 268 22 l 1,12,-1
 256 11 l 1,13,-1
 244 22 l 1,14,-1
 60 206 l 1,15,-1
 84 229 l 1,8,-1
EndSplineSet
EndChar

StartChar: angle-double-left
Encoding: 61709 61709 17
Width: 512
Flags: W
LayerCount: 2
Fore
SplineSet
254 372 m 1,0,-1
 277 348 l 1,1,-1
 120 192 l 1,2,-1
 277 36 l 1,3,-1
 254 12 l 1,4,-1
 86 180 l 1,5,-1
 75 192 l 1,6,-1
 86 204 l 1,7,-1
 254 372 l 1,0,-1
366 372 m 1,8,-1
 389 348 l 1,9,-1
 232 192 l 1,10,-1
 389 36 l 1,11,-1
 366 12 l 1,12,-1
 198 180 l 1,13,-1
 187 192 l 1,14,-1
 198 204 l 1,15,-1
 366 372 l 1,8,-1
EndSplineSet
EndChar

StartChar: angle-double-right
Encoding: 61710 61710 18
Width: 512
Flags: W
LayerCount: 2
Fore
SplineSet
146 372 m 1,0,-1
 314 204 l 1,1,-1
 325 192 l 1,2,-1
 314 180 l 1,3,-1
 146 12 l 1,4,-1
 123 36 l 1,5,-1
 280 192 l 1,6,-1
 123 348 l 1,7,-1
 146 372 l 1,0,-1
258 372 m 1,8,-1
 426 204 l 1,9,-1
 437 192 l 1,10,-1
 426 180 l 1,11,-1
 258 12 l 1,12,-1
 235 36 l 1,13,-1
 392 192 l 1,14,-1
 235 348 l 1,15,-1
 258 372 l 1,8,-1
EndSplineSet
EndChar

StartChar: angle-double-up
Encoding: 61711 61711 19
Width: 512
Flags: W
LayerCount: 2
Fore
SplineSet
256 373 m 1,0,-1
 268 362 l 1,1,-1
 452 178 l 1,2,-1
 428 155 l 1,3,-1
 256 328 l 1,4,-1
 84 155 l 1,5,-1
 60 178 l 1,6,-1
 244 362 l 1,7,-1
 256 373 l 1,0,-1
256 261 m 1,8,-1
 268 250 l 1,9,-1
 452 66 l 1,10,-1
 428 43 l 1,11,-1
 256 216 l 1,12,-1
 84 43 l 1,13,-1
 60 66 l 1,14,-1
 244 250 l 1,15,-1
 256 261 l 1,8,-1
EndSplineSet
EndChar

StartChar: angle-down
Encoding: 61712 61712 20
Width: 512
Flags: W
LayerCount: 2
Fore
SplineSet
68 276 m 1,0,-1
 256 87 l 1,1,-1
 444 276 l 1,2,-1
 468 252 l 1,3,-1
 268 52 l 1,4,-1
 256 42 l 1,5,-1
 244 52 l 1,6,-1
 44 252 l 1,7,-1
 68 276 l 1,0,-1
EndSplineSet
EndChar

StartChar: angle-left
Encoding: 61713 61713 21
Width: 512
Flags: W
LayerCount: 2
Fore
SplineSet
304 380 m 1,0,-1
 328 356 l 1,1,-1
 163 192 l 1,2,-1
 328 28 l 1,3,-1
 304 4 l 1,4,-1
 128 180 l 1,5,-1
 118 192 l 1,6,-1
 128 204 l 1,7,-1
 304 380 l 1,0,-1
EndSplineSet
EndChar

StartChar: angle-right
Encoding: 61714 61714 22
Width: 512
Flags: W
LayerCount: 2
Fore
SplineSet
208 380 m 1,0,-1
 384 204 l 1,1,-1
 394 192 l 1,2,-1
 384 180 l 1,3,-1
 208 4 l 1,4,-1
 184 28 l 1,5,-1
 349 192 l 1,6,-1
 184 356 l 1,7,-1
 208 380 l 1,0,-1
EndSplineSet
EndChar

StartChar: angle-up
Encoding: 61715 61715 23
Width: 512
Flags: W
LayerCount: 2
Fore
SplineSet
256 342 m 1,0,-1
 268 332 l 1,1,-1
 468 132 l 1,2,-1
 444 108 l 1,3,-1
 256 297 l 1,4,-1
 68 108 l 1,5,-1
 44 132 l 1,6,-1
 244 332 l 1,7,-1
 256 342 l 1,0,-1
EndSplineSet
EndChar

StartChar: apple
Encoding: 61716 61716 24
Width: 512
Flags: W
LayerCount: 2
Fore
SplineSet
334 416 m 2,0,-1
 348 416 l 1,1,-1
 350 401 l 2,2,3
 352 361 352 361 324 330 c 1,4,5
 324 330 324 330 324 330 c 1,6,-1
 324 329 l 2,7,8
 322 327 322 327 317.5 323.5 c 128,-1,9
 313 320 313 320 312 319 c 2,10,11
 312 319 312 319 319.5 321 c 128,-1,12
 327 323 327 323 332 323 c 0,13,14
 386 323 386 323 416 278 c 2,15,-1
 425 264 l 1,16,-1
 412 256 l 2,17,18
 411 255 411 255 410 254.5 c 128,-1,19
 409 254 409 254 409 254 c 257,20,21
 409 254 409 254 407.5 253 c 128,-1,22
 406 252 406 252 405 252 c 0,23,24
 399 247 399 247 393 240 c 0,25,26
 376 221 376 221 376 196 c 0,27,28
 376 169 376 169 395 150 c 0,29,30
 406 139 406 139 419 133 c 2,31,-1
 431 128 l 1,32,-1
 428 114 l 2,33,34
 427 112 427 112 425 106 c 0,35,36
 422 99 422 99 420 93 c 0,37,38
 410 73 410 73 400 56 c 0,39,40
 385 32 385 32 370 19 c 0,41,42
 349 0 349 0 326 0 c 0,43,44
 310 0 310 0 290 9 c 0,45,46
 274 16 274 16 264 16 c 0,47,48
 252 16 252 16 236 9 c 0,49,50
 215 0 215 0 200 0 c 0,51,52
 181 0 181 0 158 18 c 0,53,54
 138 34 138 34 122 60 c 0,55,56
 84 120 84 120 84 190 c 0,57,58
 84 246 84 246 116 284.5 c 128,-1,59
 148 323 148 323 196 323 c 0,60,61
 213 323 213 323 236 314 c 0,62,63
 238 313 238 313 239 312.5 c 128,-1,64
 240 312 240 312 241 312 c 1,65,66
 236 347 236 347 263 381 c 1,67,-1
 263 382 l 1,68,69
 292 416 292 416 334 416 c 2,0,-1
314 379 m 1,70,71
 298 372 298 372 288 361 c 1,72,73
 288 361 288 361 288 360 c 0,74,75
 278 349 278 349 274 332 c 1,76,77
 290 338 290 338 299 350 c 1,78,-1
 300 350 l 1,79,80
 310 361 310 361 314 379 c 1,70,71
196 291 m 0,81,82
 161 291 161 291 138.5 263.5 c 128,-1,83
 116 236 116 236 116 190 c 0,84,85
 116 130 116 130 149 78 c 0,86,87
 163 56 163 56 178 43 c 0,88,89
 192 32 192 32 200 32 c 256,90,91
 208 32 208 32 223 38 c 0,92,93
 245 48 245 48 264 48 c 0,94,95
 281 48 281 48 303 38 c 0,96,97
 318 32 318 32 326 32 c 0,98,99
 336 32 336 32 348.5 43 c 128,-1,100
 361 54 361 54 373 74 c 0,101,102
 382 88 382 88 390 106 c 0,103,104
 391 108 391 108 392 110 c 128,-1,105
 393 112 393 112 393 112 c 1,106,107
 378 121 378 121 372 128 c 0,108,109
 344 156 344 156 344 196 c 0,110,111
 344 233 344 233 369 261 c 0,112,113
 370 263 370 263 378 270 c 1,114,115
 355 291 355 291 332 291 c 0,116,117
 316 291 316 291 294 284 c 0,118,119
 266 274 266 274 258 274 c 0,120,121
 248 274 248 274 224 284 c 0,122,123
 206 291 206 291 196 291 c 0,81,82
EndSplineSet
EndChar

StartChar: archive
Encoding: 61717 61717 25
Width: 512
Flags: W
LayerCount: 2
Fore
SplineSet
64 368 m 1,0,-1
 80 368 l 1,1,-1
 432 368 l 1,2,-1
 448 368 l 1,3,-1
 448 352 l 1,4,-1
 448 288 l 1,5,-1
 448 272 l 1,6,-1
 432 272 l 1,7,-1
 432 32 l 1,8,-1
 432 16 l 1,9,-1
 416 16 l 1,10,-1
 96 16 l 1,11,-1
 80 16 l 1,12,-1
 80 32 l 1,13,-1
 80 272 l 1,14,-1
 64 272 l 1,15,-1
 64 288 l 1,16,-1
 64 352 l 1,17,-1
 64 368 l 1,0,-1
96 336 m 1,18,-1
 96 304 l 1,19,-1
 416 304 l 1,20,-1
 416 336 l 1,21,-1
 96 336 l 1,18,-1
112 272 m 1,22,-1
 112 48 l 1,23,-1
 400 48 l 1,24,-1
 400 272 l 1,25,-1
 112 272 l 1,22,-1
205 240 m 2,26,27
 205 240 205 240 206 240 c 256,28,29
 207 240 207 240 207.5 240 c 128,-1,30
 208 240 208 240 208 240 c 1,31,-1
 304 240 l 2,32,33
 311 240 311 240 315.5 235.5 c 128,-1,34
 320 231 320 231 320 224 c 128,-1,35
 320 217 320 217 315.5 212.5 c 128,-1,36
 311 208 311 208 304 208 c 2,37,-1
 208 208 l 2,38,39
 207 208 207 208 206 208 c 0,40,41
 200 208 200 208 195 212.5 c 128,-1,42
 190 217 190 217 190 224 c 0,43,44
 190 230 190 230 194.5 234.5 c 128,-1,45
 199 239 199 239 205 240 c 2,26,27
EndSplineSet
EndChar

StartChar: area-chart
Encoding: 61718 61718 26
Width: 512
Flags: W
LayerCount: 2
Fore
SplineSet
448 383 m 1,0,-1
 448 350 l 1,1,-1
 448 258 l 1,2,-1
 448 224 l 1,3,-1
 448 192 l 1,4,-1
 448 16 l 1,5,-1
 448 0 l 1,6,-1
 432 0 l 1,7,-1
 80 0 l 1,8,-1
 64 0 l 1,9,-1
 64 16 l 1,10,-1
 64 128 l 1,11,-1
 64 160 l 1,12,-1
 64 184 l 1,13,-1
 64 256 l 1,14,-1
 64 276 l 1,15,-1
 83 272 l 1,16,-1
 156 257 l 1,17,-1
 247 318 l 1,18,-1
 252 321 l 1,19,-1
 258 320 l 1,20,-1
 348 305 l 1,21,-1
 422 363 l 1,22,-1
 448 383 l 1,0,-1
416 318 m 1,23,-1
 362 276 l 1,24,-1
 356 271 l 1,25,-1
 350 272 l 1,26,-1
 260 287 l 1,27,-1
 169 226 l 1,28,-1
 164 223 l 1,29,-1
 157 224 l 1,30,-1
 96 236 l 1,31,-1
 96 171 l 1,32,-1
 158 146 l 1,33,-1
 247 206 l 1,34,-1
 254 210 l 1,35,-1
 261 207 l 1,36,-1
 348 178 l 1,37,-1
 416 232 l 1,38,-1
 416 318 l 1,23,-1
416 190 m 1,39,-1
 362 148 l 1,40,-1
 355 142 l 1,41,-1
 347 145 l 1,42,-1
 259 174 l 1,43,-1
 169 114 l 1,44,-1
 162 110 l 1,45,-1
 154 113 l 1,46,-1
 96 136 l 1,47,-1
 96 128 l 1,48,-1
 96 32 l 1,49,-1
 416 32 l 1,50,-1
 416 190 l 1,39,-1
EndSplineSet
EndChar

StartChar: arrow-circle-down
Encoding: 61719 61719 27
Width: 512
Flags: W
LayerCount: 2
Fore
SplineSet
256 400 m 128,-1,1
 342 400 342 400 403 339 c 128,-1,2
 464 278 464 278 464 192 c 128,-1,3
 464 106 464 106 403 45 c 128,-1,4
 342 -16 342 -16 256 -16 c 128,-1,5
 170 -16 170 -16 109 45 c 128,-1,6
 48 106 48 106 48 192 c 128,-1,7
 48 278 48 278 109 339 c 128,-1,0
 170 400 170 400 256 400 c 128,-1,1
256 368 m 128,-1,9
 183 368 183 368 131.5 316.5 c 128,-1,10
 80 265 80 265 80 192 c 128,-1,11
 80 119 80 119 131.5 67.5 c 128,-1,12
 183 16 183 16 256 16 c 128,-1,13
 329 16 329 16 380.5 67.5 c 128,-1,14
 432 119 432 119 432 192 c 128,-1,15
 432 265 432 265 380.5 316.5 c 128,-1,8
 329 368 329 368 256 368 c 128,-1,9
240 304 m 1,16,-1
 272 304 l 1,17,-1
 272 140 l 1,18,-1
 336 204 l 1,19,-1
 358 180 l 1,20,-1
 268 90 l 1,21,-1
 256 78 l 1,22,-1
 244 90 l 1,23,-1
 154 180 l 1,24,-1
 176 204 l 1,25,-1
 240 140 l 1,26,-1
 240 304 l 1,16,-1
EndSplineSet
EndChar

StartChar: arrow-circle-left
Encoding: 61720 61720 28
Width: 512
Flags: W
LayerCount: 2
Fore
SplineSet
256 400 m 128,-1,1
 342 400 342 400 403 339 c 128,-1,2
 464 278 464 278 464 192 c 128,-1,3
 464 106 464 106 403 45 c 128,-1,4
 342 -16 342 -16 256 -16 c 128,-1,5
 170 -16 170 -16 109 45 c 128,-1,6
 48 106 48 106 48 192 c 128,-1,7
 48 278 48 278 109 339 c 128,-1,0
 170 400 170 400 256 400 c 128,-1,1
256 368 m 128,-1,9
 183 368 183 368 131.5 316.5 c 128,-1,10
 80 265 80 265 80 192 c 128,-1,11
 80 119 80 119 131.5 67.5 c 128,-1,12
 183 16 183 16 256 16 c 128,-1,13
 329 16 329 16 380.5 67.5 c 128,-1,14
 432 119 432 119 432 192 c 128,-1,15
 432 265 432 265 380.5 316.5 c 128,-1,8
 329 368 329 368 256 368 c 128,-1,9
244 294 m 1,16,-1
 268 272 l 1,17,-1
 204 208 l 1,18,-1
 368 208 l 1,19,-1
 368 176 l 1,20,-1
 204 176 l 1,21,-1
 268 112 l 1,22,-1
 244 90 l 1,23,-1
 154 180 l 1,24,-1
 142 192 l 1,25,-1
 154 204 l 1,26,-1
 244 294 l 1,16,-1
EndSplineSet
EndChar

StartChar: arrow-circle-o-down
Encoding: 61721 61721 29
Width: 512
Flags: W
LayerCount: 2
Fore
SplineSet
256 400 m 128,-1,1
 342 400 342 400 403 339 c 128,-1,2
 464 278 464 278 464 192 c 128,-1,3
 464 106 464 106 403 45 c 128,-1,4
 342 -16 342 -16 256 -16 c 128,-1,5
 170 -16 170 -16 109 45 c 128,-1,6
 48 106 48 106 48 192 c 128,-1,7
 48 278 48 278 109 339 c 128,-1,0
 170 400 170 400 256 400 c 128,-1,1
256 368 m 128,-1,9
 183 368 183 368 131.5 316.5 c 128,-1,10
 80 265 80 265 80 192 c 128,-1,11
 80 119 80 119 131.5 67.5 c 128,-1,12
 183 16 183 16 256 16 c 128,-1,13
 329 16 329 16 380.5 67.5 c 128,-1,14
 432 119 432 119 432 192 c 128,-1,15
 432 265 432 265 380.5 316.5 c 128,-1,8
 329 368 329 368 256 368 c 128,-1,9
240 304 m 1,16,-1
 272 304 l 1,17,-1
 272 140 l 1,18,-1
 336 204 l 1,19,-1
 358 180 l 1,20,-1
 268 90 l 1,21,-1
 256 78 l 1,22,-1
 244 90 l 1,23,-1
 154 180 l 1,24,-1
 176 204 l 1,25,-1
 240 140 l 1,26,-1
 240 304 l 1,16,-1
EndSplineSet
EndChar

StartChar: arrow-circle-o-left
Encoding: 61722 61722 30
Width: 512
Flags: W
LayerCount: 2
Fore
SplineSet
256 400 m 128,-1,1
 342 400 342 400 403 339 c 128,-1,2
 464 278 464 278 464 192 c 128,-1,3
 464 106 464 106 403 45 c 128,-1,4
 342 -16 342 -16 256 -16 c 128,-1,5
 170 -16 170 -16 109 45 c 128,-1,6
 48 106 48 106 48 192 c 128,-1,7
 48 278 48 278 109 339 c 128,-1,0
 170 400 170 400 256 400 c 128,-1,1
256 368 m 128,-1,9
 183 368 183 368 131.5 316.5 c 128,-1,10
 80 265 80 265 80 192 c 128,-1,11
 80 119 80 119 131.5 67.5 c 128,-1,12
 183 16 183 16 256 16 c 128,-1,13
 329 16 329 16 380.5 67.5 c 128,-1,14
 432 119 432 119 432 192 c 128,-1,15
 432 265 432 265 380.5 316.5 c 128,-1,8
 329 368 329 368 256 368 c 128,-1,9
244 294 m 1,16,-1
 268 272 l 1,17,-1
 204 208 l 1,18,-1
 368 208 l 1,19,-1
 368 176 l 1,20,-1
 204 176 l 1,21,-1
 268 112 l 1,22,-1
 244 90 l 1,23,-1
 154 180 l 1,24,-1
 142 192 l 1,25,-1
 154 204 l 1,26,-1
 244 294 l 1,16,-1
EndSplineSet
EndChar

StartChar: arrow-circle-o-right
Encoding: 61723 61723 31
Width: 512
Flags: W
LayerCount: 2
Fore
SplineSet
256 400 m 128,-1,1
 342 400 342 400 403 339 c 128,-1,2
 464 278 464 278 464 192 c 128,-1,3
 464 106 464 106 403 45 c 128,-1,4
 342 -16 342 -16 256 -16 c 128,-1,5
 170 -16 170 -16 109 45 c 128,-1,6
 48 106 48 106 48 192 c 128,-1,7
 48 278 48 278 109 339 c 128,-1,0
 170 400 170 400 256 400 c 128,-1,1
256 368 m 128,-1,9
 183 368 183 368 131.5 316.5 c 128,-1,10
 80 265 80 265 80 192 c 128,-1,11
 80 119 80 119 131.5 67.5 c 128,-1,12
 183 16 183 16 256 16 c 128,-1,13
 329 16 329 16 380.5 67.5 c 128,-1,14
 432 119 432 119 432 192 c 128,-1,15
 432 265 432 265 380.5 316.5 c 128,-1,8
 329 368 329 368 256 368 c 128,-1,9
268 294 m 1,16,-1
 358 204 l 1,17,-1
 370 192 l 1,18,-1
 358 180 l 1,19,-1
 268 90 l 1,20,-1
 244 112 l 1,21,-1
 308 176 l 1,22,-1
 144 176 l 1,23,-1
 144 208 l 1,24,-1
 308 208 l 1,25,-1
 244 272 l 1,26,-1
 268 294 l 1,16,-1
EndSplineSet
EndChar

StartChar: arrow-circle-o-up
Encoding: 61724 61724 32
Width: 512
Flags: W
LayerCount: 2
Fore
SplineSet
256 400 m 128,-1,1
 342 400 342 400 403 339 c 128,-1,2
 464 278 464 278 464 192 c 128,-1,3
 464 106 464 106 403 45 c 128,-1,4
 342 -16 342 -16 256 -16 c 128,-1,5
 170 -16 170 -16 109 45 c 128,-1,6
 48 106 48 106 48 192 c 128,-1,7
 48 278 48 278 109 339 c 128,-1,0
 170 400 170 400 256 400 c 128,-1,1
256 368 m 128,-1,9
 183 368 183 368 131.5 316.5 c 128,-1,10
 80 265 80 265 80 192 c 128,-1,11
 80 119 80 119 131.5 67.5 c 128,-1,12
 183 16 183 16 256 16 c 128,-1,13
 329 16 329 16 380.5 67.5 c 128,-1,14
 432 119 432 119 432 192 c 128,-1,15
 432 265 432 265 380.5 316.5 c 128,-1,8
 329 368 329 368 256 368 c 128,-1,9
256 306 m 1,16,-1
 268 294 l 1,17,-1
 358 204 l 1,18,-1
 336 180 l 1,19,-1
 272 244 l 1,20,-1
 272 80 l 1,21,-1
 240 80 l 1,22,-1
 240 244 l 1,23,-1
 176 180 l 1,24,-1
 154 204 l 1,25,-1
 244 294 l 1,26,-1
 256 306 l 1,16,-1
EndSplineSet
EndChar

StartChar: arrow-circle-right
Encoding: 61725 61725 33
Width: 512
Flags: W
LayerCount: 2
Fore
SplineSet
256 400 m 128,-1,1
 342 400 342 400 403 339 c 128,-1,2
 464 278 464 278 464 192 c 128,-1,3
 464 106 464 106 403 45 c 128,-1,4
 342 -16 342 -16 256 -16 c 128,-1,5
 170 -16 170 -16 109 45 c 128,-1,6
 48 106 48 106 48 192 c 128,-1,7
 48 278 48 278 109 339 c 128,-1,0
 170 400 170 400 256 400 c 128,-1,1
256 368 m 128,-1,9
 183 368 183 368 131.5 316.5 c 128,-1,10
 80 265 80 265 80 192 c 128,-1,11
 80 119 80 119 131.5 67.5 c 128,-1,12
 183 16 183 16 256 16 c 128,-1,13
 329 16 329 16 380.5 67.5 c 128,-1,14
 432 119 432 119 432 192 c 128,-1,15
 432 265 432 265 380.5 316.5 c 128,-1,8
 329 368 329 368 256 368 c 128,-1,9
268 294 m 1,16,-1
 358 204 l 1,17,-1
 370 192 l 1,18,-1
 358 180 l 1,19,-1
 268 90 l 1,20,-1
 244 112 l 1,21,-1
 308 176 l 1,22,-1
 144 176 l 1,23,-1
 144 208 l 1,24,-1
 308 208 l 1,25,-1
 244 272 l 1,26,-1
 268 294 l 1,16,-1
EndSplineSet
EndChar

StartChar: arrow-circle-up
Encoding: 61726 61726 34
Width: 512
Flags: W
LayerCount: 2
Fore
SplineSet
256 400 m 128,-1,1
 342 400 342 400 403 339 c 128,-1,2
 464 278 464 278 464 192 c 128,-1,3
 464 106 464 106 403 45 c 128,-1,4
 342 -16 342 -16 256 -16 c 128,-1,5
 170 -16 170 -16 109 45 c 128,-1,6
 48 106 48 106 48 192 c 128,-1,7
 48 278 48 278 109 339 c 128,-1,0
 170 400 170 400 256 400 c 128,-1,1
256 368 m 128,-1,9
 183 368 183 368 131.5 316.5 c 128,-1,10
 80 265 80 265 80 192 c 128,-1,11
 80 119 80 119 131.5 67.5 c 128,-1,12
 183 16 183 16 256 16 c 128,-1,13
 329 16 329 16 380.5 67.5 c 128,-1,14
 432 119 432 119 432 192 c 128,-1,15
 432 265 432 265 380.5 316.5 c 128,-1,8
 329 368 329 368 256 368 c 128,-1,9
256 306 m 1,16,-1
 268 294 l 1,17,-1
 358 204 l 1,18,-1
 336 180 l 1,19,-1
 272 244 l 1,20,-1
 272 80 l 1,21,-1
 240 80 l 1,22,-1
 240 244 l 1,23,-1
 176 180 l 1,24,-1
 154 204 l 1,25,-1
 244 294 l 1,26,-1
 256 306 l 1,16,-1
EndSplineSet
EndChar

StartChar: arrow-down
Encoding: 61727 61727 35
Width: 512
Flags: W
LayerCount: 2
Fore
SplineSet
240 384 m 1,0,-1
 272 384 l 1,1,-1
 272 63 l 1,2,-1
 380 172 l 1,3,-1
 404 148 l 1,4,-1
 268 12 l 1,5,-1
 256 2 l 1,6,-1
 244 12 l 1,7,-1
 108 148 l 1,8,-1
 132 172 l 1,9,-1
 240 63 l 1,10,-1
 240 384 l 1,0,-1
EndSplineSet
EndChar

StartChar: arrow-left
Encoding: 61728 61728 36
Width: 512
Flags: W
LayerCount: 2
Fore
SplineSet
212 340 m 1,0,-1
 236 316 l 1,1,-1
 127 208 l 1,2,-1
 448 208 l 1,3,-1
 448 176 l 1,4,-1
 127 176 l 1,5,-1
 236 68 l 1,6,-1
 212 44 l 1,7,-1
 76 180 l 1,8,-1
 66 192 l 1,9,-1
 76 204 l 1,10,-1
 212 340 l 1,0,-1
EndSplineSet
EndChar

StartChar: arrow-right
Encoding: 61729 61729 37
Width: 512
Flags: W
LayerCount: 2
Fore
SplineSet
300 340 m 1,0,-1
 436 204 l 1,1,-1
 446 192 l 1,2,-1
 436 180 l 1,3,-1
 300 44 l 1,4,-1
 276 68 l 1,5,-1
 385 176 l 1,6,-1
 64 176 l 1,7,-1
 64 208 l 1,8,-1
 385 208 l 1,9,-1
 276 316 l 1,10,-1
 300 340 l 1,0,-1
EndSplineSet
EndChar

StartChar: arrow-up
Encoding: 61730 61730 38
Width: 512
Flags: W
LayerCount: 2
Fore
SplineSet
256 382 m 1,0,-1
 268 372 l 1,1,-1
 404 236 l 1,2,-1
 380 212 l 1,3,-1
 272 321 l 1,4,-1
 272 0 l 1,5,-1
 240 0 l 1,6,-1
 240 321 l 1,7,-1
 132 212 l 1,8,-1
 108 236 l 1,9,-1
 244 372 l 1,10,-1
 256 382 l 1,0,-1
EndSplineSet
EndChar

StartChar: arrows
Encoding: 61731 61731 39
Width: 512
Flags: W
LayerCount: 2
Fore
SplineSet
64 384 m 1,0,-1
 80 384 l 1,1,-1
 208 384 l 1,2,-1
 208 352 l 1,3,-1
 119 352 l 1,4,-1
 256 215 l 1,5,-1
 393 352 l 1,6,-1
 304 352 l 1,7,-1
 304 384 l 1,8,-1
 432 384 l 1,9,-1
 448 384 l 1,10,-1
 448 368 l 1,11,-1
 448 240 l 1,12,-1
 416 240 l 1,13,-1
 416 329 l 1,14,-1
 279 192 l 1,15,-1
 416 55 l 1,16,-1
 416 144 l 1,17,-1
 448 144 l 1,18,-1
 448 16 l 1,19,-1
 448 0 l 1,20,-1
 432 0 l 1,21,-1
 304 0 l 1,22,-1
 304 32 l 1,23,-1
 393 32 l 1,24,-1
 256 169 l 1,25,-1
 119 32 l 1,26,-1
 208 32 l 1,27,-1
 208 0 l 1,28,-1
 80 0 l 1,29,-1
 64 0 l 1,30,-1
 64 16 l 1,31,-1
 64 144 l 1,32,-1
 96 144 l 1,33,-1
 96 55 l 1,34,-1
 233 192 l 1,35,-1
 96 329 l 1,36,-1
 96 240 l 1,37,-1
 64 240 l 1,38,-1
 64 368 l 1,39,-1
 64 384 l 1,0,-1
EndSplineSet
EndChar

StartChar: arrows-alt
Encoding: 61732 61732 40
Width: 512
Flags: W
LayerCount: 2
Fore
SplineSet
64 384 m 1,0,-1
 80 384 l 1,1,-1
 208 384 l 1,2,-1
 208 352 l 1,3,-1
 119 352 l 1,4,-1
 256 215 l 1,5,-1
 393 352 l 1,6,-1
 304 352 l 1,7,-1
 304 384 l 1,8,-1
 432 384 l 1,9,-1
 448 384 l 1,10,-1
 448 368 l 1,11,-1
 448 240 l 1,12,-1
 416 240 l 1,13,-1
 416 329 l 1,14,-1
 279 192 l 1,15,-1
 416 55 l 1,16,-1
 416 144 l 1,17,-1
 448 144 l 1,18,-1
 448 16 l 1,19,-1
 448 0 l 1,20,-1
 432 0 l 1,21,-1
 304 0 l 1,22,-1
 304 32 l 1,23,-1
 393 32 l 1,24,-1
 256 169 l 1,25,-1
 119 32 l 1,26,-1
 208 32 l 1,27,-1
 208 0 l 1,28,-1
 80 0 l 1,29,-1
 64 0 l 1,30,-1
 64 16 l 1,31,-1
 64 144 l 1,32,-1
 96 144 l 1,33,-1
 96 55 l 1,34,-1
 233 192 l 1,35,-1
 96 329 l 1,36,-1
 96 240 l 1,37,-1
 64 240 l 1,38,-1
 64 368 l 1,39,-1
 64 384 l 1,0,-1
EndSplineSet
EndChar

StartChar: arrows-h
Encoding: 61733 61733 41
Width: 512
Flags: W
LayerCount: 2
Fore
SplineSet
148 340 m 1,0,-1
 172 316 l 1,1,-1
 63 208 l 1,2,-1
 449 208 l 1,3,-1
 340 316 l 1,4,-1
 364 340 l 1,5,-1
 500 204 l 1,6,-1
 510 192 l 1,7,-1
 500 180 l 1,8,-1
 364 44 l 1,9,-1
 340 68 l 1,10,-1
 449 176 l 1,11,-1
 63 176 l 1,12,-1
 172 68 l 1,13,-1
 148 44 l 1,14,-1
 12 180 l 1,15,-1
 2 192 l 1,16,-1
 12 204 l 1,17,-1
 148 340 l 1,0,-1
EndSplineSet
EndChar

StartChar: arrows-v
Encoding: 61734 61734 42
Width: 512
Flags: W
LayerCount: 2
Fore
SplineSet
256 414 m 1,0,-1
 268 404 l 1,1,-1
 396 276 l 1,2,-1
 372 252 l 1,3,-1
 272 353 l 1,4,-1
 272 31 l 1,5,-1
 372 132 l 1,6,-1
 396 108 l 1,7,-1
 268 -20 l 1,8,-1
 256 -30 l 1,9,-1
 244 -20 l 1,10,-1
 116 108 l 1,11,-1
 140 132 l 1,12,-1
 240 31 l 1,13,-1
 240 353 l 1,14,-1
 140 252 l 1,15,-1
 116 276 l 1,16,-1
 244 404 l 1,17,-1
 256 414 l 1,0,-1
EndSplineSet
EndChar

StartChar: asterisk
Encoding: 61735 61735 43
Width: 512
Flags: W
LayerCount: 2
Fore
SplineSet
283 176 m 1,0,-1
 382 42 l 1,1,-1
 344 16 l 1,2,-1
 256 155 l 1,3,-1
 168 16 l 1,4,-1
 131 42 l 1,5,-1
 230 176 l 1,6,-1
 82 214 l 1,7,-1
 96 256 l 1,8,-1
 242 205 l 1,9,-1
 232 368 l 1,10,-1
 280 368 l 1,11,-1
 272 205 l 1,12,-1
 416 256 l 1,13,-1
 429 213 l 1,14,-1
 283 176 l 1,0,-1
EndSplineSet
EndChar

StartChar: at
Encoding: 61736 61736 44
Width: 512
Flags: W
LayerCount: 2
Fore
SplineSet
259 384 m 0,0,1
 335 383 335 383 390.5 328.5 c 128,-1,2
 446 274 446 274 448 198 c 0,3,4
 448 197 448 197 448 194 c 0,5,6
 448 192 448 192 448 192 c 2,7,8
 448 152 448 152 419.5 124 c 128,-1,9
 391 96 391 96 352 96 c 0,10,11
 322 96 322 96 302 121 c 1,12,13
 280 96 280 96 248 96 c 0,14,15
 218 96 218 96 197 117 c 128,-1,16
 176 138 176 138 176 168 c 2,17,-1
 176 216 l 2,18,19
 176 246 176 246 197 267 c 128,-1,20
 218 288 218 288 248 288 c 0,21,22
 270 288 270 288 288 276 c 1,23,-1
 288 288 l 1,24,-1
 320 288 l 1,25,-1
 320 216 l 1,26,-1
 320 168 l 1,27,-1
 320 160 l 2,28,29
 320 147 320 147 329.5 137.5 c 128,-1,30
 339 128 339 128 352 128 c 0,31,32
 379 128 379 128 397.5 146.5 c 128,-1,33
 416 165 416 165 416 192 c 2,34,-1
 416 197 l 2,35,36
 414 260 414 260 368 305.5 c 128,-1,37
 322 351 322 351 258 352 c 0,38,39
 184 353 184 353 135 296.5 c 128,-1,40
 86 240 86 240 98 164 c 0,41,42
 107 114 107 114 144.5 77 c 128,-1,43
 182 40 182 40 234 34 c 0,44,45
 303 24 303 24 356 67 c 1,46,-1
 376 42 l 1,47,48
 312 -9 312 -9 230 2 c 0,49,50
 168 10 168 10 122.5 54 c 128,-1,51
 77 98 77 98 66 160 c 0,52,53
 52 249 52 249 111 317 c 128,-1,54
 170 385 170 385 259 384 c 0,0,1
248 256 m 128,-1,56
 231 256 231 256 219.5 244.5 c 128,-1,57
 208 233 208 233 208 216 c 2,58,-1
 208 168 l 2,59,60
 208 151 208 151 219.5 139.5 c 128,-1,61
 231 128 231 128 248 128 c 128,-1,62
 265 128 265 128 276.5 139.5 c 128,-1,63
 288 151 288 151 288 168 c 2,64,-1
 288 216 l 2,65,66
 288 233 288 233 276.5 244.5 c 128,-1,55
 265 256 265 256 248 256 c 128,-1,56
EndSplineSet
EndChar

StartChar: automobile
Encoding: 61737 61737 45
Width: 512
Flags: W
LayerCount: 2
Fore
SplineSet
152 352 m 2,0,-1
 360 352 l 2,1,2
 376 352 376 352 388.5 342.5 c 128,-1,3
 401 333 401 333 406 318 c 2,4,-1
 428 244 l 1,5,-1
 459 255 l 1,6,-1
 469 225 l 1,7,-1
 438 214 l 1,8,-1
 448 180 l 2,9,10
 448 179 448 179 448 177 c 2,11,-1
 448 176 l 1,12,-1
 448 64 l 2,13,14
 448 63 448 63 448 62.5 c 128,-1,15
 448 62 448 62 448 62 c 1,16,-1
 448 48 l 2,17,18
 448 41 448 41 443.5 36.5 c 128,-1,19
 439 32 439 32 432 32 c 2,20,-1
 384 32 l 1,21,-1
 378 48 l 1,22,-1
 134 48 l 1,23,-1
 128 32 l 1,24,-1
 80 32 l 2,25,26
 73 32 73 32 68.5 36.5 c 128,-1,27
 64 41 64 41 64 48 c 2,28,-1
 64 62 l 2,29,30
 64 63 64 63 64 63.5 c 128,-1,31
 64 64 64 64 64 64 c 1,32,-1
 64 176 l 1,33,-1
 64 177 l 2,34,35
 64 179 64 179 64 180 c 2,36,-1
 74 214 l 1,37,-1
 43 225 l 1,38,-1
 53 255 l 1,39,-1
 84 244 l 1,40,-1
 106 318 l 2,41,42
 111 333 111 333 123.5 342.5 c 128,-1,43
 136 352 136 352 152 352 c 2,0,-1
152 320 m 2,44,45
 140 320 140 320 136 308 c 2,46,-1
 116 240 l 1,47,-1
 396 240 l 1,48,-1
 376 308 l 2,49,50
 372 320 372 320 360 320 c 2,51,-1
 152 320 l 2,44,45
106 208 m 1,52,-1
 96 173 l 1,53,-1
 96 80 l 1,54,-1
 144 80 l 1,55,-1
 416 80 l 1,56,-1
 416 173 l 1,57,-1
 406 208 l 1,58,-1
 106 208 l 1,52,-1
136 192 m 128,-1,60
 146 192 146 192 153 185 c 128,-1,61
 160 178 160 178 160 168 c 128,-1,62
 160 158 160 158 153 151 c 128,-1,63
 146 144 146 144 136 144 c 128,-1,64
 126 144 126 144 119 151 c 128,-1,65
 112 158 112 158 112 168 c 128,-1,66
 112 178 112 178 119 185 c 128,-1,59
 126 192 126 192 136 192 c 128,-1,60
376 192 m 128,-1,68
 386 192 386 192 393 185 c 128,-1,69
 400 178 400 178 400 168 c 128,-1,70
 400 158 400 158 393 151 c 128,-1,71
 386 144 386 144 376 144 c 128,-1,72
 366 144 366 144 359 151 c 128,-1,73
 352 158 352 158 352 168 c 128,-1,74
 352 178 352 178 359 185 c 128,-1,67
 366 192 366 192 376 192 c 128,-1,68
192 144 m 1,75,-1
 320 144 l 1,76,-1
 340 96 l 1,77,-1
 306 96 l 1,78,-1
 298 112 l 1,79,-1
 214 112 l 1,80,-1
 206 96 l 1,81,-1
 172 96 l 1,82,-1
 192 144 l 1,75,-1
EndSplineSet
EndChar

StartChar: backward
Encoding: 61738 61738 46
Width: 512
Flags: W
LayerCount: 2
Fore
SplineSet
272 368 m 1,0,-1
 272 336 l 1,1,-1
 272 250 l 1,2,-1
 406 349 l 1,3,-1
 432 368 l 1,4,-1
 432 336 l 1,5,-1
 432 48 l 1,6,-1
 432 16 l 1,7,-1
 406 35 l 1,8,-1
 272 134 l 1,9,-1
 272 48 l 1,10,-1
 272 16 l 1,11,-1
 246 35 l 1,12,-1
 54 179 l 1,13,-1
 38 192 l 1,14,-1
 54 205 l 1,15,-1
 246 349 l 1,16,-1
 272 368 l 1,0,-1
400 304 m 1,17,-1
 266 206 l 1,18,-1
 248 192 l 1,19,-1
 266 178 l 1,20,-1
 400 80 l 1,21,-1
 400 304 l 1,17,-1
240 304 m 1,22,-1
 91 192 l 1,23,-1
 240 80 l 1,24,-1
 240 166 l 1,25,-1
 240 186 l 1,26,-1
 240 198 l 1,27,-1
 240 218 l 1,28,-1
 240 304 l 1,22,-1
EndSplineSet
EndChar

StartChar: balance-scale
Encoding: 61739 61739 47
Width: 512
Flags: W
LayerCount: 2
Fore
SplineSet
256 368 m 128,-1,1
 289 368 289 368 301 336 c 1,2,-1
 416 336 l 1,3,-1
 416 304 l 1,4,-1
 394 304 l 1,5,-1
 398 296 l 1,6,-1
 462 184 l 1,7,-1
 464 180 l 1,8,-1
 464 176 l 2,9,10
 464 143 464 143 440.5 119.5 c 128,-1,11
 417 96 417 96 384 96 c 128,-1,12
 351 96 351 96 327.5 119.5 c 128,-1,13
 304 143 304 143 304 176 c 2,14,-1
 304 180 l 1,15,-1
 306 184 l 1,16,-1
 370 296 l 1,17,-1
 374 304 l 1,18,-1
 301 304 l 1,19,20
 293 283 293 283 272 275 c 1,21,-1
 272 64 l 1,22,-1
 336 64 l 1,23,-1
 336 32 l 1,24,-1
 176 32 l 1,25,-1
 176 64 l 1,26,-1
 240 64 l 1,27,-1
 240 275 l 1,28,29
 219 283 219 283 211 304 c 1,30,-1
 138 304 l 1,31,-1
 142 296 l 1,32,-1
 206 184 l 1,33,-1
 208 180 l 1,34,-1
 208 176 l 2,35,36
 208 143 208 143 184.5 119.5 c 128,-1,37
 161 96 161 96 128 96 c 128,-1,38
 95 96 95 96 71.5 119.5 c 128,-1,39
 48 143 48 143 48 176 c 2,40,-1
 48 180 l 1,41,-1
 50 184 l 1,42,-1
 114 296 l 1,43,-1
 118 304 l 1,44,-1
 96 304 l 1,45,-1
 96 336 l 1,46,-1
 211 336 l 1,47,0
 223 368 223 368 256 368 c 128,-1,1
256 336 m 128,-1,49
 240 336 240 336 240 320 c 128,-1,50
 240 304 240 304 256 304 c 128,-1,51
 272 304 272 304 272 320 c 128,-1,48
 272 336 272 336 256 336 c 128,-1,49
128 256 m 1,52,-1
 92 192 l 1,53,-1
 164 192 l 1,54,-1
 128 256 l 1,52,-1
384 256 m 1,55,-1
 348 192 l 1,56,-1
 420 192 l 1,57,-1
 384 256 l 1,55,-1
84 160 m 1,58,59
 95 128 95 128 128 128 c 128,-1,60
 161 128 161 128 172 160 c 1,61,-1
 84 160 l 1,58,59
340 160 m 1,62,63
 351 128 351 128 384 128 c 128,-1,64
 417 128 417 128 428 160 c 1,65,-1
 340 160 l 1,62,63
EndSplineSet
EndChar

StartChar: ban
Encoding: 61740 61740 48
Width: 512
Flags: W
LayerCount: 2
Fore
SplineSet
256 400 m 128,-1,1
 342 400 342 400 403 339 c 128,-1,2
 464 278 464 278 464 192 c 128,-1,3
 464 106 464 106 403 45 c 128,-1,4
 342 -16 342 -16 256 -16 c 128,-1,5
 170 -16 170 -16 109 45 c 128,-1,6
 48 106 48 106 48 192 c 128,-1,7
 48 278 48 278 109 339 c 128,-1,0
 170 400 170 400 256 400 c 128,-1,1
256 368 m 0,8,9
 193 368 193 368 144 328 c 1,10,-1
 390 78 l 1,11,12
 432 127 432 127 432 192 c 0,13,14
 432 265 432 265 380.5 316.5 c 128,-1,15
 329 368 329 368 256 368 c 0,8,9
122 306 m 1,16,17
 80 257 80 257 80 192 c 0,18,19
 80 119 80 119 131.5 67.5 c 128,-1,20
 183 16 183 16 256 16 c 0,21,22
 319 16 319 16 368 56 c 1,23,-1
 122 306 l 1,16,17
EndSplineSet
EndChar

StartChar: bank
Encoding: 61741 61741 49
Width: 512
Flags: W
LayerCount: 2
Fore
SplineSet
256 386 m 1,0,-1
 262 383 l 1,1,-1
 454 303 l 1,2,-1
 464 298 l 1,3,-1
 464 288 l 1,4,-1
 464 272 l 1,5,-1
 464 256 l 1,6,-1
 448 256 l 1,7,-1
 432 256 l 1,8,-1
 432 80 l 1,9,-1
 448 80 l 1,10,-1
 464 80 l 1,11,-1
 464 64 l 1,12,-1
 464 16 l 1,13,-1
 464 0 l 1,14,-1
 448 0 l 1,15,-1
 64 0 l 1,16,-1
 48 0 l 1,17,-1
 48 16 l 1,18,-1
 48 64 l 1,19,-1
 48 80 l 1,20,-1
 64 80 l 1,21,-1
 80 80 l 1,22,-1
 80 256 l 1,23,-1
 64 256 l 1,24,-1
 48 256 l 1,25,-1
 48 272 l 1,26,-1
 48 288 l 1,27,-1
 48 298 l 1,28,-1
 58 303 l 1,29,-1
 250 383 l 1,30,-1
 256 386 l 1,0,-1
256 350 m 1,31,-1
 106 288 l 1,32,-1
 406 288 l 1,33,-1
 256 350 l 1,31,-1
112 256 m 1,34,-1
 112 80 l 1,35,-1
 144 80 l 1,36,-1
 144 256 l 1,37,-1
 112 256 l 1,34,-1
176 256 m 1,38,-1
 176 80 l 1,39,-1
 208 80 l 1,40,-1
 208 256 l 1,41,-1
 176 256 l 1,38,-1
240 256 m 1,42,-1
 240 80 l 1,43,-1
 272 80 l 1,44,-1
 272 256 l 1,45,-1
 240 256 l 1,42,-1
304 256 m 1,46,-1
 304 80 l 1,47,-1
 336 80 l 1,48,-1
 336 256 l 1,49,-1
 304 256 l 1,46,-1
368 256 m 1,50,-1
 368 80 l 1,51,-1
 400 80 l 1,52,-1
 400 256 l 1,53,-1
 368 256 l 1,50,-1
80 48 m 1,54,-1
 80 32 l 1,55,-1
 432 32 l 1,56,-1
 432 48 l 1,57,-1
 80 48 l 1,54,-1
EndSplineSet
EndChar

StartChar: bar-chart
Encoding: 61742 61742 50
Width: 512
Flags: W
LayerCount: 2
Fore
SplineSet
336 384 m 1,0,-1
 352 384 l 1,1,-1
 448 384 l 1,2,-1
 464 384 l 1,3,-1
 464 368 l 1,4,-1
 464 16 l 1,5,-1
 464 0 l 1,6,-1
 448 0 l 1,7,-1
 352 0 l 1,8,-1
 336 0 l 1,9,-1
 336 16 l 1,10,-1
 336 368 l 1,11,-1
 336 384 l 1,0,-1
368 352 m 1,12,-1
 368 32 l 1,13,-1
 432 32 l 1,14,-1
 432 352 l 1,15,-1
 368 352 l 1,12,-1
48 288 m 1,16,-1
 64 288 l 1,17,-1
 160 288 l 1,18,-1
 176 288 l 1,19,-1
 176 272 l 1,20,-1
 176 16 l 1,21,-1
 176 0 l 1,22,-1
 160 0 l 1,23,-1
 64 0 l 1,24,-1
 48 0 l 1,25,-1
 48 16 l 1,26,-1
 48 272 l 1,27,-1
 48 288 l 1,16,-1
80 256 m 1,28,-1
 80 32 l 1,29,-1
 144 32 l 1,30,-1
 144 256 l 1,31,-1
 80 256 l 1,28,-1
192 192 m 1,32,-1
 208 192 l 1,33,-1
 304 192 l 1,34,-1
 320 192 l 1,35,-1
 320 176 l 1,36,-1
 320 16 l 1,37,-1
 320 0 l 1,38,-1
 304 0 l 1,39,-1
 208 0 l 1,40,-1
 192 0 l 1,41,-1
 192 16 l 1,42,-1
 192 176 l 1,43,-1
 192 192 l 1,32,-1
224 160 m 1,44,-1
 224 32 l 1,45,-1
 288 32 l 1,46,-1
 288 160 l 1,47,-1
 224 160 l 1,44,-1
EndSplineSet
EndChar

StartChar: bar-chart-o
Encoding: 61743 61743 51
Width: 512
Flags: W
LayerCount: 2
Fore
SplineSet
336 384 m 1,0,-1
 352 384 l 1,1,-1
 448 384 l 1,2,-1
 464 384 l 1,3,-1
 464 368 l 1,4,-1
 464 16 l 1,5,-1
 464 0 l 1,6,-1
 448 0 l 1,7,-1
 352 0 l 1,8,-1
 336 0 l 1,9,-1
 336 16 l 1,10,-1
 336 368 l 1,11,-1
 336 384 l 1,0,-1
368 352 m 1,12,-1
 368 32 l 1,13,-1
 432 32 l 1,14,-1
 432 352 l 1,15,-1
 368 352 l 1,12,-1
48 288 m 1,16,-1
 64 288 l 1,17,-1
 160 288 l 1,18,-1
 176 288 l 1,19,-1
 176 272 l 1,20,-1
 176 16 l 1,21,-1
 176 0 l 1,22,-1
 160 0 l 1,23,-1
 64 0 l 1,24,-1
 48 0 l 1,25,-1
 48 16 l 1,26,-1
 48 272 l 1,27,-1
 48 288 l 1,16,-1
80 256 m 1,28,-1
 80 32 l 1,29,-1
 144 32 l 1,30,-1
 144 256 l 1,31,-1
 80 256 l 1,28,-1
192 192 m 1,32,-1
 208 192 l 1,33,-1
 304 192 l 1,34,-1
 320 192 l 1,35,-1
 320 176 l 1,36,-1
 320 16 l 1,37,-1
 320 0 l 1,38,-1
 304 0 l 1,39,-1
 208 0 l 1,40,-1
 192 0 l 1,41,-1
 192 16 l 1,42,-1
 192 176 l 1,43,-1
 192 192 l 1,32,-1
224 160 m 1,44,-1
 224 32 l 1,45,-1
 288 32 l 1,46,-1
 288 160 l 1,47,-1
 224 160 l 1,44,-1
EndSplineSet
EndChar

StartChar: barcode
Encoding: 61744 61744 52
Width: 512
Flags: W
LayerCount: 2
Fore
SplineSet
32 336 m 1,0,-1
 64 336 l 1,1,-1
 64 48 l 1,2,-1
 32 48 l 1,3,-1
 32 336 l 1,0,-1
96 336 m 1,4,-1
 192 336 l 1,5,-1
 192 48 l 1,6,-1
 96 48 l 1,7,-1
 96 336 l 1,4,-1
224 336 m 1,8,-1
 256 336 l 1,9,-1
 256 48 l 1,10,-1
 224 48 l 1,11,-1
 224 336 l 1,8,-1
288 336 m 1,12,-1
 352 336 l 1,13,-1
 352 48 l 1,14,-1
 288 48 l 1,15,-1
 288 336 l 1,12,-1
384 336 m 1,16,-1
 416 336 l 1,17,-1
 416 48 l 1,18,-1
 384 48 l 1,19,-1
 384 336 l 1,16,-1
448 336 m 1,20,-1
 480 336 l 1,21,-1
 480 48 l 1,22,-1
 448 48 l 1,23,-1
 448 336 l 1,20,-1
EndSplineSet
EndChar

StartChar: bars
Encoding: 61745 61745 53
Width: 512
Flags: W
LayerCount: 2
Fore
SplineSet
64 336 m 1,0,-1
 448 336 l 1,1,-1
 448 304 l 1,2,-1
 64 304 l 1,3,-1
 64 336 l 1,0,-1
64 208 m 1,4,-1
 448 208 l 1,5,-1
 448 176 l 1,6,-1
 64 176 l 1,7,-1
 64 208 l 1,4,-1
64 80 m 1,8,-1
 448 80 l 1,9,-1
 448 48 l 1,10,-1
 64 48 l 1,11,-1
 64 80 l 1,8,-1
EndSplineSet
EndChar

StartChar: battery-0
Encoding: 61746 61746 54
Width: 512
Flags: W
LayerCount: 2
Fore
SplineSet
48 320 m 1,0,-1
 64 320 l 1,1,-1
 416 320 l 1,2,-1
 432 320 l 1,3,-1
 432 304 l 1,4,-1
 432 240 l 1,5,-1
 464 240 l 1,6,-1
 464 144 l 1,7,-1
 432 144 l 1,8,-1
 432 80 l 1,9,-1
 432 64 l 1,10,-1
 416 64 l 1,11,-1
 64 64 l 1,12,-1
 48 64 l 1,13,-1
 48 80 l 1,14,-1
 48 304 l 1,15,-1
 48 320 l 1,0,-1
80 288 m 1,16,-1
 80 96 l 1,17,-1
 400 96 l 1,18,-1
 400 288 l 1,19,-1
 80 288 l 1,16,-1
EndSplineSet
EndChar

StartChar: battery-1
Encoding: 61747 61747 55
Width: 512
Flags: W
LayerCount: 2
Fore
SplineSet
48 320 m 1,0,-1
 64 320 l 1,1,-1
 416 320 l 1,2,-1
 432 320 l 1,3,-1
 432 304 l 1,4,-1
 432 240 l 1,5,-1
 464 240 l 1,6,-1
 464 144 l 1,7,-1
 432 144 l 1,8,-1
 432 80 l 1,9,-1
 432 64 l 1,10,-1
 416 64 l 1,11,-1
 64 64 l 1,12,-1
 48 64 l 1,13,-1
 48 80 l 1,14,-1
 48 304 l 1,15,-1
 48 320 l 1,0,-1
80 288 m 1,16,-1
 80 96 l 1,17,-1
 400 96 l 1,18,-1
 400 288 l 1,19,-1
 80 288 l 1,16,-1
112 256 m 1,20,-1
 176 256 l 1,21,-1
 176 128 l 1,22,-1
 112 128 l 1,23,-1
 112 256 l 1,20,-1
EndSplineSet
EndChar

StartChar: battery-2
Encoding: 61748 61748 56
Width: 512
Flags: W
LayerCount: 2
Fore
SplineSet
48 320 m 1,0,-1
 64 320 l 1,1,-1
 416 320 l 1,2,-1
 432 320 l 1,3,-1
 432 304 l 1,4,-1
 432 240 l 1,5,-1
 464 240 l 1,6,-1
 464 144 l 1,7,-1
 432 144 l 1,8,-1
 432 80 l 1,9,-1
 432 64 l 1,10,-1
 416 64 l 1,11,-1
 64 64 l 1,12,-1
 48 64 l 1,13,-1
 48 80 l 1,14,-1
 48 304 l 1,15,-1
 48 320 l 1,0,-1
80 288 m 1,16,-1
 80 96 l 1,17,-1
 400 96 l 1,18,-1
 400 288 l 1,19,-1
 80 288 l 1,16,-1
112 256 m 1,20,-1
 240 256 l 1,21,-1
 240 128 l 1,22,-1
 112 128 l 1,23,-1
 112 256 l 1,20,-1
EndSplineSet
EndChar

StartChar: battery-3
Encoding: 61749 61749 57
Width: 512
Flags: W
LayerCount: 2
Fore
SplineSet
48 320 m 1,0,-1
 64 320 l 1,1,-1
 416 320 l 1,2,-1
 432 320 l 1,3,-1
 432 304 l 1,4,-1
 432 240 l 1,5,-1
 464 240 l 1,6,-1
 464 144 l 1,7,-1
 432 144 l 1,8,-1
 432 80 l 1,9,-1
 432 64 l 1,10,-1
 416 64 l 1,11,-1
 64 64 l 1,12,-1
 48 64 l 1,13,-1
 48 80 l 1,14,-1
 48 304 l 1,15,-1
 48 320 l 1,0,-1
80 288 m 1,16,-1
 80 96 l 1,17,-1
 400 96 l 1,18,-1
 400 288 l 1,19,-1
 80 288 l 1,16,-1
112 256 m 1,20,-1
 336 256 l 1,21,-1
 336 128 l 1,22,-1
 112 128 l 1,23,-1
 112 256 l 1,20,-1
EndSplineSet
EndChar

StartChar: battery-4
Encoding: 61750 61750 58
Width: 512
Flags: W
LayerCount: 2
Fore
SplineSet
48 320 m 1,0,-1
 64 320 l 1,1,-1
 416 320 l 1,2,-1
 432 320 l 1,3,-1
 432 304 l 1,4,-1
 432 240 l 1,5,-1
 464 240 l 1,6,-1
 464 144 l 1,7,-1
 432 144 l 1,8,-1
 432 80 l 1,9,-1
 432 64 l 1,10,-1
 416 64 l 1,11,-1
 64 64 l 1,12,-1
 48 64 l 1,13,-1
 48 80 l 1,14,-1
 48 304 l 1,15,-1
 48 320 l 1,0,-1
80 288 m 1,16,-1
 80 96 l 1,17,-1
 400 96 l 1,18,-1
 400 288 l 1,19,-1
 80 288 l 1,16,-1
112 256 m 1,20,-1
 368 256 l 1,21,-1
 368 128 l 1,22,-1
 112 128 l 1,23,-1
 112 256 l 1,20,-1
EndSplineSet
EndChar

StartChar: battery-empty
Encoding: 61751 61751 59
Width: 512
Flags: W
LayerCount: 2
Fore
SplineSet
48 320 m 1,0,-1
 64 320 l 1,1,-1
 416 320 l 1,2,-1
 432 320 l 1,3,-1
 432 304 l 1,4,-1
 432 240 l 1,5,-1
 464 240 l 1,6,-1
 464 144 l 1,7,-1
 432 144 l 1,8,-1
 432 80 l 1,9,-1
 432 64 l 1,10,-1
 416 64 l 1,11,-1
 64 64 l 1,12,-1
 48 64 l 1,13,-1
 48 80 l 1,14,-1
 48 304 l 1,15,-1
 48 320 l 1,0,-1
80 288 m 1,16,-1
 80 96 l 1,17,-1
 400 96 l 1,18,-1
 400 288 l 1,19,-1
 80 288 l 1,16,-1
EndSplineSet
EndChar

StartChar: battery-full
Encoding: 61752 61752 60
Width: 512
Flags: W
LayerCount: 2
Fore
SplineSet
48 320 m 1,0,-1
 64 320 l 1,1,-1
 416 320 l 1,2,-1
 432 320 l 1,3,-1
 432 304 l 1,4,-1
 432 240 l 1,5,-1
 464 240 l 1,6,-1
 464 144 l 1,7,-1
 432 144 l 1,8,-1
 432 80 l 1,9,-1
 432 64 l 1,10,-1
 416 64 l 1,11,-1
 64 64 l 1,12,-1
 48 64 l 1,13,-1
 48 80 l 1,14,-1
 48 304 l 1,15,-1
 48 320 l 1,0,-1
80 288 m 1,16,-1
 80 96 l 1,17,-1
 400 96 l 1,18,-1
 400 288 l 1,19,-1
 80 288 l 1,16,-1
112 256 m 1,20,-1
 368 256 l 1,21,-1
 368 128 l 1,22,-1
 112 128 l 1,23,-1
 112 256 l 1,20,-1
EndSplineSet
EndChar

StartChar: battery-half
Encoding: 61753 61753 61
Width: 512
Flags: W
LayerCount: 2
Fore
SplineSet
48 320 m 1,0,-1
 64 320 l 1,1,-1
 416 320 l 1,2,-1
 432 320 l 1,3,-1
 432 304 l 1,4,-1
 432 240 l 1,5,-1
 464 240 l 1,6,-1
 464 144 l 1,7,-1
 432 144 l 1,8,-1
 432 80 l 1,9,-1
 432 64 l 1,10,-1
 416 64 l 1,11,-1
 64 64 l 1,12,-1
 48 64 l 1,13,-1
 48 80 l 1,14,-1
 48 304 l 1,15,-1
 48 320 l 1,0,-1
80 288 m 1,16,-1
 80 96 l 1,17,-1
 400 96 l 1,18,-1
 400 288 l 1,19,-1
 80 288 l 1,16,-1
112 256 m 1,20,-1
 240 256 l 1,21,-1
 240 128 l 1,22,-1
 112 128 l 1,23,-1
 112 256 l 1,20,-1
EndSplineSet
EndChar

StartChar: battery-quarter
Encoding: 61754 61754 62
Width: 512
Flags: W
LayerCount: 2
Fore
SplineSet
48 320 m 1,0,-1
 64 320 l 1,1,-1
 416 320 l 1,2,-1
 432 320 l 1,3,-1
 432 304 l 1,4,-1
 432 240 l 1,5,-1
 464 240 l 1,6,-1
 464 144 l 1,7,-1
 432 144 l 1,8,-1
 432 80 l 1,9,-1
 432 64 l 1,10,-1
 416 64 l 1,11,-1
 64 64 l 1,12,-1
 48 64 l 1,13,-1
 48 80 l 1,14,-1
 48 304 l 1,15,-1
 48 320 l 1,0,-1
80 288 m 1,16,-1
 80 96 l 1,17,-1
 400 96 l 1,18,-1
 400 288 l 1,19,-1
 80 288 l 1,16,-1
112 256 m 1,20,-1
 176 256 l 1,21,-1
 176 128 l 1,22,-1
 112 128 l 1,23,-1
 112 256 l 1,20,-1
EndSplineSet
EndChar

StartChar: battery-three-quarters
Encoding: 61755 61755 63
Width: 512
Flags: W
LayerCount: 2
Fore
SplineSet
48 320 m 1,0,-1
 64 320 l 1,1,-1
 416 320 l 1,2,-1
 432 320 l 1,3,-1
 432 304 l 1,4,-1
 432 240 l 1,5,-1
 464 240 l 1,6,-1
 464 144 l 1,7,-1
 432 144 l 1,8,-1
 432 80 l 1,9,-1
 432 64 l 1,10,-1
 416 64 l 1,11,-1
 64 64 l 1,12,-1
 48 64 l 1,13,-1
 48 80 l 1,14,-1
 48 304 l 1,15,-1
 48 320 l 1,0,-1
80 288 m 1,16,-1
 80 96 l 1,17,-1
 400 96 l 1,18,-1
 400 288 l 1,19,-1
 80 288 l 1,16,-1
112 256 m 1,20,-1
 336 256 l 1,21,-1
 336 128 l 1,22,-1
 112 128 l 1,23,-1
 112 256 l 1,20,-1
EndSplineSet
EndChar

StartChar: bed
Encoding: 61756 61756 64
Width: 512
Flags: W
LayerCount: 2
Fore
SplineSet
96 352 m 2,0,-1
 416 352 l 2,1,2
 436 352 436 352 450 338 c 128,-1,3
 464 324 464 324 464 304 c 2,4,-1
 464 196 l 1,5,6
 480 181 480 181 480 160 c 2,7,-1
 480 32 l 1,8,-1
 480 16 l 1,9,-1
 464 16 l 1,10,-1
 416 16 l 1,11,-1
 400 16 l 1,12,-1
 400 32 l 1,13,-1
 400 48 l 1,14,-1
 112 48 l 1,15,-1
 112 32 l 1,16,-1
 112 16 l 1,17,-1
 96 16 l 1,18,-1
 48 16 l 1,19,-1
 32 16 l 1,20,-1
 32 32 l 1,21,-1
 32 160 l 2,22,23
 32 181 32 181 48 196 c 1,24,-1
 48 304 l 2,25,26
 48 324 48 324 62 338 c 128,-1,27
 76 352 76 352 96 352 c 2,0,-1
96 320 m 2,28,29
 89 320 89 320 84.5 315.5 c 128,-1,30
 80 311 80 311 80 304 c 2,31,-1
 80 208 l 1,32,-1
 112 208 l 1,33,-1
 112 224 l 2,34,35
 112 244 112 244 126 258 c 128,-1,36
 140 272 140 272 160 272 c 2,37,-1
 224 272 l 2,38,39
 242 272 242 272 256 260 c 1,40,41
 270 272 270 272 288 272 c 2,42,-1
 352 272 l 2,43,44
 372 272 372 272 386 258 c 128,-1,45
 400 244 400 244 400 224 c 2,46,-1
 400 208 l 1,47,-1
 432 208 l 1,48,-1
 432 304 l 2,49,50
 432 311 432 311 427.5 315.5 c 128,-1,51
 423 320 423 320 416 320 c 2,52,-1
 96 320 l 2,28,29
160 240 m 2,53,54
 153 240 153 240 148.5 235.5 c 128,-1,55
 144 231 144 231 144 224 c 2,56,-1
 144 208 l 1,57,-1
 240 208 l 1,58,-1
 240 224 l 2,59,60
 240 231 240 231 235.5 235.5 c 128,-1,61
 231 240 231 240 224 240 c 2,62,-1
 160 240 l 2,53,54
288 240 m 2,63,64
 281 240 281 240 276.5 235.5 c 128,-1,65
 272 231 272 231 272 224 c 2,66,-1
 272 208 l 1,67,-1
 368 208 l 1,68,-1
 368 224 l 2,69,70
 368 231 368 231 363.5 235.5 c 128,-1,71
 359 240 359 240 352 240 c 2,72,-1
 288 240 l 2,63,64
80 176 m 2,73,74
 73 176 73 176 68.5 171.5 c 128,-1,75
 64 167 64 167 64 160 c 2,76,-1
 64 48 l 1,77,-1
 80 48 l 1,78,-1
 80 64 l 1,79,-1
 80 80 l 1,80,-1
 96 80 l 1,81,-1
 416 80 l 1,82,-1
 432 80 l 1,83,-1
 432 64 l 1,84,-1
 432 48 l 1,85,-1
 448 48 l 1,86,-1
 448 160 l 2,87,88
 448 167 448 167 443.5 171.5 c 128,-1,89
 439 176 439 176 432 176 c 2,90,-1
 80 176 l 2,73,74
EndSplineSet
EndChar

StartChar: beer
Encoding: 61757 61757 65
Width: 512
Flags: W
LayerCount: 2
Fore
SplineSet
216 384 m 0,0,1
 240 384 240 384 261 366 c 1,2,3
 271 368 271 368 272 368 c 0,4,5
 287 368 287 368 304 358 c 1,6,7
 321 368 321 368 336 368 c 0,8,9
 362 368 362 368 381 349 c 128,-1,10
 400 330 400 330 400 304 c 0,11,12
 400 281 400 281 384 262 c 1,13,14
 384 262 384 262 384 261 c 128,-1,15
 384 260 384 260 384 259 c 2,16,-1
 384 240 l 1,17,-1
 400 240 l 2,18,19
 420 240 420 240 434 226 c 128,-1,20
 448 212 448 212 448 192 c 2,21,-1
 448 128 l 2,22,23
 448 108 448 108 434 94 c 128,-1,24
 420 80 420 80 400 80 c 2,25,-1
 384 80 l 1,26,-1
 384 48 l 2,27,28
 384 28 384 28 370 14 c 128,-1,29
 356 0 356 0 336 0 c 2,30,-1
 144 0 l 2,31,32
 124 0 124 0 110 14 c 128,-1,33
 96 28 96 28 96 48 c 2,34,-1
 96 256 l 2,35,36
 96 259 96 259 97 262 c 0,37,38
 80 280 80 280 80 304 c 0,39,40
 80 330 80 330 99 349 c 128,-1,41
 118 368 118 368 144 368 c 0,42,43
 149 368 149 368 166 362 c 1,44,45
 188 384 188 384 216 384 c 0,0,1
216 352 m 0,46,47
 195 352 195 352 184 335 c 2,48,-1
 174 322 l 1,49,-1
 162 330 l 2,50,51
 153 336 153 336 144 336 c 0,52,53
 131 336 131 336 121.5 326.5 c 128,-1,54
 112 317 112 317 112 304 c 128,-1,55
 112 291 112 291 121.5 281.5 c 128,-1,56
 131 272 131 272 144 272 c 128,-1,57
 157 272 157 272 167 282 c 2,58,-1
 178 293 l 1,59,-1
 189 282 l 2,60,61
 201 272 201 272 216 272 c 0,62,63
 220 272 220 272 226 274 c 2,64,-1
 232 278 l 1,65,-1
 256 292 l 1,66,-1
 256 264 l 2,67,68
 256 240 256 240 247 212 c 0,69,70
 240 190 240 190 240 184 c 0,71,72
 240 174 240 174 247 167 c 128,-1,73
 254 160 254 160 264 160 c 128,-1,74
 274 160 274 160 281 167 c 128,-1,75
 288 174 288 174 288 184 c 0,76,77
 288 190 288 190 281 212 c 0,78,79
 272 239 272 239 272 264 c 2,80,-1
 272 286 l 1,81,-1
 292 280 l 2,82,83
 318 272 318 272 336 272 c 0,84,85
 349 272 349 272 358.5 281.5 c 128,-1,86
 368 291 368 291 368 304 c 128,-1,87
 368 317 368 317 358.5 326.5 c 128,-1,88
 349 336 349 336 336 336 c 0,89,90
 324 336 324 336 314 328 c 2,91,-1
 304 318 l 1,92,-1
 294 328 l 2,93,94
 284 336 284 336 272 336 c 0,95,96
 269 336 269 336 262 334 c 2,97,-1
 252 331 l 1,98,-1
 246 338 l 2,99,100
 233 352 233 352 216 352 c 0,46,47
179 252 m 1,101,102
 161 240 161 240 144 240 c 0,103,104
 138 240 138 240 128 242 c 1,105,-1
 128 48 l 2,106,107
 128 32 128 32 144 32 c 2,108,-1
 336 32 l 2,109,110
 352 32 352 32 352 48 c 2,111,-1
 352 92 l 2,112,113
 352 94 352 94 352 95.5 c 128,-1,114
 352 97 352 97 352 99 c 2,115,-1
 352 220 l 2,116,117
 351 222 351 222 351 224.5 c 128,-1,118
 351 227 351 227 352 229 c 2,119,-1
 352 242 l 1,120,121
 342 240 342 240 336 240 c 0,122,123
 326 240 326 240 307 244 c 1,124,125
 307 242 307 242 308 237 c 128,-1,126
 309 232 309 232 309.5 228 c 128,-1,127
 310 224 310 224 311 222 c 0,128,129
 320 194 320 194 320 184 c 0,130,131
 320 161 320 161 303.5 144.5 c 128,-1,132
 287 128 287 128 264 128 c 128,-1,133
 241 128 241 128 224.5 144.5 c 128,-1,134
 208 161 208 161 208 184 c 0,135,136
 208 194 208 194 217 222 c 0,137,138
 218 225 218 225 218.5 232 c 128,-1,139
 219 239 219 239 220 241 c 1,140,141
 219 241 219 241 218 240.5 c 128,-1,142
 217 240 217 240 216 240 c 0,143,144
 198 240 198 240 179 252 c 1,101,102
384 208 m 1,145,-1
 384 112 l 1,146,-1
 400 112 l 2,147,148
 416 112 416 112 416 128 c 2,149,-1
 416 192 l 2,150,151
 416 208 416 208 400 208 c 2,152,-1
 384 208 l 1,145,-1
EndSplineSet
EndChar

StartChar: behance
Encoding: 61758 61758 66
Width: 512
Flags: W
LayerCount: 2
Fore
SplineSet
16 340 m 1,0,-1
 155 340 l 2,1,2
 187 340 187 340 208 332.5 c 128,-1,3
 229 325 229 325 237 311.5 c 128,-1,4
 245 298 245 298 247.5 288.5 c 128,-1,5
 250 279 250 279 250 266 c 0,6,7
 250 224 250 224 210 205 c 1,8,9
 221 202 221 202 232 195 c 128,-1,10
 243 188 243 188 253.5 171 c 128,-1,11
 264 154 264 154 264 130 c 0,12,13
 264 107 264 107 254 89.5 c 128,-1,14
 244 72 244 72 231 63.5 c 128,-1,15
 218 55 218 55 201 50.5 c 128,-1,16
 184 46 184 46 175 45 c 128,-1,17
 166 44 166 44 159 44 c 2,18,-1
 16 44 l 1,19,-1
 16 340 l 1,0,-1
342 312 m 1,20,-1
 452 312 l 1,21,-1
 452 286 l 1,22,-1
 342 286 l 1,23,-1
 342 312 l 1,20,-1
81 290 m 1,24,-1
 81 220 l 1,25,-1
 147 220 l 2,26,27
 186 220 186 220 186 256 c 0,28,29
 186 290 186 290 142 290 c 2,30,-1
 81 290 l 1,24,-1
400 261 m 0,31,32
 452 261 452 261 475 226 c 128,-1,33
 498 191 498 191 496 144 c 1,34,-1
 354 144 l 1,35,36
 354 94 354 94 402 94 c 0,37,38
 419 94 419 94 430.5 103 c 128,-1,39
 442 112 442 112 444 120 c 1,40,-1
 492 120 l 1,41,42
 471 53 471 53 400 53 c 0,43,44
 387 53 387 53 373 56.5 c 128,-1,45
 359 60 359 60 341 69.5 c 128,-1,46
 323 79 323 79 311 101.5 c 128,-1,47
 299 124 299 124 299 157 c 0,48,49
 299 177 299 177 306 198.5 c 128,-1,50
 313 220 313 220 337.5 240.5 c 128,-1,51
 362 261 362 261 400 261 c 0,31,32
398 220 m 0,52,53
 386 220 386 220 377 216 c 0,54,55
 368 211 368 211 363 205 c 128,-1,56
 358 199 358 199 356 191 c 0,57,58
 354 184 354 184 354 178 c 1,59,-1
 442 178 l 1,60,61
 440 198 440 198 429 210 c 0,62,63
 419 220 419 220 398 220 c 0,52,53
81 176 m 1,64,-1
 81 94 l 1,65,-1
 150 94 l 2,66,67
 198 94 198 94 198 134 c 0,68,69
 198 176 198 176 152 176 c 2,70,-1
 81 176 l 1,64,-1
EndSplineSet
EndChar

StartChar: behance-square
Encoding: 61759 61759 67
Width: 512
Flags: W
LayerCount: 2
Fore
SplineSet
16 340 m 1,0,-1
 155 340 l 2,1,2
 187 340 187 340 208 332.5 c 128,-1,3
 229 325 229 325 237 311.5 c 128,-1,4
 245 298 245 298 247.5 288.5 c 128,-1,5
 250 279 250 279 250 266 c 0,6,7
 250 224 250 224 210 205 c 1,8,9
 221 202 221 202 232 195 c 128,-1,10
 243 188 243 188 253.5 171 c 128,-1,11
 264 154 264 154 264 130 c 0,12,13
 264 107 264 107 254 89.5 c 128,-1,14
 244 72 244 72 231 63.5 c 128,-1,15
 218 55 218 55 201 50.5 c 128,-1,16
 184 46 184 46 175 45 c 128,-1,17
 166 44 166 44 159 44 c 2,18,-1
 16 44 l 1,19,-1
 16 340 l 1,0,-1
342 312 m 1,20,-1
 452 312 l 1,21,-1
 452 286 l 1,22,-1
 342 286 l 1,23,-1
 342 312 l 1,20,-1
81 290 m 1,24,-1
 81 220 l 1,25,-1
 147 220 l 2,26,27
 186 220 186 220 186 256 c 0,28,29
 186 290 186 290 142 290 c 2,30,-1
 81 290 l 1,24,-1
400 261 m 0,31,32
 452 261 452 261 475 226 c 128,-1,33
 498 191 498 191 496 144 c 1,34,-1
 354 144 l 1,35,36
 354 94 354 94 402 94 c 0,37,38
 419 94 419 94 430.5 103 c 128,-1,39
 442 112 442 112 444 120 c 1,40,-1
 492 120 l 1,41,42
 471 53 471 53 400 53 c 0,43,44
 387 53 387 53 373 56.5 c 128,-1,45
 359 60 359 60 341 69.5 c 128,-1,46
 323 79 323 79 311 101.5 c 128,-1,47
 299 124 299 124 299 157 c 0,48,49
 299 177 299 177 306 198.5 c 128,-1,50
 313 220 313 220 337.5 240.5 c 128,-1,51
 362 261 362 261 400 261 c 0,31,32
398 220 m 0,52,53
 386 220 386 220 377 216 c 0,54,55
 368 211 368 211 363 205 c 128,-1,56
 358 199 358 199 356 191 c 0,57,58
 354 184 354 184 354 178 c 1,59,-1
 442 178 l 1,60,61
 440 198 440 198 429 210 c 0,62,63
 419 220 419 220 398 220 c 0,52,53
81 176 m 1,64,-1
 81 94 l 1,65,-1
 150 94 l 2,66,67
 198 94 198 94 198 134 c 0,68,69
 198 176 198 176 152 176 c 2,70,-1
 81 176 l 1,64,-1
EndSplineSet
EndChar

StartChar: bell
Encoding: 61760 61760 68
Width: 512
Flags: W
LayerCount: 2
Fore
SplineSet
240 400 m 128,-1,1
 253 400 253 400 262.5 390.5 c 128,-1,2
 272 381 272 381 272 368 c 2,3,4
 272 368 272 368 272 364 c 0,5,6
 314 353 314 353 341 317 c 128,-1,7
 368 281 368 281 368 236 c 2,8,-1
 368 96 l 2,9,10
 368 80 368 80 384 80 c 2,11,-1
 400 80 l 1,12,-1
 400 48 l 1,13,-1
 285 48 l 1,14,15
 288 40 288 40 288 32 c 0,16,17
 288 12 288 12 274 -2 c 128,-1,18
 260 -16 260 -16 240 -16 c 128,-1,19
 220 -16 220 -16 206 -2 c 128,-1,20
 192 12 192 12 192 32 c 0,21,22
 192 40 192 40 195 48 c 1,23,-1
 80 48 l 1,24,-1
 80 80 l 1,25,-1
 96 80 l 2,26,27
 112 80 112 80 112 96 c 2,28,-1
 112 240 l 2,29,30
 112 284 112 284 139.5 318.5 c 128,-1,31
 167 353 167 353 208 364 c 0,32,33
 208 368 208 368 208 368 c 2,34,35
 208 381 208 381 217.5 390.5 c 128,-1,0
 227 400 227 400 240 400 c 128,-1,1
233 336 m 2,36,37
 195 333 195 333 169.5 305.5 c 128,-1,38
 144 278 144 278 144 240 c 2,39,-1
 144 96 l 2,40,41
 144 88 144 88 141 80 c 1,42,-1
 339 80 l 1,43,44
 336 88 336 88 336 96 c 2,45,-1
 336 236 l 2,46,47
 336 276 336 276 309 305.5 c 128,-1,48
 282 335 282 335 243 336 c 2,49,-1
 240 336 l 1,50,-1
 236 336 l 1,51,-1
 233 336 l 2,36,37
240 48 m 128,-1,53
 224 48 224 48 224 32 c 128,-1,54
 224 16 224 16 240 16 c 128,-1,55
 256 16 256 16 256 32 c 128,-1,52
 256 48 256 48 240 48 c 128,-1,53
EndSplineSet
EndChar

StartChar: bell-o
Encoding: 61761 61761 69
Width: 512
Flags: W
LayerCount: 2
Fore
SplineSet
240 400 m 128,-1,1
 253 400 253 400 262.5 390.5 c 128,-1,2
 272 381 272 381 272 368 c 2,3,4
 272 368 272 368 272 364 c 0,5,6
 314 353 314 353 341 317 c 128,-1,7
 368 281 368 281 368 236 c 2,8,-1
 368 96 l 2,9,10
 368 80 368 80 384 80 c 2,11,-1
 400 80 l 1,12,-1
 400 48 l 1,13,-1
 285 48 l 1,14,15
 288 40 288 40 288 32 c 0,16,17
 288 12 288 12 274 -2 c 128,-1,18
 260 -16 260 -16 240 -16 c 128,-1,19
 220 -16 220 -16 206 -2 c 128,-1,20
 192 12 192 12 192 32 c 0,21,22
 192 40 192 40 195 48 c 1,23,-1
 80 48 l 1,24,-1
 80 80 l 1,25,-1
 96 80 l 2,26,27
 112 80 112 80 112 96 c 2,28,-1
 112 240 l 2,29,30
 112 284 112 284 139.5 318.5 c 128,-1,31
 167 353 167 353 208 364 c 0,32,33
 208 368 208 368 208 368 c 2,34,35
 208 381 208 381 217.5 390.5 c 128,-1,0
 227 400 227 400 240 400 c 128,-1,1
233 336 m 2,36,37
 195 333 195 333 169.5 305.5 c 128,-1,38
 144 278 144 278 144 240 c 2,39,-1
 144 96 l 2,40,41
 144 88 144 88 141 80 c 1,42,-1
 339 80 l 1,43,44
 336 88 336 88 336 96 c 2,45,-1
 336 236 l 2,46,47
 336 276 336 276 309 305.5 c 128,-1,48
 282 335 282 335 243 336 c 2,49,-1
 240 336 l 1,50,-1
 236 336 l 1,51,-1
 233 336 l 2,36,37
240 48 m 128,-1,53
 224 48 224 48 224 32 c 128,-1,54
 224 16 224 16 240 16 c 128,-1,55
 256 16 256 16 256 32 c 128,-1,52
 256 48 256 48 240 48 c 128,-1,53
EndSplineSet
EndChar

StartChar: bell-slash
Encoding: 61762 61762 70
Width: 512
Flags: W
LayerCount: 2
Fore
SplineSet
60 412 m 1,0,-1
 154 317 l 1,1,2
 161 326 161 326 167 332 c 0,3,4
 191 356 191 356 224 364 c 0,5,6
 224 368 224 368 224 368 c 2,7,8
 224 381 224 381 233.5 390.5 c 128,-1,9
 243 400 243 400 256 400 c 128,-1,10
 269 400 269 400 278.5 390.5 c 128,-1,11
 288 381 288 381 288 368 c 0,12,13
 288 367 288 367 288 364 c 0,14,15
 329 352 329 352 356.5 316.5 c 128,-1,16
 384 281 384 281 384 236 c 2,17,-1
 384 96 l 2,18,19
 384 89 384 89 388.5 84.5 c 128,-1,20
 393 80 393 80 400 80 c 2,21,-1
 416 80 l 1,22,-1
 416 55 l 1,23,-1
 476 -4 l 1,24,-1
 452 -28 l 1,25,-1
 36 388 l 1,26,-1
 60 412 l 1,0,-1
249 336 m 0,27,28
 214 334 214 334 189 309 c 0,29,30
 184 304 184 304 177 294 c 1,31,-1
 352 119 l 1,32,-1
 352 236 l 2,33,34
 352 276 352 276 324.5 305.5 c 128,-1,35
 297 335 297 335 259 336 c 0,36,37
 252 336 252 336 249 336 c 0,27,28
128 252 m 2,38,-1
 160 221 l 1,39,-1
 160 96 l 2,40,41
 160 88 160 88 157 80 c 1,42,-1
 301 80 l 1,43,-1
 333 48 l 1,44,-1
 301 48 l 1,45,46
 304 40 304 40 304 32 c 0,47,48
 304 12 304 12 290 -2 c 128,-1,49
 276 -16 276 -16 256 -16 c 128,-1,50
 236 -16 236 -16 222 -2 c 128,-1,51
 208 12 208 12 208 32 c 0,52,53
 208 40 208 40 211 48 c 1,54,-1
 96 48 l 1,55,-1
 96 80 l 1,56,-1
 112 80 l 2,57,58
 119 80 119 80 123.5 84.5 c 128,-1,59
 128 89 128 89 128 96 c 2,60,-1
 128 240 l 2,61,62
 128 247 128 247 128 252 c 2,38,-1
256 48 m 128,-1,64
 240 48 240 48 240 32 c 128,-1,65
 240 16 240 16 256 16 c 128,-1,66
 272 16 272 16 272 32 c 128,-1,63
 272 48 272 48 256 48 c 128,-1,64
EndSplineSet
EndChar

StartChar: bell-slash-o
Encoding: 61763 61763 71
Width: 512
Flags: W
LayerCount: 2
Fore
SplineSet
60 412 m 1,0,-1
 154 317 l 1,1,2
 161 326 161 326 167 332 c 0,3,4
 191 356 191 356 224 364 c 0,5,6
 224 368 224 368 224 368 c 2,7,8
 224 381 224 381 233.5 390.5 c 128,-1,9
 243 400 243 400 256 400 c 128,-1,10
 269 400 269 400 278.5 390.5 c 128,-1,11
 288 381 288 381 288 368 c 0,12,13
 288 367 288 367 288 364 c 0,14,15
 329 352 329 352 356.5 316.5 c 128,-1,16
 384 281 384 281 384 236 c 2,17,-1
 384 96 l 2,18,19
 384 89 384 89 388.5 84.5 c 128,-1,20
 393 80 393 80 400 80 c 2,21,-1
 416 80 l 1,22,-1
 416 55 l 1,23,-1
 476 -4 l 1,24,-1
 452 -28 l 1,25,-1
 36 388 l 1,26,-1
 60 412 l 1,0,-1
249 336 m 0,27,28
 214 334 214 334 189 309 c 0,29,30
 184 304 184 304 177 294 c 1,31,-1
 352 119 l 1,32,-1
 352 236 l 2,33,34
 352 276 352 276 324.5 305.5 c 128,-1,35
 297 335 297 335 259 336 c 0,36,37
 252 336 252 336 249 336 c 0,27,28
128 252 m 2,38,-1
 160 221 l 1,39,-1
 160 96 l 2,40,41
 160 88 160 88 157 80 c 1,42,-1
 301 80 l 1,43,-1
 333 48 l 1,44,-1
 301 48 l 1,45,46
 304 40 304 40 304 32 c 0,47,48
 304 12 304 12 290 -2 c 128,-1,49
 276 -16 276 -16 256 -16 c 128,-1,50
 236 -16 236 -16 222 -2 c 128,-1,51
 208 12 208 12 208 32 c 0,52,53
 208 40 208 40 211 48 c 1,54,-1
 96 48 l 1,55,-1
 96 80 l 1,56,-1
 112 80 l 2,57,58
 119 80 119 80 123.5 84.5 c 128,-1,59
 128 89 128 89 128 96 c 2,60,-1
 128 240 l 2,61,62
 128 247 128 247 128 252 c 2,38,-1
256 48 m 128,-1,64
 240 48 240 48 240 32 c 128,-1,65
 240 16 240 16 256 16 c 128,-1,66
 272 16 272 16 272 32 c 128,-1,63
 272 48 272 48 256 48 c 128,-1,64
EndSplineSet
EndChar

StartChar: bicycle
Encoding: 61764 61764 72
Width: 512
Flags: W
LayerCount: 2
Fore
SplineSet
304 352 m 1,0,-1
 320 352 l 1,1,-1
 392 352 l 2,2,3
 408 352 408 352 420 340 c 128,-1,4
 432 328 432 328 432 312 c 128,-1,5
 432 296 432 296 420 284 c 128,-1,6
 408 272 408 272 392 272 c 1,7,-1
 392 304 l 1,8,9
 400 304 400 304 400 312 c 128,-1,10
 400 320 400 320 392 320 c 2,11,-1
 342 320 l 1,12,-1
 386 222 l 1,13,14
 397 224 397 224 408 224 c 0,15,16
 451 224 451 224 481.5 193.5 c 128,-1,17
 512 163 512 163 512 120 c 128,-1,18
 512 77 512 77 481.5 46.5 c 128,-1,19
 451 16 451 16 408 16 c 128,-1,20
 365 16 365 16 334.5 46.5 c 128,-1,21
 304 77 304 77 304 120 c 0,22,23
 304 180 304 180 356 210 c 1,24,-1
 346 234 l 1,25,-1
 268 119 l 1,26,-1
 262 112 l 1,27,-1
 254 112 l 1,28,-1
 208 112 l 1,29,30
 204 72 204 72 174.5 44 c 128,-1,31
 145 16 145 16 104 16 c 0,32,33
 61 16 61 16 30.5 46.5 c 128,-1,34
 0 77 0 77 0 120 c 128,-1,35
 0 163 0 163 30.5 193.5 c 128,-1,36
 61 224 61 224 104 224 c 0,37,38
 120 224 120 224 134 220 c 1,39,-1
 178 281 l 1,40,-1
 183 288 l 1,41,-1
 191 288 l 1,42,-1
 322 288 l 1,43,-1
 306 326 l 1,44,-1
 304 329 l 1,45,-1
 304 332 l 1,46,-1
 304 336 l 1,47,-1
 304 352 l 1,0,-1
128 336 m 1,48,-1
 208 336 l 1,49,-1
 224 304 l 1,50,-1
 128 304 l 1,51,-1
 128 336 l 1,48,-1
216 256 m 1,52,-1
 258 161 l 1,53,-1
 322 256 l 1,54,-1
 216 256 l 1,52,-1
188 240 m 1,55,-1
 164 206 l 1,56,57
 188 188 188 188 200 160 c 1,58,-1
 164 160 l 1,59,60
 143 192 143 192 104 192 c 0,61,62
 74 192 74 192 53 171 c 128,-1,63
 32 150 32 150 32 120 c 128,-1,64
 32 90 32 90 53 69 c 128,-1,65
 74 48 74 48 104 48 c 0,66,67
 132 48 132 48 152 66.5 c 128,-1,68
 172 85 172 85 175 112 c 1,69,-1
 96 112 l 1,70,-1
 96 144 l 1,71,-1
 230 144 l 1,72,-1
 188 240 l 1,55,-1
408 192 m 0,73,74
 407 192 407 192 399 191 c 1,75,-1
 430 118 l 1,76,-1
 402 106 l 1,77,-1
 369 180 l 1,78,79
 336 158 336 158 336 120 c 0,80,81
 336 90 336 90 357 69 c 128,-1,82
 378 48 378 48 408 48 c 128,-1,83
 438 48 438 48 459 69 c 128,-1,84
 480 90 480 90 480 120 c 128,-1,85
 480 150 480 150 459 171 c 128,-1,86
 438 192 438 192 408 192 c 0,73,74
EndSplineSet
EndChar

StartChar: binoculars
Encoding: 61765 61765 73
Width: 512
Flags: W
LayerCount: 2
Fore
SplineSet
176 368 m 0,0,1
 198 368 198 368 214.5 354.5 c 128,-1,2
 231 341 231 341 237 320 c 1,3,-1
 275 320 l 1,4,5
 281 341 281 341 297.5 354.5 c 128,-1,6
 314 368 314 368 336 368 c 0,7,8
 359 368 359 368 376.5 353 c 128,-1,9
 394 338 394 338 398 315 c 1,10,11
 448 302 448 302 466 259 c 1,12,-1
 466 258 l 1,13,-1
 503 156 l 2,14,15
 512 135 512 135 512 112 c 0,16,17
 512 66 512 66 479 33 c 128,-1,18
 446 0 446 0 400 0 c 0,19,20
 359 0 359 0 327.5 27 c 128,-1,21
 296 54 296 54 290 94 c 1,22,23
 275 80 275 80 256 80 c 128,-1,24
 237 80 237 80 222 94 c 1,25,26
 216 54 216 54 184.5 27 c 128,-1,27
 153 0 153 0 112 0 c 0,28,29
 66 0 66 0 33 33 c 128,-1,30
 0 66 0 66 0 112 c 0,31,32
 0 138 0 138 12 161 c 2,33,-1
 46 256 l 2,34,35
 63 302 63 302 114 315 c 1,36,37
 118 338 118 338 135.5 353 c 128,-1,38
 153 368 153 368 176 368 c 0,0,1
176 336 m 128,-1,40
 162 336 162 336 153 327 c 128,-1,41
 144 318 144 318 144 304 c 2,42,-1
 144 290 l 1,43,-1
 130 288 l 2,44,45
 90 284 90 284 76 246 c 2,46,-1
 64 213 l 1,47,48
 87 224 87 224 112 224 c 0,49,50
 147 224 147 224 175 204.5 c 128,-1,51
 203 185 203 185 216 154 c 1,52,53
 230 176 230 176 256 176 c 128,-1,54
 282 176 282 176 296 154 c 1,55,56
 309 185 309 185 337 204.5 c 128,-1,57
 365 224 365 224 400 224 c 0,58,59
 425 224 425 224 448 212 c 1,60,-1
 436 246 l 2,61,62
 436 247 436 247 436 247 c 129,-1,63
 436 247 436 247 436 248 c 0,64,65
 429 264 429 264 414.5 275 c 128,-1,66
 400 286 400 286 382 288 c 2,67,-1
 368 290 l 1,68,-1
 368 304 l 2,69,70
 368 318 368 318 359 327 c 128,-1,71
 350 336 350 336 336 336 c 128,-1,72
 322 336 322 336 313 327 c 128,-1,73
 304 318 304 318 304 304 c 2,74,-1
 304 288 l 1,75,-1
 288 288 l 1,76,-1
 224 288 l 1,77,-1
 208 288 l 1,78,-1
 208 304 l 2,79,80
 208 318 208 318 199 327 c 128,-1,39
 190 336 190 336 176 336 c 128,-1,40
112 192 m 0,81,82
 88 192 88 192 68.5 179 c 128,-1,83
 49 166 49 166 40 146 c 0,84,85
 39 145 39 145 39 144 c 0,86,87
 32 127 32 127 32 112 c 0,88,89
 32 79 32 79 55.5 55.5 c 128,-1,90
 79 32 79 32 112 32 c 128,-1,91
 145 32 145 32 168.5 55.5 c 128,-1,92
 192 79 192 79 192 112 c 128,-1,93
 192 145 192 145 168.5 168.5 c 128,-1,94
 145 192 145 192 112 192 c 0,81,82
400 192 m 128,-1,96
 367 192 367 192 343.5 168.5 c 128,-1,97
 320 145 320 145 320 112 c 128,-1,98
 320 79 320 79 343.5 55.5 c 128,-1,99
 367 32 367 32 400 32 c 128,-1,100
 433 32 433 32 456.5 55.5 c 128,-1,101
 480 79 480 79 480 112 c 128,-1,102
 480 145 480 145 456.5 168.5 c 128,-1,95
 433 192 433 192 400 192 c 128,-1,96
256 144 m 128,-1,104
 240 144 240 144 240 128 c 128,-1,105
 240 112 240 112 256 112 c 128,-1,106
 272 112 272 112 272 128 c 128,-1,103
 272 144 272 144 256 144 c 128,-1,104
EndSplineSet
EndChar

StartChar: birthday-cake
Encoding: 61766 61766 74
Width: 512
Flags: W
LayerCount: 2
Fore
SplineSet
256 428 m 1,0,-1
 269 409 l 2,1,2
 278 397 278 397 286 382 c 0,3,4
 293 371 293 371 298 360 c 0,5,6
 304 345 304 345 304 336 c 0,7,8
 304 316 304 316 290 302 c 128,-1,9
 276 288 276 288 256 288 c 128,-1,10
 236 288 236 288 222 302 c 128,-1,11
 208 316 208 316 208 336 c 0,12,13
 208 345 208 345 214 360 c 0,14,15
 219 371 219 371 226 382 c 2,16,-1
 243 409 l 1,17,-1
 256 428 l 1,0,-1
256 288 m 1,18,-1
 288 288 l 1,19,-1
 304 288 l 1,20,-1
 304 272 l 1,21,-1
 304 224 l 1,22,-1
 400 224 l 2,23,24
 427 224 427 224 445.5 205.5 c 128,-1,25
 464 187 464 187 464 160 c 0,26,27
 464 136 464 136 448 118 c 1,28,-1
 448 16 l 1,29,-1
 448 0 l 1,30,-1
 432 0 l 1,31,-1
 80 0 l 1,32,-1
 64 0 l 1,33,-1
 64 16 l 1,34,-1
 64 118 l 1,35,36
 48 136 48 136 48 160 c 0,37,38
 48 187 48 187 66.5 205.5 c 128,-1,39
 85 224 85 224 112 224 c 2,40,-1
 208 224 l 1,41,-1
 208 272 l 1,42,-1
 208 288 l 1,43,-1
 224 288 l 1,44,-1
 256 288 l 1,18,-1
256 370 m 1,45,46
 255 369 255 369 254.5 368 c 128,-1,47
 254 367 254 367 254 366 c 0,48,49
 246 353 246 353 244 347 c 0,50,51
 242 344 242 344 241.5 341.5 c 128,-1,52
 241 339 241 339 240.5 337.5 c 128,-1,53
 240 336 240 336 240 336 c 2,54,55
 240 329 240 329 244.5 324.5 c 128,-1,56
 249 320 249 320 256 320 c 128,-1,57
 263 320 263 320 267.5 324.5 c 128,-1,58
 272 329 272 329 272 336 c 2,59,60
 272 336 272 336 271.5 337.5 c 128,-1,61
 271 339 271 339 270.5 341.5 c 128,-1,62
 270 344 270 344 268 347 c 0,63,64
 266 353 266 353 258 366 c 0,65,66
 258 367 258 367 257.5 368 c 128,-1,67
 257 369 257 369 256 370 c 1,45,46
240 256 m 1,68,-1
 240 224 l 1,69,-1
 272 224 l 1,70,-1
 272 256 l 1,71,-1
 240 256 l 1,68,-1
112 192 m 2,72,73
 98 192 98 192 89 183 c 128,-1,74
 80 174 80 174 80 160 c 128,-1,75
 80 146 80 146 89 137 c 128,-1,76
 98 128 98 128 112 128 c 128,-1,77
 126 128 126 128 135 137 c 128,-1,78
 144 146 144 146 144 160 c 1,79,-1
 176 160 l 1,80,81
 176 146 176 146 185 137 c 128,-1,82
 194 128 194 128 208 128 c 128,-1,83
 222 128 222 128 231 137 c 128,-1,84
 240 146 240 146 240 160 c 1,85,-1
 272 160 l 1,86,87
 272 146 272 146 281 137 c 128,-1,88
 290 128 290 128 304 128 c 128,-1,89
 318 128 318 128 327 137 c 128,-1,90
 336 146 336 146 336 160 c 1,91,-1
 368 160 l 1,92,93
 368 146 368 146 377 137 c 128,-1,94
 386 128 386 128 400 128 c 128,-1,95
 414 128 414 128 423 137 c 128,-1,96
 432 146 432 146 432 160 c 128,-1,97
 432 174 432 174 423 183 c 128,-1,98
 414 192 414 192 400 192 c 2,99,-1
 112 192 l 2,72,73
160 118 m 1,100,101
 141 96 141 96 112 96 c 0,102,103
 106 96 106 96 96 98 c 1,104,-1
 96 32 l 1,105,-1
 416 32 l 1,106,-1
 416 98 l 1,107,108
 406 96 406 96 400 96 c 0,109,110
 371 96 371 96 352 118 c 1,111,112
 333 96 333 96 304 96 c 128,-1,113
 275 96 275 96 256 118 c 1,114,115
 237 96 237 96 208 96 c 128,-1,116
 179 96 179 96 160 118 c 1,100,101
EndSplineSet
EndChar

StartChar: bitbucket
Encoding: 61767 61767 75
Width: 512
Flags: W
LayerCount: 2
Fore
SplineSet
240 368 m 128,-1,1
 296 368 296 368 342 356 c 0,2,3
 367 349 367 349 380 342 c 0,4,5
 400 329 400 329 400 312 c 0,6,7
 400 307 400 307 398 302 c 0,8,9
 398 301 398 301 394.5 284.5 c 128,-1,10
 391 268 391 268 386 242 c 128,-1,11
 381 216 381 216 376 191 c 0,12,13
 374 180 374 180 368.5 150 c 128,-1,14
 363 120 363 120 360 107 c 0,15,16
 354 76 354 76 352 62 c 0,17,18
 350 49 350 49 337 39 c 0,19,20
 328 32 328 32 312 26 c 0,21,22
 281 16 281 16 240 16 c 0,23,24
 198 16 198 16 168 26 c 0,25,26
 153 32 153 32 144 39 c 0,27,28
 131 48 131 48 128 61 c 0,29,30
 127 68 127 68 119.5 106 c 128,-1,31
 112 144 112 144 104.5 184 c 128,-1,32
 97 224 97 224 89.5 262.5 c 128,-1,33
 82 301 82 301 82 302 c 0,34,35
 80 307 80 307 80 312 c 0,36,37
 80 329 80 329 100 342 c 0,38,39
 113 349 113 349 138 356 c 0,40,0
 184 368 184 368 240 368 c 128,-1,1
240 336 m 128,-1,42
 187 336 187 336 146 325 c 0,43,44
 127 320 127 320 117 314 c 0,45,46
 116 314 116 314 114 312 c 1,47,48
 116 310 116 310 117 310 c 0,49,50
 127 304 127 304 146 299 c 0,51,52
 187 288 187 288 240 288 c 128,-1,53
 293 288 293 288 334 299 c 0,54,55
 353 304 353 304 363 310 c 0,56,57
 364 310 364 310 366 312 c 1,58,59
 364 314 364 314 363 314 c 0,60,61
 353 320 353 320 334 325 c 0,62,41
 293 336 293 336 240 336 c 128,-1,42
120 274 m 1,63,64
 122 263 122 263 130 219.5 c 128,-1,65
 138 176 138 176 144 144 c 0,66,67
 145 144 145 144 147 141 c 0,68,69
 152 135 152 135 160 130 c 0,70,71
 188 112 188 112 240 112 c 256,72,73
 292 112 292 112 320 130 c 0,74,75
 327 135 327 135 333 142 c 0,76,77
 334 143 334 143 335 143 c 2,78,-1
 335 144 l 2,79,80
 336 148 336 148 339.5 167 c 128,-1,81
 343 186 343 186 345 198 c 0,82,83
 345 199 345 199 360 274 c 1,84,85
 352 271 352 271 342 268 c 0,86,87
 296 256 296 256 240 256 c 128,-1,88
 184 256 184 256 138 268 c 0,89,90
 128 271 128 271 120 274 c 1,63,64
240 240 m 128,-1,92
 260 240 260 240 274 226 c 128,-1,93
 288 212 288 212 288 192 c 128,-1,94
 288 172 288 172 274 158 c 128,-1,95
 260 144 260 144 240 144 c 128,-1,96
 220 144 220 144 206 158 c 128,-1,97
 192 172 192 172 192 192 c 128,-1,98
 192 212 192 212 206 226 c 128,-1,91
 220 240 220 240 240 240 c 128,-1,92
240 208 m 128,-1,100
 224 208 224 208 224 192 c 128,-1,101
 224 176 224 176 240 176 c 128,-1,102
 256 176 256 176 256 192 c 128,-1,99
 256 208 256 208 240 208 c 128,-1,100
154 98 m 1,103,104
 157 79 157 79 160 67 c 1,105,106
 160 67 160 67 162 64 c 0,107,108
 169 60 169 60 178 56 c 0,109,110
 203 48 203 48 240 48 c 256,111,112
 277 48 277 48 302 56 c 0,113,114
 311 60 311 60 318 64 c 0,115,116
 320 66 320 66 320 66 c 2,117,118
 320 68 320 68 326 97 c 1,119,120
 292 80 292 80 240 80 c 0,121,122
 189 80 189 80 154 98 c 1,103,104
EndSplineSet
EndChar

StartChar: bitbucket-square
Encoding: 61768 61768 76
Width: 512
Flags: W
LayerCount: 2
Fore
SplineSet
240 368 m 128,-1,1
 296 368 296 368 342 356 c 0,2,3
 367 349 367 349 380 342 c 0,4,5
 400 329 400 329 400 312 c 0,6,7
 400 307 400 307 398 302 c 0,8,9
 398 301 398 301 394.5 284.5 c 128,-1,10
 391 268 391 268 386 242 c 128,-1,11
 381 216 381 216 376 191 c 0,12,13
 374 180 374 180 368.5 150 c 128,-1,14
 363 120 363 120 360 107 c 0,15,16
 354 76 354 76 352 62 c 0,17,18
 350 49 350 49 337 39 c 0,19,20
 328 32 328 32 312 26 c 0,21,22
 281 16 281 16 240 16 c 0,23,24
 198 16 198 16 168 26 c 0,25,26
 153 32 153 32 144 39 c 0,27,28
 131 48 131 48 128 61 c 0,29,30
 127 68 127 68 119.5 106 c 128,-1,31
 112 144 112 144 104.5 184 c 128,-1,32
 97 224 97 224 89.5 262.5 c 128,-1,33
 82 301 82 301 82 302 c 0,34,35
 80 307 80 307 80 312 c 0,36,37
 80 329 80 329 100 342 c 0,38,39
 113 349 113 349 138 356 c 0,40,0
 184 368 184 368 240 368 c 128,-1,1
240 336 m 128,-1,42
 187 336 187 336 146 325 c 0,43,44
 127 320 127 320 117 314 c 0,45,46
 116 314 116 314 114 312 c 1,47,48
 116 310 116 310 117 310 c 0,49,50
 127 304 127 304 146 299 c 0,51,52
 187 288 187 288 240 288 c 128,-1,53
 293 288 293 288 334 299 c 0,54,55
 353 304 353 304 363 310 c 0,56,57
 364 310 364 310 366 312 c 1,58,59
 364 314 364 314 363 314 c 0,60,61
 353 320 353 320 334 325 c 0,62,41
 293 336 293 336 240 336 c 128,-1,42
120 274 m 1,63,64
 122 263 122 263 130 219.5 c 128,-1,65
 138 176 138 176 144 144 c 0,66,67
 145 144 145 144 147 141 c 0,68,69
 152 135 152 135 160 130 c 0,70,71
 188 112 188 112 240 112 c 256,72,73
 292 112 292 112 320 130 c 0,74,75
 327 135 327 135 333 142 c 0,76,77
 334 143 334 143 335 143 c 2,78,-1
 335 144 l 2,79,80
 336 148 336 148 339.5 167 c 128,-1,81
 343 186 343 186 345 198 c 0,82,83
 345 199 345 199 360 274 c 1,84,85
 352 271 352 271 342 268 c 0,86,87
 296 256 296 256 240 256 c 128,-1,88
 184 256 184 256 138 268 c 0,89,90
 128 271 128 271 120 274 c 1,63,64
240 240 m 128,-1,92
 260 240 260 240 274 226 c 128,-1,93
 288 212 288 212 288 192 c 128,-1,94
 288 172 288 172 274 158 c 128,-1,95
 260 144 260 144 240 144 c 128,-1,96
 220 144 220 144 206 158 c 128,-1,97
 192 172 192 172 192 192 c 128,-1,98
 192 212 192 212 206 226 c 128,-1,91
 220 240 220 240 240 240 c 128,-1,92
240 208 m 128,-1,100
 224 208 224 208 224 192 c 128,-1,101
 224 176 224 176 240 176 c 128,-1,102
 256 176 256 176 256 192 c 128,-1,99
 256 208 256 208 240 208 c 128,-1,100
154 98 m 1,103,104
 157 79 157 79 160 67 c 1,105,106
 160 67 160 67 162 64 c 0,107,108
 169 60 169 60 178 56 c 0,109,110
 203 48 203 48 240 48 c 256,111,112
 277 48 277 48 302 56 c 0,113,114
 311 60 311 60 318 64 c 0,115,116
 320 66 320 66 320 66 c 2,117,118
 320 68 320 68 326 97 c 1,119,120
 292 80 292 80 240 80 c 0,121,122
 189 80 189 80 154 98 c 1,103,104
EndSplineSet
EndChar

StartChar: bitcoin
Encoding: 61769 61769 77
Width: 512
Flags: W
LayerCount: 2
Fore
SplineSet
192 400 m 1,0,-1
 224 400 l 1,1,-1
 224 352 l 1,2,-1
 256 352 l 1,3,-1
 256 400 l 1,4,-1
 288 400 l 1,5,-1
 288 352 l 1,6,-1
 296 352 l 2,7,8
 332 352 332 352 358 326 c 128,-1,9
 384 300 384 300 384 264 c 0,10,11
 384 224 384 224 354 198 c 1,12,13
 375 186 375 186 387.5 165.5 c 128,-1,14
 400 145 400 145 400 120 c 0,15,16
 400 84 400 84 374 58 c 128,-1,17
 348 32 348 32 312 32 c 2,18,-1
 288 32 l 1,19,-1
 288 -16 l 1,20,-1
 256 -16 l 1,21,-1
 256 32 l 1,22,-1
 224 32 l 1,23,-1
 224 -16 l 1,24,-1
 192 -16 l 1,25,-1
 192 32 l 1,26,-1
 144 32 l 1,27,-1
 128 32 l 1,28,-1
 128 48 l 1,29,-1
 128 176 l 1,30,-1
 128 192 l 1,31,-1
 128 336 l 1,32,-1
 128 352 l 1,33,-1
 144 352 l 1,34,-1
 192 352 l 1,35,-1
 192 400 l 1,0,-1
160 320 m 1,36,-1
 160 208 l 1,37,-1
 296 208 l 2,38,39
 319 208 319 208 335.5 224.5 c 128,-1,40
 352 241 352 241 352 264 c 128,-1,41
 352 287 352 287 335.5 303.5 c 128,-1,42
 319 320 319 320 296 320 c 2,43,-1
 160 320 l 1,36,-1
160 176 m 1,44,-1
 160 64 l 1,45,-1
 312 64 l 2,46,47
 335 64 335 64 351.5 80.5 c 128,-1,48
 368 97 368 97 368 120 c 128,-1,49
 368 143 368 143 351.5 159.5 c 128,-1,50
 335 176 335 176 312 176 c 2,51,-1
 296 176 l 1,52,-1
 160 176 l 1,44,-1
EndSplineSet
EndChar

StartChar: black-tie
Encoding: 61770 61770 78
Width: 512
Flags: W
LayerCount: 2
Fore
SplineSet
80 368 m 1,0,-1
 96 368 l 1,1,-1
 416 368 l 1,2,-1
 432 368 l 1,3,-1
 432 352 l 1,4,-1
 432 32 l 1,5,-1
 432 16 l 1,6,-1
 416 16 l 1,7,-1
 96 16 l 1,8,-1
 80 16 l 1,9,-1
 80 32 l 1,10,-1
 80 352 l 1,11,-1
 80 368 l 1,0,-1
112 336 m 1,12,-1
 112 48 l 1,13,-1
 400 48 l 1,14,-1
 400 336 l 1,15,-1
 112 336 l 1,12,-1
192 304 m 1,16,-1
 320 304 l 1,17,-1
 275 246 l 1,18,-1
 320 122 l 1,19,-1
 256 64 l 1,20,-1
 192 122 l 1,21,-1
 237 246 l 1,22,-1
 192 304 l 1,16,-1
EndSplineSet
EndChar

StartChar: bold
Encoding: 61771 61771 79
Width: 512
Flags: W
LayerCount: 2
Fore
SplineSet
256 336 m 2,0,-1
 112 336 l 1,1,-1
 112 48 l 1,2,-1
 288 48 l 2,3,4
 322 48 322 48 345 71 c 128,-1,5
 368 94 368 94 368 128 c 0,6,7
 368 154 368 154 353.5 174.5 c 128,-1,8
 339 195 339 195 315 203 c 1,9,10
 336 227 336 227 336 256 c 0,11,12
 336 290 336 290 313 313 c 128,-1,13
 290 336 290 336 256 336 c 2,0,-1
144 208 m 1,14,-1
 144 304 l 1,15,-1
 256 304 l 2,16,17
 276 304 276 304 290 290 c 128,-1,18
 304 276 304 276 304 256 c 128,-1,19
 304 236 304 236 290 222 c 128,-1,20
 276 208 276 208 256 208 c 2,21,-1
 144 208 l 1,14,-1
144 80 m 1,22,-1
 144 176 l 1,23,-1
 288 176 l 2,24,25
 308 176 308 176 322 162 c 128,-1,26
 336 148 336 148 336 128 c 128,-1,27
 336 108 336 108 322 94 c 128,-1,28
 308 80 308 80 288 80 c 2,29,-1
 144 80 l 1,22,-1
256 368 m 2,30,31
 303 368 303 368 335.5 335.5 c 128,-1,32
 368 303 368 303 368 256 c 0,33,34
 368 236 368 236 360 214 c 1,35,36
 400 180 400 180 400 128 c 0,37,38
 400 81 400 81 367.5 48.5 c 128,-1,39
 335 16 335 16 288 16 c 2,40,-1
 112 16 l 1,41,-1
 80 16 l 1,42,-1
 80 48 l 1,43,-1
 80 336 l 1,44,-1
 80 368 l 1,45,-1
 112 368 l 1,46,-1
 256 368 l 2,30,31
176 272 m 1,47,-1
 176 240 l 1,48,-1
 256 240 l 2,49,50
 272 240 272 240 272 256 c 128,-1,51
 272 272 272 272 256 272 c 2,52,-1
 176 272 l 1,47,-1
176 144 m 1,53,-1
 176 112 l 1,54,-1
 288 112 l 2,55,56
 304 112 304 112 304 128 c 128,-1,57
 304 144 304 144 288 144 c 2,58,-1
 176 144 l 1,53,-1
EndSplineSet
EndChar

StartChar: bolt
Encoding: 61772 61772 80
Width: 512
Flags: W
LayerCount: 2
Fore
SplineSet
302 384 m 1,0,-1
 325 362 l 1,1,-1
 228 260 l 1,2,-1
 344 190 l 1,3,-1
 362 179 l 1,4,-1
 348 164 l 1,5,-1
 215 32 l 1,6,-1
 288 32 l 1,7,-1
 288 0 l 1,8,-1
 176 0 l 1,9,-1
 160 0 l 1,10,-1
 160 16 l 1,11,-1
 160 128 l 1,12,-1
 192 128 l 1,13,-1
 192 55 l 1,14,-1
 310 173 l 1,15,-1
 195 242 l 1,16,-1
 178 252 l 1,17,-1
 192 267 l 1,18,-1
 302 384 l 1,0,-1
EndSplineSet
EndChar

StartChar: bomb
Encoding: 61773 61773 81
Width: 512
Flags: W
LayerCount: 2
Fore
SplineSet
374 418 m 1,0,-1
 379 386 l 1,1,-1
 388 324 l 1,2,-1
 450 315 l 1,3,-1
 482 310 l 1,4,-1
 460 288 l 1,5,-1
 400 228 l 1,6,-1
 394 223 l 1,7,-1
 386 224 l 1,8,-1
 382 224 l 1,9,10
 390 168 390 168 351 129 c 2,11,-1
 246 24 l 2,12,13
 210 -12 210 -12 138 -9 c 0,14,15
 123 -8 123 -8 107 -6 c 128,-1,16
 91 -4 91 -4 83 -2 c 2,17,-1
 76 0 l 1,18,-1
 67 3 l 1,19,-1
 64 12 l 2,20,21
 56 39 56 39 55 74 c 0,22,23
 52 146 52 146 88 182 c 2,24,-1
 190 285 l 1,25,-1
 193 287 l 1,26,27
 232 326 232 326 288 318 c 1,28,-1
 288 322 l 1,29,-1
 287 330 l 1,30,-1
 292 336 l 1,31,-1
 352 396 l 1,32,-1
 374 418 l 1,0,-1
352 350 m 1,33,-1
 321 319 l 1,34,-1
 324 300 l 1,35,-1
 328 272 l 1,36,-1
 302 282 l 2,37,38
 281 291 281 291 257 286.5 c 128,-1,39
 233 282 233 282 216 264 c 2,40,-1
 111 160 l 2,41,42
 85 134 85 134 87 76 c 0,43,44
 88 54 88 54 94 30 c 1,45,46
 118 24 118 24 140 23 c 0,47,48
 198 21 198 21 224 47 c 2,49,-1
 328 152 l 2,50,51
 346 169 346 169 350.5 193 c 128,-1,52
 355 217 355 217 346 238 c 2,53,-1
 336 264 l 1,54,-1
 364 260 l 1,55,-1
 383 257 l 1,56,-1
 414 288 l 1,57,-1
 372 294 l 1,58,-1
 360 296 l 1,59,-1
 358 308 l 1,60,-1
 352 350 l 1,33,-1
EndSplineSet
EndChar

StartChar: book
Encoding: 61774 61774 82
Width: 512
Flags: W
LayerCount: 2
Fore
SplineSet
160 368 m 0,0,1
 208 368 208 368 256 349 c 1,2,3
 304 368 304 368 352 368 c 0,4,5
 375 368 375 368 400.5 363 c 128,-1,6
 426 358 426 358 440 352 c 2,7,-1
 454 347 l 1,8,-1
 464 342 l 1,9,-1
 464 332 l 1,10,-1
 464 40 l 1,11,-1
 464 16 l 1,12,-1
 284 16 l 1,13,14
 274 0 274 0 256 0 c 128,-1,15
 238 0 238 0 228 16 c 1,16,-1
 48 16 l 1,17,-1
 48 40 l 1,18,-1
 48 332 l 1,19,-1
 48 342 l 1,20,-1
 58 347 l 2,21,22
 108 368 108 368 160 368 c 0,0,1
160 336 m 0,23,24
 123 336 123 336 80 320 c 1,25,-1
 80 62 l 1,26,27
 122 76 122 76 160 76 c 256,28,29
 198 76 198 76 240 62 c 1,30,-1
 240 320 l 1,31,32
 195 336 195 336 160 336 c 0,23,24
352 336 m 0,33,34
 317 336 317 336 272 320 c 1,35,-1
 272 62 l 1,36,37
 314 76 314 76 352 76 c 256,38,39
 390 76 390 76 432 62 c 1,40,-1
 432 320 l 1,41,42
 389 336 389 336 352 336 c 0,33,34
EndSplineSet
EndChar

StartChar: bookmark
Encoding: 61775 61775 83
Width: 512
Flags: W
LayerCount: 2
Fore
SplineSet
112 368 m 1,0,-1
 128 368 l 1,1,-1
 384 368 l 1,2,-1
 400 368 l 1,3,-1
 400 352 l 1,4,-1
 400 32 l 1,5,-1
 400 0 l 1,6,-1
 374 19 l 1,7,-1
 256 108 l 1,8,-1
 138 19 l 1,9,-1
 112 0 l 1,10,-1
 112 32 l 1,11,-1
 112 352 l 1,12,-1
 112 368 l 1,0,-1
144 336 m 1,13,-1
 144 64 l 1,14,-1
 246 141 l 1,15,-1
 256 148 l 1,16,-1
 266 141 l 1,17,-1
 368 64 l 1,18,-1
 368 336 l 1,19,-1
 144 336 l 1,13,-1
EndSplineSet
EndChar

StartChar: bookmark-o
Encoding: 61776 61776 84
Width: 512
Flags: W
LayerCount: 2
Fore
SplineSet
112 368 m 1,0,-1
 128 368 l 1,1,-1
 384 368 l 1,2,-1
 400 368 l 1,3,-1
 400 352 l 1,4,-1
 400 32 l 1,5,-1
 400 0 l 1,6,-1
 374 19 l 1,7,-1
 256 108 l 1,8,-1
 138 19 l 1,9,-1
 112 0 l 1,10,-1
 112 32 l 1,11,-1
 112 352 l 1,12,-1
 112 368 l 1,0,-1
144 336 m 1,13,-1
 144 64 l 1,14,-1
 246 141 l 1,15,-1
 256 148 l 1,16,-1
 266 141 l 1,17,-1
 368 64 l 1,18,-1
 368 336 l 1,19,-1
 144 336 l 1,13,-1
EndSplineSet
EndChar

StartChar: briefcase
Encoding: 61777 61777 85
Width: 512
Flags: W
LayerCount: 2
Fore
SplineSet
256 400 m 128,-1,1
 278 400 278 400 295 386.5 c 128,-1,2
 312 373 312 373 318 352 c 1,3,-1
 448 352 l 1,4,-1
 464 352 l 1,5,-1
 464 336 l 1,6,-1
 464 48 l 1,7,-1
 464 32 l 1,8,-1
 448 32 l 1,9,-1
 64 32 l 1,10,-1
 48 32 l 1,11,-1
 48 48 l 1,12,-1
 48 336 l 1,13,-1
 48 352 l 1,14,-1
 64 352 l 1,15,-1
 194 352 l 1,16,17
 200 373 200 373 217 386.5 c 128,-1,0
 234 400 234 400 256 400 c 128,-1,1
256 368 m 128,-1,19
 236 368 236 368 228 352 c 1,20,-1
 284 352 l 1,21,18
 276 368 276 368 256 368 c 128,-1,19
80 320 m 1,22,-1
 80 176 l 1,23,-1
 432 176 l 1,24,-1
 432 320 l 1,25,-1
 80 320 l 1,22,-1
256 224 m 128,-1,27
 263 224 263 224 267.5 219.5 c 128,-1,28
 272 215 272 215 272 208 c 128,-1,29
 272 201 272 201 267.5 196.5 c 128,-1,30
 263 192 263 192 256 192 c 128,-1,31
 249 192 249 192 244.5 196.5 c 128,-1,32
 240 201 240 201 240 208 c 128,-1,33
 240 215 240 215 244.5 219.5 c 128,-1,26
 249 224 249 224 256 224 c 128,-1,27
80 144 m 1,34,-1
 80 64 l 1,35,-1
 432 64 l 1,36,-1
 432 144 l 1,37,-1
 80 144 l 1,34,-1
EndSplineSet
EndChar

StartChar: btc
Encoding: 61778 61778 86
Width: 512
Flags: W
LayerCount: 2
Fore
SplineSet
192 400 m 1,0,-1
 224 400 l 1,1,-1
 224 352 l 1,2,-1
 256 352 l 1,3,-1
 256 400 l 1,4,-1
 288 400 l 1,5,-1
 288 352 l 1,6,-1
 296 352 l 2,7,8
 332 352 332 352 358 326 c 128,-1,9
 384 300 384 300 384 264 c 0,10,11
 384 224 384 224 354 198 c 1,12,13
 375 186 375 186 387.5 165.5 c 128,-1,14
 400 145 400 145 400 120 c 0,15,16
 400 84 400 84 374 58 c 128,-1,17
 348 32 348 32 312 32 c 2,18,-1
 288 32 l 1,19,-1
 288 -16 l 1,20,-1
 256 -16 l 1,21,-1
 256 32 l 1,22,-1
 224 32 l 1,23,-1
 224 -16 l 1,24,-1
 192 -16 l 1,25,-1
 192 32 l 1,26,-1
 144 32 l 1,27,-1
 128 32 l 1,28,-1
 128 48 l 1,29,-1
 128 176 l 1,30,-1
 128 192 l 1,31,-1
 128 336 l 1,32,-1
 128 352 l 1,33,-1
 144 352 l 1,34,-1
 192 352 l 1,35,-1
 192 400 l 1,0,-1
160 320 m 1,36,-1
 160 208 l 1,37,-1
 296 208 l 2,38,39
 319 208 319 208 335.5 224.5 c 128,-1,40
 352 241 352 241 352 264 c 128,-1,41
 352 287 352 287 335.5 303.5 c 128,-1,42
 319 320 319 320 296 320 c 2,43,-1
 160 320 l 1,36,-1
160 176 m 1,44,-1
 160 64 l 1,45,-1
 312 64 l 2,46,47
 335 64 335 64 351.5 80.5 c 128,-1,48
 368 97 368 97 368 120 c 128,-1,49
 368 143 368 143 351.5 159.5 c 128,-1,50
 335 176 335 176 312 176 c 2,51,-1
 296 176 l 1,52,-1
 160 176 l 1,44,-1
EndSplineSet
EndChar

StartChar: bug
Encoding: 61779 61779 87
Width: 512
Flags: W
LayerCount: 2
Fore
SplineSet
172 396 m 1,0,-1
 208 358 l 1,1,2
 231 368 231 368 256 368 c 128,-1,3
 281 368 281 368 304 358 c 1,4,-1
 340 396 l 1,5,-1
 364 372 l 1,6,-1
 332 342 l 1,7,8
 368 315 368 315 386 267 c 1,9,-1
 425 286 l 1,10,-1
 439 258 l 1,11,-1
 395 236 l 1,12,13
 400 212 400 212 400 192 c 0,14,15
 400 183 400 183 400 176 c 1,16,-1
 448 176 l 1,17,-1
 448 144 l 1,18,-1
 394 144 l 1,19,20
 388 116 388 116 378 97 c 1,21,-1
 426 61 l 1,22,-1
 406 35 l 1,23,-1
 360 70 l 1,24,25
 317 16 317 16 256 16 c 128,-1,26
 195 16 195 16 152 70 c 1,27,-1
 106 35 l 1,28,-1
 86 61 l 1,29,-1
 134 97 l 1,30,31
 124 116 124 116 118 144 c 1,32,-1
 64 144 l 1,33,-1
 64 176 l 1,34,-1
 112 176 l 1,35,36
 112 183 112 183 112 192 c 0,37,38
 112 212 112 212 117 236 c 1,39,-1
 73 258 l 1,40,-1
 87 286 l 1,41,-1
 126 267 l 1,42,43
 144 315 144 315 180 342 c 1,44,-1
 148 372 l 1,45,-1
 172 396 l 1,0,-1
256 336 m 128,-1,47
 208 336 208 336 174 290 c 1,48,49
 214 272 214 272 256 272 c 128,-1,50
 298 272 298 272 338 290 c 1,51,46
 304 336 304 336 256 336 c 128,-1,47
158 262 m 1,52,53
 144 230 144 230 144 192 c 0,54,55
 144 137 144 137 172 97 c 128,-1,56
 200 57 200 57 240 50 c 1,57,-1
 240 241 l 1,58,59
 197 244 197 244 158 262 c 1,52,53
354 262 m 1,60,61
 315 244 315 244 272 241 c 1,62,-1
 272 50 l 1,63,64
 312 57 312 57 340 97 c 128,-1,65
 368 137 368 137 368 192 c 0,66,67
 368 230 368 230 354 262 c 1,60,61
EndSplineSet
EndChar

StartChar: building
Encoding: 61780 61780 88
Width: 512
Flags: W
LayerCount: 2
Fore
SplineSet
64 400 m 1,0,-1
 80 400 l 1,1,-1
 432 400 l 1,2,-1
 448 400 l 1,3,-1
 448 384 l 1,4,-1
 448 0 l 1,5,-1
 448 -16 l 1,6,-1
 432 -16 l 1,7,-1
 288 -16 l 1,8,-1
 272 -16 l 1,9,-1
 272 0 l 1,10,-1
 272 48 l 1,11,-1
 240 48 l 1,12,-1
 240 0 l 1,13,-1
 240 -16 l 1,14,-1
 224 -16 l 1,15,-1
 80 -16 l 1,16,-1
 64 -16 l 1,17,-1
 64 0 l 1,18,-1
 64 384 l 1,19,-1
 64 400 l 1,0,-1
96 368 m 1,20,-1
 96 16 l 1,21,-1
 208 16 l 1,22,-1
 208 64 l 1,23,-1
 208 80 l 1,24,-1
 224 80 l 1,25,-1
 288 80 l 1,26,-1
 304 80 l 1,27,-1
 304 64 l 1,28,-1
 304 16 l 1,29,-1
 416 16 l 1,30,-1
 416 368 l 1,31,-1
 96 368 l 1,20,-1
128 336 m 1,32,-1
 192 336 l 1,33,-1
 192 304 l 1,34,-1
 128 304 l 1,35,-1
 128 336 l 1,32,-1
224 336 m 1,36,-1
 288 336 l 1,37,-1
 288 304 l 1,38,-1
 224 304 l 1,39,-1
 224 336 l 1,36,-1
320 336 m 1,40,-1
 384 336 l 1,41,-1
 384 304 l 1,42,-1
 320 304 l 1,43,-1
 320 336 l 1,40,-1
128 272 m 1,44,-1
 192 272 l 1,45,-1
 192 240 l 1,46,-1
 128 240 l 1,47,-1
 128 272 l 1,44,-1
224 272 m 1,48,-1
 288 272 l 1,49,-1
 288 240 l 1,50,-1
 224 240 l 1,51,-1
 224 272 l 1,48,-1
320 272 m 1,52,-1
 384 272 l 1,53,-1
 384 240 l 1,54,-1
 320 240 l 1,55,-1
 320 272 l 1,52,-1
128 208 m 1,56,-1
 192 208 l 1,57,-1
 192 176 l 1,58,-1
 128 176 l 1,59,-1
 128 208 l 1,56,-1
224 208 m 1,60,-1
 288 208 l 1,61,-1
 288 176 l 1,62,-1
 224 176 l 1,63,-1
 224 208 l 1,60,-1
320 208 m 1,64,-1
 384 208 l 1,65,-1
 384 176 l 1,66,-1
 320 176 l 1,67,-1
 320 208 l 1,64,-1
128 144 m 1,68,-1
 192 144 l 1,69,-1
 192 112 l 1,70,-1
 128 112 l 1,71,-1
 128 144 l 1,68,-1
224 144 m 1,72,-1
 288 144 l 1,73,-1
 288 112 l 1,74,-1
 224 112 l 1,75,-1
 224 144 l 1,72,-1
320 144 m 1,76,-1
 384 144 l 1,77,-1
 384 112 l 1,78,-1
 320 112 l 1,79,-1
 320 144 l 1,76,-1
128 80 m 1,80,-1
 192 80 l 1,81,-1
 192 48 l 1,82,-1
 128 48 l 1,83,-1
 128 80 l 1,80,-1
320 80 m 1,84,-1
 384 80 l 1,85,-1
 384 48 l 1,86,-1
 320 48 l 1,87,-1
 320 80 l 1,84,-1
EndSplineSet
EndChar

StartChar: building-o
Encoding: 61781 61781 89
Width: 512
Flags: W
LayerCount: 2
Fore
SplineSet
64 400 m 1,0,-1
 80 400 l 1,1,-1
 432 400 l 1,2,-1
 448 400 l 1,3,-1
 448 384 l 1,4,-1
 448 0 l 1,5,-1
 448 -16 l 1,6,-1
 432 -16 l 1,7,-1
 288 -16 l 1,8,-1
 272 -16 l 1,9,-1
 272 0 l 1,10,-1
 272 48 l 1,11,-1
 240 48 l 1,12,-1
 240 0 l 1,13,-1
 240 -16 l 1,14,-1
 224 -16 l 1,15,-1
 80 -16 l 1,16,-1
 64 -16 l 1,17,-1
 64 0 l 1,18,-1
 64 384 l 1,19,-1
 64 400 l 1,0,-1
96 368 m 1,20,-1
 96 16 l 1,21,-1
 208 16 l 1,22,-1
 208 64 l 1,23,-1
 208 80 l 1,24,-1
 224 80 l 1,25,-1
 288 80 l 1,26,-1
 304 80 l 1,27,-1
 304 64 l 1,28,-1
 304 16 l 1,29,-1
 416 16 l 1,30,-1
 416 368 l 1,31,-1
 96 368 l 1,20,-1
128 336 m 1,32,-1
 192 336 l 1,33,-1
 192 304 l 1,34,-1
 128 304 l 1,35,-1
 128 336 l 1,32,-1
224 336 m 1,36,-1
 288 336 l 1,37,-1
 288 304 l 1,38,-1
 224 304 l 1,39,-1
 224 336 l 1,36,-1
320 336 m 1,40,-1
 384 336 l 1,41,-1
 384 304 l 1,42,-1
 320 304 l 1,43,-1
 320 336 l 1,40,-1
128 272 m 1,44,-1
 192 272 l 1,45,-1
 192 240 l 1,46,-1
 128 240 l 1,47,-1
 128 272 l 1,44,-1
224 272 m 1,48,-1
 288 272 l 1,49,-1
 288 240 l 1,50,-1
 224 240 l 1,51,-1
 224 272 l 1,48,-1
320 272 m 1,52,-1
 384 272 l 1,53,-1
 384 240 l 1,54,-1
 320 240 l 1,55,-1
 320 272 l 1,52,-1
128 208 m 1,56,-1
 192 208 l 1,57,-1
 192 176 l 1,58,-1
 128 176 l 1,59,-1
 128 208 l 1,56,-1
224 208 m 1,60,-1
 288 208 l 1,61,-1
 288 176 l 1,62,-1
 224 176 l 1,63,-1
 224 208 l 1,60,-1
320 208 m 1,64,-1
 384 208 l 1,65,-1
 384 176 l 1,66,-1
 320 176 l 1,67,-1
 320 208 l 1,64,-1
128 144 m 1,68,-1
 192 144 l 1,69,-1
 192 112 l 1,70,-1
 128 112 l 1,71,-1
 128 144 l 1,68,-1
224 144 m 1,72,-1
 288 144 l 1,73,-1
 288 112 l 1,74,-1
 224 112 l 1,75,-1
 224 144 l 1,72,-1
320 144 m 1,76,-1
 384 144 l 1,77,-1
 384 112 l 1,78,-1
 320 112 l 1,79,-1
 320 144 l 1,76,-1
128 80 m 1,80,-1
 192 80 l 1,81,-1
 192 48 l 1,82,-1
 128 48 l 1,83,-1
 128 80 l 1,80,-1
320 80 m 1,84,-1
 384 80 l 1,85,-1
 384 48 l 1,86,-1
 320 48 l 1,87,-1
 320 80 l 1,84,-1
EndSplineSet
EndChar

StartChar: bullhorn
Encoding: 61782 61782 90
Width: 512
Flags: W
LayerCount: 2
Fore
SplineSet
448 400 m 1,0,-1
 448 368 l 1,1,-1
 448 253 l 1,2,3
 480 241 480 241 480 208 c 128,-1,4
 480 175 480 175 448 163 c 1,5,-1
 448 48 l 1,6,-1
 448 16 l 1,7,-1
 422 35 l 2,8,9
 390 58 390 58 344 82 c 0,10,11
 253 128 253 128 188 128 c 2,12,-1
 134 128 l 1,13,-1
 160 36 l 1,14,-1
 165 16 l 1,15,-1
 144 16 l 1,16,-1
 80 16 l 1,17,-1
 68 16 l 1,18,-1
 64 28 l 1,19,-1
 32 140 l 1,20,-1
 32 142 l 1,21,-1
 32 144 l 1,22,-1
 32 272 l 1,23,-1
 32 288 l 1,24,-1
 48 288 l 1,25,-1
 188 288 l 2,26,27
 255 288 255 288 345 334 c 0,28,29
 365 344 365 344 384.5 356 c 128,-1,30
 404 368 404 368 413 374 c 2,31,-1
 422 381 l 1,32,-1
 448 400 l 1,0,-1
416 340 m 1,33,34
 386 320 386 320 360 306 c 0,35,36
 265 257 265 257 192 256 c 1,37,-1
 192 160 l 1,38,39
 265 159 265 159 359 110 c 0,40,41
 386 97 386 97 416 76 c 1,42,-1
 416 160 l 1,43,-1
 416 176 l 1,44,-1
 416 240 l 1,45,-1
 416 256 l 1,46,-1
 416 340 l 1,33,34
64 256 m 1,47,-1
 64 160 l 1,48,-1
 160 160 l 1,49,-1
 160 256 l 1,50,-1
 64 256 l 1,47,-1
70 128 m 1,51,-1
 92 48 l 1,52,-1
 122 48 l 1,53,-1
 100 128 l 1,54,-1
 70 128 l 1,51,-1
EndSplineSet
EndChar

StartChar: bullseye
Encoding: 61783 61783 91
Width: 512
Flags: W
LayerCount: 2
Fore
SplineSet
256 400 m 128,-1,1
 342 400 342 400 403 339 c 128,-1,2
 464 278 464 278 464 192 c 128,-1,3
 464 106 464 106 403 45 c 128,-1,4
 342 -16 342 -16 256 -16 c 128,-1,5
 170 -16 170 -16 109 45 c 128,-1,6
 48 106 48 106 48 192 c 128,-1,7
 48 278 48 278 109 339 c 128,-1,0
 170 400 170 400 256 400 c 128,-1,1
256 384 m 128,-1,9
 176 384 176 384 120 328 c 128,-1,10
 64 272 64 272 64 192 c 128,-1,11
 64 112 64 112 120 56 c 128,-1,12
 176 0 176 0 256 0 c 128,-1,13
 336 0 336 0 392 56 c 128,-1,14
 448 112 448 112 448 192 c 128,-1,15
 448 272 448 272 392 328 c 128,-1,8
 336 384 336 384 256 384 c 128,-1,9
256 352 m 128,-1,17
 322 352 322 352 369 305 c 128,-1,18
 416 258 416 258 416 192 c 128,-1,19
 416 126 416 126 369 79 c 128,-1,20
 322 32 322 32 256 32 c 128,-1,21
 190 32 190 32 143 79 c 128,-1,22
 96 126 96 126 96 192 c 128,-1,23
 96 258 96 258 143 305 c 128,-1,16
 190 352 190 352 256 352 c 128,-1,17
256 320 m 128,-1,25
 203 320 203 320 165.5 282.5 c 128,-1,26
 128 245 128 245 128 192 c 128,-1,27
 128 139 128 139 165.5 101.5 c 128,-1,28
 203 64 203 64 256 64 c 128,-1,29
 309 64 309 64 346.5 101.5 c 128,-1,30
 384 139 384 139 384 192 c 128,-1,31
 384 245 384 245 346.5 282.5 c 128,-1,24
 309 320 309 320 256 320 c 128,-1,25
256 288 m 128,-1,33
 296 288 296 288 324 260 c 128,-1,34
 352 232 352 232 352 192 c 128,-1,35
 352 152 352 152 324 124 c 128,-1,36
 296 96 296 96 256 96 c 128,-1,37
 216 96 216 96 188 124 c 128,-1,38
 160 152 160 152 160 192 c 128,-1,39
 160 232 160 232 188 260 c 128,-1,32
 216 288 216 288 256 288 c 128,-1,33
256 256 m 128,-1,41
 229 256 229 256 210.5 237.5 c 128,-1,42
 192 219 192 219 192 192 c 128,-1,43
 192 165 192 165 210.5 146.5 c 128,-1,44
 229 128 229 128 256 128 c 128,-1,45
 283 128 283 128 301.5 146.5 c 128,-1,46
 320 165 320 165 320 192 c 128,-1,47
 320 219 320 219 301.5 237.5 c 128,-1,40
 283 256 283 256 256 256 c 128,-1,41
256 224 m 128,-1,49
 269 224 269 224 278.5 214.5 c 128,-1,50
 288 205 288 205 288 192 c 128,-1,51
 288 179 288 179 278.5 169.5 c 128,-1,52
 269 160 269 160 256 160 c 128,-1,53
 243 160 243 160 233.5 169.5 c 128,-1,54
 224 179 224 179 224 192 c 128,-1,55
 224 205 224 205 233.5 214.5 c 128,-1,48
 243 224 243 224 256 224 c 128,-1,49
EndSplineSet
EndChar

StartChar: bus
Encoding: 61784 61784 92
Width: 512
Flags: W
LayerCount: 2
Fore
SplineSet
144 384 m 2,0,-1
 368 384 l 2,1,2
 394 384 394 384 413 365 c 128,-1,3
 432 346 432 346 432 320 c 2,4,-1
 432 240 l 1,5,-1
 464 240 l 1,6,-1
 464 192 l 1,7,-1
 432 192 l 1,8,-1
 432 32 l 1,9,-1
 432 16 l 2,10,11
 432 9 432 9 427.5 4.5 c 128,-1,12
 423 0 423 0 416 0 c 2,13,-1
 368 0 l 1,14,-1
 362 16 l 1,15,-1
 150 16 l 1,16,-1
 144 0 l 1,17,-1
 96 0 l 2,18,19
 89 0 89 0 84.5 4.5 c 128,-1,20
 80 9 80 9 80 16 c 2,21,-1
 80 32 l 1,22,-1
 80 192 l 1,23,-1
 48 192 l 1,24,-1
 48 240 l 1,25,-1
 80 240 l 1,26,-1
 80 320 l 2,27,28
 80 346 80 346 99 365 c 128,-1,29
 118 384 118 384 144 384 c 2,0,-1
144 352 m 2,30,31
 131 352 131 352 121.5 342.5 c 128,-1,32
 112 333 112 333 112 320 c 1,33,-1
 400 320 l 1,34,35
 400 333 400 333 390.5 342.5 c 128,-1,36
 381 352 381 352 368 352 c 2,37,-1
 144 352 l 2,30,31
112 288 m 1,38,-1
 112 176 l 1,39,-1
 240 176 l 1,40,-1
 240 288 l 1,41,-1
 112 288 l 1,38,-1
272 288 m 1,42,-1
 272 176 l 1,43,-1
 400 176 l 1,44,-1
 400 288 l 1,45,-1
 272 288 l 1,42,-1
112 144 m 1,46,-1
 112 48 l 1,47,-1
 160 48 l 1,48,-1
 400 48 l 1,49,-1
 400 144 l 1,50,-1
 112 144 l 1,46,-1
128 112 m 1,51,-1
 192 112 l 1,52,-1
 192 80 l 1,53,-1
 128 80 l 1,54,-1
 128 112 l 1,51,-1
320 112 m 1,55,-1
 384 112 l 1,56,-1
 384 80 l 1,57,-1
 320 80 l 1,58,-1
 320 112 l 1,55,-1
EndSplineSet
EndChar

StartChar: buysellads
Encoding: 61785 61785 93
Width: 512
Flags: W
LayerCount: 2
Fore
SplineSet
179 352 m 1,0,-1
 190 352 l 1,1,-1
 318 352 l 1,2,-1
 330 352 l 1,3,-1
 334 341 l 1,4,-1
 431 53 l 1,5,-1
 438 32 l 1,6,-1
 416 32 l 1,7,-1
 324 32 l 1,8,-1
 312 32 l 1,9,-1
 308 44 l 1,10,-1
 290 112 l 1,11,-1
 196 36 l 1,12,-1
 192 32 l 1,13,-1
 186 32 l 1,14,-1
 96 32 l 1,15,-1
 74 32 l 1,16,-1
 81 53 l 1,17,-1
 176 341 l 1,18,-1
 179 352 l 1,0,-1
202 320 m 1,19,-1
 118 64 l 1,20,-1
 180 64 l 1,21,-1
 259 128 l 1,22,-1
 212 128 l 1,23,-1
 190 128 l 1,24,-1
 196 148 l 1,25,-1
 239 297 l 1,26,-1
 242 308 l 1,27,-1
 254 308 l 1,28,-1
 258 308 l 1,29,-1
 270 308 l 1,30,-1
 273 296 l 1,31,-1
 336 64 l 1,32,-1
 394 64 l 1,33,-1
 307 320 l 1,34,-1
 202 320 l 1,19,-1
256 238 m 1,35,-1
 233 160 l 1,36,-1
 277 160 l 1,37,-1
 256 238 l 1,35,-1
EndSplineSet
EndChar

StartChar: cab
Encoding: 61786 61786 94
Width: 512
Flags: W
LayerCount: 2
Fore
SplineSet
208 384 m 1,0,-1
 304 384 l 1,1,-1
 314 352 l 1,2,-1
 360 352 l 2,3,4
 376 352 376 352 388.5 342.5 c 128,-1,5
 401 333 401 333 406 318 c 2,6,-1
 428 244 l 1,7,-1
 459 255 l 1,8,-1
 469 225 l 1,9,-1
 438 214 l 1,10,-1
 448 180 l 2,11,12
 448 179 448 179 448 177 c 2,13,-1
 448 176 l 1,14,-1
 448 64 l 2,15,16
 448 63 448 63 448 62.5 c 128,-1,17
 448 62 448 62 448 62 c 1,18,-1
 448 48 l 2,19,20
 448 41 448 41 443.5 36.5 c 128,-1,21
 439 32 439 32 432 32 c 2,22,-1
 384 32 l 1,23,-1
 378 48 l 1,24,-1
 134 48 l 1,25,-1
 128 32 l 1,26,-1
 80 32 l 2,27,28
 73 32 73 32 68.5 36.5 c 128,-1,29
 64 41 64 41 64 48 c 2,30,-1
 64 62 l 2,31,32
 64 63 64 63 64 63.5 c 128,-1,33
 64 64 64 64 64 64 c 1,34,-1
 64 176 l 1,35,-1
 64 177 l 2,36,37
 64 179 64 179 64 180 c 2,38,-1
 74 214 l 1,39,-1
 43 225 l 1,40,-1
 53 255 l 1,41,-1
 84 244 l 1,42,-1
 106 318 l 2,43,44
 111 333 111 333 123.5 342.5 c 128,-1,45
 136 352 136 352 152 352 c 2,46,-1
 198 352 l 1,47,-1
 208 384 l 1,0,-1
152 320 m 2,48,49
 140 320 140 320 136 308 c 2,50,-1
 116 240 l 1,51,-1
 396 240 l 1,52,-1
 376 308 l 2,53,54
 372 320 372 320 360 320 c 2,55,-1
 152 320 l 2,48,49
106 208 m 1,56,-1
 96 173 l 1,57,-1
 96 80 l 1,58,-1
 144 80 l 1,59,-1
 416 80 l 1,60,-1
 416 173 l 1,61,-1
 406 208 l 1,62,-1
 106 208 l 1,56,-1
136 192 m 128,-1,64
 146 192 146 192 153 185 c 128,-1,65
 160 178 160 178 160 168 c 128,-1,66
 160 158 160 158 153 151 c 128,-1,67
 146 144 146 144 136 144 c 128,-1,68
 126 144 126 144 119 151 c 128,-1,69
 112 158 112 158 112 168 c 128,-1,70
 112 178 112 178 119 185 c 128,-1,63
 126 192 126 192 136 192 c 128,-1,64
376 192 m 128,-1,72
 386 192 386 192 393 185 c 128,-1,73
 400 178 400 178 400 168 c 128,-1,74
 400 158 400 158 393 151 c 128,-1,75
 386 144 386 144 376 144 c 128,-1,76
 366 144 366 144 359 151 c 128,-1,77
 352 158 352 158 352 168 c 128,-1,78
 352 178 352 178 359 185 c 128,-1,71
 366 192 366 192 376 192 c 128,-1,72
192 144 m 1,79,-1
 320 144 l 1,80,-1
 340 96 l 1,81,-1
 306 96 l 1,82,-1
 298 112 l 1,83,-1
 214 112 l 1,84,-1
 206 96 l 1,85,-1
 172 96 l 1,86,-1
 192 144 l 1,79,-1
EndSplineSet
EndChar

StartChar: calculator
Encoding: 61787 61787 95
Width: 512
Flags: W
LayerCount: 2
Fore
SplineSet
80 400 m 1,0,-1
 96 400 l 1,1,-1
 384 400 l 1,2,-1
 400 400 l 1,3,-1
 400 384 l 1,4,-1
 400 0 l 1,5,-1
 400 -16 l 1,6,-1
 384 -16 l 1,7,-1
 96 -16 l 1,8,-1
 80 -16 l 1,9,-1
 80 0 l 1,10,-1
 80 384 l 1,11,-1
 80 400 l 1,0,-1
112 368 m 1,12,-1
 112 16 l 1,13,-1
 368 16 l 1,14,-1
 368 368 l 1,15,-1
 112 368 l 1,12,-1
144 336 m 1,16,-1
 160 336 l 1,17,-1
 320 336 l 1,18,-1
 336 336 l 1,19,-1
 336 320 l 1,20,-1
 336 256 l 1,21,-1
 336 240 l 1,22,-1
 320 240 l 1,23,-1
 160 240 l 1,24,-1
 144 240 l 1,25,-1
 144 256 l 1,26,-1
 144 320 l 1,27,-1
 144 336 l 1,16,-1
176 304 m 1,28,-1
 176 272 l 1,29,-1
 304 272 l 1,30,-1
 304 304 l 1,31,-1
 176 304 l 1,28,-1
160 208 m 1,32,-1
 192 208 l 1,33,-1
 192 176 l 1,34,-1
 160 176 l 1,35,-1
 160 208 l 1,32,-1
224 208 m 1,36,-1
 256 208 l 1,37,-1
 256 176 l 1,38,-1
 224 176 l 1,39,-1
 224 208 l 1,36,-1
288 208 m 1,40,-1
 320 208 l 1,41,-1
 320 176 l 1,42,-1
 288 176 l 1,43,-1
 288 208 l 1,40,-1
160 144 m 1,44,-1
 192 144 l 1,45,-1
 192 112 l 1,46,-1
 160 112 l 1,47,-1
 160 144 l 1,44,-1
224 144 m 1,48,-1
 256 144 l 1,49,-1
 256 112 l 1,50,-1
 224 112 l 1,51,-1
 224 144 l 1,48,-1
288 144 m 1,52,-1
 320 144 l 1,53,-1
 320 112 l 1,54,-1
 288 112 l 1,55,-1
 288 144 l 1,52,-1
160 80 m 1,56,-1
 192 80 l 1,57,-1
 192 48 l 1,58,-1
 160 48 l 1,59,-1
 160 80 l 1,56,-1
224 80 m 1,60,-1
 256 80 l 1,61,-1
 256 48 l 1,62,-1
 224 48 l 1,63,-1
 224 80 l 1,60,-1
288 80 m 1,64,-1
 320 80 l 1,65,-1
 320 48 l 1,66,-1
 288 48 l 1,67,-1
 288 80 l 1,64,-1
EndSplineSet
EndChar

StartChar: calendar
Encoding: 61788 61788 96
Width: 512
Flags: W
LayerCount: 2
Fore
SplineSet
144 384 m 1,0,-1
 176 384 l 1,1,-1
 176 368 l 1,2,-1
 336 368 l 1,3,-1
 336 384 l 1,4,-1
 368 384 l 1,5,-1
 368 368 l 1,6,-1
 416 368 l 1,7,-1
 432 368 l 1,8,-1
 432 352 l 1,9,-1
 432 32 l 1,10,-1
 432 16 l 1,11,-1
 416 16 l 1,12,-1
 96 16 l 1,13,-1
 80 16 l 1,14,-1
 80 32 l 1,15,-1
 80 352 l 1,16,-1
 80 368 l 1,17,-1
 96 368 l 1,18,-1
 144 368 l 1,19,-1
 144 384 l 1,0,-1
112 336 m 1,20,-1
 112 304 l 1,21,-1
 400 304 l 1,22,-1
 400 336 l 1,23,-1
 368 336 l 1,24,-1
 368 320 l 1,25,-1
 336 320 l 1,26,-1
 336 336 l 1,27,-1
 176 336 l 1,28,-1
 176 320 l 1,29,-1
 144 320 l 1,30,-1
 144 336 l 1,31,-1
 112 336 l 1,20,-1
112 272 m 1,32,-1
 112 48 l 1,33,-1
 400 48 l 1,34,-1
 400 272 l 1,35,-1
 112 272 l 1,32,-1
208 240 m 1,36,-1
 240 240 l 1,37,-1
 240 208 l 1,38,-1
 208 208 l 1,39,-1
 208 240 l 1,36,-1
272 240 m 1,40,-1
 304 240 l 1,41,-1
 304 208 l 1,42,-1
 272 208 l 1,43,-1
 272 240 l 1,40,-1
336 240 m 1,44,-1
 368 240 l 1,45,-1
 368 208 l 1,46,-1
 336 208 l 1,47,-1
 336 240 l 1,44,-1
144 176 m 1,48,-1
 176 176 l 1,49,-1
 176 144 l 1,50,-1
 144 144 l 1,51,-1
 144 176 l 1,48,-1
208 176 m 1,52,-1
 240 176 l 1,53,-1
 240 144 l 1,54,-1
 208 144 l 1,55,-1
 208 176 l 1,52,-1
272 176 m 1,56,-1
 304 176 l 1,57,-1
 304 144 l 1,58,-1
 272 144 l 1,59,-1
 272 176 l 1,56,-1
336 176 m 1,60,-1
 368 176 l 1,61,-1
 368 144 l 1,62,-1
 336 144 l 1,63,-1
 336 176 l 1,60,-1
144 112 m 1,64,-1
 176 112 l 1,65,-1
 176 80 l 1,66,-1
 144 80 l 1,67,-1
 144 112 l 1,64,-1
208 112 m 1,68,-1
 240 112 l 1,69,-1
 240 80 l 1,70,-1
 208 80 l 1,71,-1
 208 112 l 1,68,-1
272 112 m 1,72,-1
 304 112 l 1,73,-1
 304 80 l 1,74,-1
 272 80 l 1,75,-1
 272 112 l 1,72,-1
EndSplineSet
EndChar

StartChar: calendar-check-o
Encoding: 61789 61789 97
Width: 512
Flags: W
LayerCount: 2
Fore
SplineSet
144 368 m 1,0,-1
 176 368 l 1,1,-1
 176 352 l 1,2,-1
 336 352 l 1,3,-1
 336 368 l 1,4,-1
 368 368 l 1,5,-1
 368 352 l 1,6,-1
 416 352 l 1,7,-1
 432 352 l 1,8,-1
 432 336 l 1,9,-1
 432 16 l 1,10,-1
 432 0 l 1,11,-1
 416 0 l 1,12,-1
 96 0 l 1,13,-1
 80 0 l 1,14,-1
 80 16 l 1,15,-1
 80 336 l 1,16,-1
 80 352 l 1,17,-1
 96 352 l 1,18,-1
 144 352 l 1,19,-1
 144 368 l 1,0,-1
112 320 m 1,20,-1
 112 288 l 1,21,-1
 400 288 l 1,22,-1
 400 320 l 1,23,-1
 368 320 l 1,24,-1
 368 304 l 1,25,-1
 336 304 l 1,26,-1
 336 320 l 1,27,-1
 176 320 l 1,28,-1
 176 304 l 1,29,-1
 144 304 l 1,30,-1
 144 320 l 1,31,-1
 112 320 l 1,20,-1
112 256 m 1,32,-1
 112 32 l 1,33,-1
 400 32 l 1,34,-1
 400 256 l 1,35,-1
 112 256 l 1,32,-1
324 220 m 1,36,-1
 348 196 l 1,37,-1
 252 100 l 1,38,-1
 240 90 l 1,39,-1
 228 100 l 1,40,-1
 180 148 l 1,41,-1
 204 172 l 1,42,-1
 240 135 l 1,43,-1
 324 220 l 1,36,-1
EndSplineSet
EndChar

StartChar: calendar-minus-o
Encoding: 61790 61790 98
Width: 512
Flags: W
LayerCount: 2
Fore
SplineSet
144 368 m 1,0,-1
 176 368 l 1,1,-1
 176 352 l 1,2,-1
 336 352 l 1,3,-1
 336 368 l 1,4,-1
 368 368 l 1,5,-1
 368 352 l 1,6,-1
 416 352 l 1,7,-1
 432 352 l 1,8,-1
 432 336 l 1,9,-1
 432 16 l 1,10,-1
 432 0 l 1,11,-1
 416 0 l 1,12,-1
 96 0 l 1,13,-1
 80 0 l 1,14,-1
 80 16 l 1,15,-1
 80 336 l 1,16,-1
 80 352 l 1,17,-1
 96 352 l 1,18,-1
 144 352 l 1,19,-1
 144 368 l 1,0,-1
112 320 m 1,20,-1
 112 288 l 1,21,-1
 400 288 l 1,22,-1
 400 320 l 1,23,-1
 368 320 l 1,24,-1
 368 304 l 1,25,-1
 336 304 l 1,26,-1
 336 320 l 1,27,-1
 176 320 l 1,28,-1
 176 304 l 1,29,-1
 144 304 l 1,30,-1
 144 320 l 1,31,-1
 112 320 l 1,20,-1
112 256 m 1,32,-1
 112 32 l 1,33,-1
 400 32 l 1,34,-1
 400 256 l 1,35,-1
 112 256 l 1,32,-1
176 160 m 1,36,-1
 336 160 l 1,37,-1
 336 128 l 1,38,-1
 176 128 l 1,39,-1
 176 160 l 1,36,-1
EndSplineSet
EndChar

StartChar: calendar-o
Encoding: 61791 61791 99
Width: 512
Flags: W
LayerCount: 2
Fore
SplineSet
144 384 m 1,0,-1
 176 384 l 1,1,-1
 176 368 l 1,2,-1
 336 368 l 1,3,-1
 336 384 l 1,4,-1
 368 384 l 1,5,-1
 368 368 l 1,6,-1
 416 368 l 1,7,-1
 432 368 l 1,8,-1
 432 352 l 1,9,-1
 432 32 l 1,10,-1
 432 16 l 1,11,-1
 416 16 l 1,12,-1
 96 16 l 1,13,-1
 80 16 l 1,14,-1
 80 32 l 1,15,-1
 80 352 l 1,16,-1
 80 368 l 1,17,-1
 96 368 l 1,18,-1
 144 368 l 1,19,-1
 144 384 l 1,0,-1
112 336 m 1,20,-1
 112 304 l 1,21,-1
 400 304 l 1,22,-1
 400 336 l 1,23,-1
 368 336 l 1,24,-1
 368 320 l 1,25,-1
 336 320 l 1,26,-1
 336 336 l 1,27,-1
 176 336 l 1,28,-1
 176 320 l 1,29,-1
 144 320 l 1,30,-1
 144 336 l 1,31,-1
 112 336 l 1,20,-1
112 272 m 1,32,-1
 112 48 l 1,33,-1
 400 48 l 1,34,-1
 400 272 l 1,35,-1
 112 272 l 1,32,-1
208 240 m 1,36,-1
 240 240 l 1,37,-1
 240 208 l 1,38,-1
 208 208 l 1,39,-1
 208 240 l 1,36,-1
272 240 m 1,40,-1
 304 240 l 1,41,-1
 304 208 l 1,42,-1
 272 208 l 1,43,-1
 272 240 l 1,40,-1
336 240 m 1,44,-1
 368 240 l 1,45,-1
 368 208 l 1,46,-1
 336 208 l 1,47,-1
 336 240 l 1,44,-1
144 176 m 1,48,-1
 176 176 l 1,49,-1
 176 144 l 1,50,-1
 144 144 l 1,51,-1
 144 176 l 1,48,-1
208 176 m 1,52,-1
 240 176 l 1,53,-1
 240 144 l 1,54,-1
 208 144 l 1,55,-1
 208 176 l 1,52,-1
272 176 m 1,56,-1
 304 176 l 1,57,-1
 304 144 l 1,58,-1
 272 144 l 1,59,-1
 272 176 l 1,56,-1
336 176 m 1,60,-1
 368 176 l 1,61,-1
 368 144 l 1,62,-1
 336 144 l 1,63,-1
 336 176 l 1,60,-1
144 112 m 1,64,-1
 176 112 l 1,65,-1
 176 80 l 1,66,-1
 144 80 l 1,67,-1
 144 112 l 1,64,-1
208 112 m 1,68,-1
 240 112 l 1,69,-1
 240 80 l 1,70,-1
 208 80 l 1,71,-1
 208 112 l 1,68,-1
272 112 m 1,72,-1
 304 112 l 1,73,-1
 304 80 l 1,74,-1
 272 80 l 1,75,-1
 272 112 l 1,72,-1
EndSplineSet
EndChar

StartChar: calendar-plus-o
Encoding: 61792 61792 100
Width: 512
Flags: W
LayerCount: 2
Fore
SplineSet
144 368 m 1,0,-1
 176 368 l 1,1,-1
 176 352 l 1,2,-1
 336 352 l 1,3,-1
 336 368 l 1,4,-1
 368 368 l 1,5,-1
 368 352 l 1,6,-1
 416 352 l 1,7,-1
 432 352 l 1,8,-1
 432 336 l 1,9,-1
 432 16 l 1,10,-1
 432 0 l 1,11,-1
 416 0 l 1,12,-1
 96 0 l 1,13,-1
 80 0 l 1,14,-1
 80 16 l 1,15,-1
 80 336 l 1,16,-1
 80 352 l 1,17,-1
 96 352 l 1,18,-1
 144 352 l 1,19,-1
 144 368 l 1,0,-1
112 320 m 1,20,-1
 112 288 l 1,21,-1
 400 288 l 1,22,-1
 400 320 l 1,23,-1
 368 320 l 1,24,-1
 368 304 l 1,25,-1
 336 304 l 1,26,-1
 336 320 l 1,27,-1
 176 320 l 1,28,-1
 176 304 l 1,29,-1
 144 304 l 1,30,-1
 144 320 l 1,31,-1
 112 320 l 1,20,-1
112 256 m 1,32,-1
 112 32 l 1,33,-1
 400 32 l 1,34,-1
 400 256 l 1,35,-1
 112 256 l 1,32,-1
240 224 m 1,36,-1
 272 224 l 1,37,-1
 272 160 l 1,38,-1
 336 160 l 1,39,-1
 336 128 l 1,40,-1
 272 128 l 1,41,-1
 272 64 l 1,42,-1
 240 64 l 1,43,-1
 240 128 l 1,44,-1
 176 128 l 1,45,-1
 176 160 l 1,46,-1
 240 160 l 1,47,-1
 240 224 l 1,36,-1
EndSplineSet
EndChar

StartChar: calendar-times-o
Encoding: 61793 61793 101
Width: 512
Flags: W
LayerCount: 2
Fore
SplineSet
144 368 m 1,0,-1
 176 368 l 1,1,-1
 176 352 l 1,2,-1
 336 352 l 1,3,-1
 336 368 l 1,4,-1
 368 368 l 1,5,-1
 368 352 l 1,6,-1
 416 352 l 1,7,-1
 432 352 l 1,8,-1
 432 336 l 1,9,-1
 432 16 l 1,10,-1
 432 0 l 1,11,-1
 416 0 l 1,12,-1
 96 0 l 1,13,-1
 80 0 l 1,14,-1
 80 16 l 1,15,-1
 80 336 l 1,16,-1
 80 352 l 1,17,-1
 96 352 l 1,18,-1
 144 352 l 1,19,-1
 144 368 l 1,0,-1
112 320 m 1,20,-1
 112 288 l 1,21,-1
 400 288 l 1,22,-1
 400 320 l 1,23,-1
 368 320 l 1,24,-1
 368 304 l 1,25,-1
 336 304 l 1,26,-1
 336 320 l 1,27,-1
 176 320 l 1,28,-1
 176 304 l 1,29,-1
 144 304 l 1,30,-1
 144 320 l 1,31,-1
 112 320 l 1,20,-1
112 256 m 1,32,-1
 112 32 l 1,33,-1
 400 32 l 1,34,-1
 400 256 l 1,35,-1
 112 256 l 1,32,-1
212 212 m 1,36,-1
 256 167 l 1,37,-1
 300 212 l 1,38,-1
 324 188 l 1,39,-1
 279 144 l 1,40,-1
 324 100 l 1,41,-1
 300 76 l 1,42,-1
 256 121 l 1,43,-1
 212 76 l 1,44,-1
 188 100 l 1,45,-1
 233 144 l 1,46,-1
 188 188 l 1,47,-1
 212 212 l 1,36,-1
EndSplineSet
EndChar

StartChar: camera
Encoding: 61794 61794 102
Width: 512
Flags: W
LayerCount: 2
Fore
SplineSet
184 352 m 1,0,-1
 192 352 l 1,1,-1
 320 352 l 1,2,-1
 328 352 l 1,3,-1
 333 346 l 1,4,-1
 352 320 l 1,5,-1
 448 320 l 1,6,-1
 464 320 l 1,7,-1
 464 304 l 1,8,-1
 464 48 l 1,9,-1
 464 32 l 1,10,-1
 448 32 l 1,11,-1
 64 32 l 1,12,-1
 48 32 l 1,13,-1
 48 48 l 1,14,-1
 48 304 l 1,15,-1
 48 320 l 1,16,-1
 64 320 l 1,17,-1
 160 320 l 1,18,-1
 179 346 l 1,19,-1
 184 352 l 1,0,-1
200 320 m 1,20,-1
 181 294 l 1,21,-1
 176 288 l 1,22,-1
 168 288 l 1,23,-1
 80 288 l 1,24,-1
 80 64 l 1,25,-1
 432 64 l 1,26,-1
 432 288 l 1,27,-1
 344 288 l 1,28,-1
 336 288 l 1,29,-1
 331 294 l 1,30,-1
 312 320 l 1,31,-1
 200 320 l 1,20,-1
128 272 m 128,-1,33
 135 272 135 272 139.5 267.5 c 128,-1,34
 144 263 144 263 144 256 c 128,-1,35
 144 249 144 249 139.5 244.5 c 128,-1,36
 135 240 135 240 128 240 c 128,-1,37
 121 240 121 240 116.5 244.5 c 128,-1,38
 112 249 112 249 112 256 c 128,-1,39
 112 263 112 263 116.5 267.5 c 128,-1,32
 121 272 121 272 128 272 c 128,-1,33
256 272 m 128,-1,41
 296 272 296 272 324 244 c 128,-1,42
 352 216 352 216 352 176 c 128,-1,43
 352 136 352 136 324 108 c 128,-1,44
 296 80 296 80 256 80 c 128,-1,45
 216 80 216 80 188 108 c 128,-1,46
 160 136 160 136 160 176 c 128,-1,47
 160 216 160 216 188 244 c 128,-1,40
 216 272 216 272 256 272 c 128,-1,41
256 240 m 128,-1,49
 229 240 229 240 210.5 221.5 c 128,-1,50
 192 203 192 203 192 176 c 128,-1,51
 192 149 192 149 210.5 130.5 c 128,-1,52
 229 112 229 112 256 112 c 128,-1,53
 283 112 283 112 301.5 130.5 c 128,-1,54
 320 149 320 149 320 176 c 128,-1,55
 320 203 320 203 301.5 221.5 c 128,-1,48
 283 240 283 240 256 240 c 128,-1,49
EndSplineSet
EndChar

StartChar: camera-retro
Encoding: 61795 61795 103
Width: 512
Flags: W
LayerCount: 2
Fore
SplineSet
184 352 m 1,0,-1
 192 352 l 1,1,-1
 320 352 l 1,2,-1
 328 352 l 1,3,-1
 333 346 l 1,4,-1
 352 320 l 1,5,-1
 448 320 l 1,6,-1
 464 320 l 1,7,-1
 464 304 l 1,8,-1
 464 48 l 1,9,-1
 464 32 l 1,10,-1
 448 32 l 1,11,-1
 64 32 l 1,12,-1
 48 32 l 1,13,-1
 48 48 l 1,14,-1
 48 304 l 1,15,-1
 48 320 l 1,16,-1
 64 320 l 1,17,-1
 80 320 l 1,18,-1
 80 336 l 1,19,-1
 144 336 l 1,20,-1
 144 320 l 1,21,-1
 160 320 l 1,22,-1
 179 346 l 1,23,-1
 184 352 l 1,0,-1
200 320 m 1,24,-1
 181 294 l 1,25,-1
 176 288 l 1,26,-1
 168 288 l 1,27,-1
 80 288 l 1,28,-1
 80 224 l 1,29,-1
 173 224 l 1,30,31
 201 272 201 272 256 272 c 128,-1,32
 311 272 311 272 339 224 c 1,33,-1
 432 224 l 1,34,-1
 432 288 l 1,35,-1
 344 288 l 1,36,-1
 336 288 l 1,37,-1
 331 294 l 1,38,-1
 312 320 l 1,39,-1
 200 320 l 1,24,-1
368 272 m 1,40,-1
 400 272 l 1,41,-1
 400 240 l 1,42,-1
 368 240 l 1,43,-1
 368 272 l 1,40,-1
256 240 m 128,-1,45
 229 240 229 240 210.5 221.5 c 128,-1,46
 192 203 192 203 192 176 c 128,-1,47
 192 149 192 149 210.5 130.5 c 128,-1,48
 229 112 229 112 256 112 c 128,-1,49
 283 112 283 112 301.5 130.5 c 128,-1,50
 320 149 320 149 320 176 c 128,-1,51
 320 203 320 203 301.5 221.5 c 128,-1,44
 283 240 283 240 256 240 c 128,-1,45
80 192 m 1,52,-1
 80 64 l 1,53,-1
 432 64 l 1,54,-1
 432 192 l 1,55,-1
 350 192 l 1,56,57
 352 183 352 183 352 176 c 0,58,59
 352 136 352 136 324 108 c 128,-1,60
 296 80 296 80 256 80 c 128,-1,61
 216 80 216 80 188 108 c 128,-1,62
 160 136 160 136 160 176 c 0,63,64
 160 183 160 183 162 192 c 1,65,-1
 80 192 l 1,52,-1
EndSplineSet
EndChar

StartChar: car
Encoding: 61796 61796 104
Width: 512
Flags: W
LayerCount: 2
Fore
SplineSet
152 352 m 2,0,-1
 360 352 l 2,1,2
 376 352 376 352 388.5 342.5 c 128,-1,3
 401 333 401 333 406 318 c 2,4,-1
 428 244 l 1,5,-1
 459 255 l 1,6,-1
 469 225 l 1,7,-1
 438 214 l 1,8,-1
 448 180 l 2,9,10
 448 179 448 179 448 177 c 2,11,-1
 448 176 l 1,12,-1
 448 64 l 2,13,14
 448 63 448 63 448 62.5 c 128,-1,15
 448 62 448 62 448 62 c 1,16,-1
 448 48 l 2,17,18
 448 41 448 41 443.5 36.5 c 128,-1,19
 439 32 439 32 432 32 c 2,20,-1
 384 32 l 1,21,-1
 378 48 l 1,22,-1
 134 48 l 1,23,-1
 128 32 l 1,24,-1
 80 32 l 2,25,26
 73 32 73 32 68.5 36.5 c 128,-1,27
 64 41 64 41 64 48 c 2,28,-1
 64 62 l 2,29,30
 64 63 64 63 64 63.5 c 128,-1,31
 64 64 64 64 64 64 c 1,32,-1
 64 176 l 1,33,-1
 64 177 l 2,34,35
 64 179 64 179 64 180 c 2,36,-1
 74 214 l 1,37,-1
 43 225 l 1,38,-1
 53 255 l 1,39,-1
 84 244 l 1,40,-1
 106 318 l 2,41,42
 111 333 111 333 123.5 342.5 c 128,-1,43
 136 352 136 352 152 352 c 2,0,-1
152 320 m 2,44,45
 140 320 140 320 136 308 c 2,46,-1
 116 240 l 1,47,-1
 396 240 l 1,48,-1
 376 308 l 2,49,50
 372 320 372 320 360 320 c 2,51,-1
 152 320 l 2,44,45
106 208 m 1,52,-1
 96 173 l 1,53,-1
 96 80 l 1,54,-1
 144 80 l 1,55,-1
 416 80 l 1,56,-1
 416 173 l 1,57,-1
 406 208 l 1,58,-1
 106 208 l 1,52,-1
136 192 m 128,-1,60
 146 192 146 192 153 185 c 128,-1,61
 160 178 160 178 160 168 c 128,-1,62
 160 158 160 158 153 151 c 128,-1,63
 146 144 146 144 136 144 c 128,-1,64
 126 144 126 144 119 151 c 128,-1,65
 112 158 112 158 112 168 c 128,-1,66
 112 178 112 178 119 185 c 128,-1,59
 126 192 126 192 136 192 c 128,-1,60
376 192 m 128,-1,68
 386 192 386 192 393 185 c 128,-1,69
 400 178 400 178 400 168 c 128,-1,70
 400 158 400 158 393 151 c 128,-1,71
 386 144 386 144 376 144 c 128,-1,72
 366 144 366 144 359 151 c 128,-1,73
 352 158 352 158 352 168 c 128,-1,74
 352 178 352 178 359 185 c 128,-1,67
 366 192 366 192 376 192 c 128,-1,68
192 144 m 1,75,-1
 320 144 l 1,76,-1
 340 96 l 1,77,-1
 306 96 l 1,78,-1
 298 112 l 1,79,-1
 214 112 l 1,80,-1
 206 96 l 1,81,-1
 172 96 l 1,82,-1
 192 144 l 1,75,-1
EndSplineSet
EndChar

StartChar: caret-down
Encoding: 61797 61797 105
Width: 512
Flags: W
LayerCount: 2
Fore
SplineSet
58 256 m 1,0,-1
 96 256 l 1,1,-1
 416 256 l 1,2,-1
 454 256 l 1,3,-1
 428 228 l 1,4,-1
 268 68 l 1,5,-1
 256 58 l 1,6,-1
 244 68 l 1,7,-1
 84 228 l 1,8,-1
 58 256 l 1,0,-1
135 224 m 1,9,-1
 256 103 l 1,10,-1
 377 224 l 1,11,-1
 135 224 l 1,9,-1
EndSplineSet
EndChar

StartChar: caret-left
Encoding: 61798 61798 106
Width: 512
Flags: W
LayerCount: 2
Fore
SplineSet
320 374 m 1,0,-1
 320 336 l 1,1,-1
 320 48 l 1,2,-1
 320 10 l 1,3,-1
 292 36 l 1,4,-1
 148 180 l 1,5,-1
 138 192 l 1,6,-1
 148 204 l 1,7,-1
 292 348 l 1,8,-1
 320 374 l 1,0,-1
288 297 m 1,9,-1
 183 192 l 1,10,-1
 288 87 l 1,11,-1
 288 297 l 1,9,-1
EndSplineSet
EndChar

StartChar: caret-right
Encoding: 61799 61799 107
Width: 512
Flags: W
LayerCount: 2
Fore
SplineSet
192 374 m 1,0,-1
 220 348 l 1,1,-1
 364 204 l 1,2,-1
 374 192 l 1,3,-1
 364 180 l 1,4,-1
 220 36 l 1,5,-1
 192 10 l 1,6,-1
 192 48 l 1,7,-1
 192 336 l 1,8,-1
 192 374 l 1,0,-1
224 297 m 1,9,-1
 224 87 l 1,10,-1
 329 192 l 1,11,-1
 224 297 l 1,9,-1
EndSplineSet
EndChar

StartChar: caret-square-o-down
Encoding: 61800 61800 108
Width: 512
Flags: W
LayerCount: 2
Fore
SplineSet
80 368 m 1,0,-1
 96 368 l 1,1,-1
 416 368 l 1,2,-1
 432 368 l 1,3,-1
 432 352 l 1,4,-1
 432 32 l 1,5,-1
 432 16 l 1,6,-1
 416 16 l 1,7,-1
 96 16 l 1,8,-1
 80 16 l 1,9,-1
 80 32 l 1,10,-1
 80 352 l 1,11,-1
 80 368 l 1,0,-1
112 336 m 1,12,-1
 112 48 l 1,13,-1
 400 48 l 1,14,-1
 400 336 l 1,15,-1
 112 336 l 1,12,-1
172 244 m 1,16,-1
 256 159 l 1,17,-1
 340 244 l 1,18,-1
 364 220 l 1,19,-1
 268 124 l 1,20,-1
 256 114 l 1,21,-1
 244 124 l 1,22,-1
 148 220 l 1,23,-1
 172 244 l 1,16,-1
EndSplineSet
EndChar

StartChar: caret-square-o-left
Encoding: 61801 61801 109
Width: 512
Flags: W
LayerCount: 2
Fore
SplineSet
80 368 m 1,0,-1
 96 368 l 1,1,-1
 416 368 l 1,2,-1
 432 368 l 1,3,-1
 432 352 l 1,4,-1
 432 32 l 1,5,-1
 432 16 l 1,6,-1
 416 16 l 1,7,-1
 96 16 l 1,8,-1
 80 16 l 1,9,-1
 80 32 l 1,10,-1
 80 352 l 1,11,-1
 80 368 l 1,0,-1
112 336 m 1,12,-1
 112 48 l 1,13,-1
 400 48 l 1,14,-1
 400 336 l 1,15,-1
 112 336 l 1,12,-1
284 300 m 1,16,-1
 308 276 l 1,17,-1
 223 192 l 1,18,-1
 308 108 l 1,19,-1
 284 84 l 1,20,-1
 188 180 l 1,21,-1
 178 192 l 1,22,-1
 188 204 l 1,23,-1
 284 300 l 1,16,-1
EndSplineSet
EndChar

StartChar: caret-square-o-right
Encoding: 61802 61802 110
Width: 512
Flags: W
LayerCount: 2
Fore
SplineSet
80 368 m 1,0,-1
 96 368 l 1,1,-1
 416 368 l 1,2,-1
 432 368 l 1,3,-1
 432 352 l 1,4,-1
 432 32 l 1,5,-1
 432 16 l 1,6,-1
 416 16 l 1,7,-1
 96 16 l 1,8,-1
 80 16 l 1,9,-1
 80 32 l 1,10,-1
 80 352 l 1,11,-1
 80 368 l 1,0,-1
112 336 m 1,12,-1
 112 48 l 1,13,-1
 400 48 l 1,14,-1
 400 336 l 1,15,-1
 112 336 l 1,12,-1
228 300 m 1,16,-1
 324 204 l 1,17,-1
 334 192 l 1,18,-1
 324 180 l 1,19,-1
 228 84 l 1,20,-1
 204 108 l 1,21,-1
 289 192 l 1,22,-1
 204 276 l 1,23,-1
 228 300 l 1,16,-1
EndSplineSet
EndChar

StartChar: caret-square-o-up
Encoding: 61803 61803 111
Width: 512
Flags: W
LayerCount: 2
Fore
SplineSet
80 368 m 1,0,-1
 96 368 l 1,1,-1
 416 368 l 1,2,-1
 432 368 l 1,3,-1
 432 352 l 1,4,-1
 432 32 l 1,5,-1
 432 16 l 1,6,-1
 416 16 l 1,7,-1
 96 16 l 1,8,-1
 80 16 l 1,9,-1
 80 32 l 1,10,-1
 80 352 l 1,11,-1
 80 368 l 1,0,-1
112 336 m 1,12,-1
 112 48 l 1,13,-1
 400 48 l 1,14,-1
 400 336 l 1,15,-1
 112 336 l 1,12,-1
256 270 m 1,16,-1
 268 260 l 1,17,-1
 364 164 l 1,18,-1
 340 140 l 1,19,-1
 256 225 l 1,20,-1
 172 140 l 1,21,-1
 148 164 l 1,22,-1
 244 260 l 1,23,-1
 256 270 l 1,16,-1
EndSplineSet
EndChar

StartChar: caret-up
Encoding: 61804 61804 112
Width: 512
Flags: W
LayerCount: 2
Fore
SplineSet
256 310 m 1,0,-1
 268 300 l 1,1,-1
 428 140 l 1,2,-1
 454 112 l 1,3,-1
 416 112 l 1,4,-1
 96 112 l 1,5,-1
 58 112 l 1,6,-1
 84 140 l 1,7,-1
 244 300 l 1,8,-1
 256 310 l 1,0,-1
256 265 m 1,9,-1
 135 144 l 1,10,-1
 377 144 l 1,11,-1
 256 265 l 1,9,-1
EndSplineSet
EndChar

StartChar: cart-arrow-down
Encoding: 61805 61805 113
Width: 512
Flags: W
LayerCount: 2
Fore
SplineSet
64 336 m 2,0,-1
 100 336 l 2,1,2
 111 336 111 336 119.5 329.5 c 128,-1,3
 128 323 128 323 130 312 c 2,4,-1
 172 144 l 1,5,-1
 372 144 l 1,6,-1
 410 288 l 1,7,-1
 444 288 l 1,8,-1
 402 136 l 2,9,10
 400 125 400 125 391.5 118.5 c 128,-1,11
 383 112 383 112 372 112 c 2,12,-1
 352 112 l 1,13,-1
 208 112 l 1,14,-1
 172 112 l 2,15,16
 161 112 161 112 152.5 118.5 c 128,-1,17
 144 125 144 125 142 136 c 2,18,-1
 100 304 l 1,19,-1
 64 304 l 2,20,21
 57 304 57 304 52.5 308.5 c 128,-1,22
 48 313 48 313 48 320 c 128,-1,23
 48 327 48 327 52.5 331.5 c 128,-1,24
 57 336 57 336 64 336 c 2,0,-1
352 112 m 128,-1,26
 372 112 372 112 386 98 c 128,-1,27
 400 84 400 84 400 64 c 128,-1,28
 400 44 400 44 386 30 c 128,-1,29
 372 16 372 16 352 16 c 128,-1,30
 332 16 332 16 318 30 c 128,-1,31
 304 44 304 44 304 64 c 128,-1,32
 304 84 304 84 318 98 c 128,-1,25
 332 112 332 112 352 112 c 128,-1,26
208 112 m 128,-1,34
 228 112 228 112 242 98 c 128,-1,35
 256 84 256 84 256 64 c 128,-1,36
 256 44 256 44 242 30 c 128,-1,37
 228 16 228 16 208 16 c 128,-1,38
 188 16 188 16 174 30 c 128,-1,39
 160 44 160 44 160 64 c 128,-1,40
 160 84 160 84 174 98 c 128,-1,33
 188 112 188 112 208 112 c 128,-1,34
256 336 m 1,41,-1
 288 336 l 1,42,-1
 288 256 l 1,43,-1
 336 256 l 1,44,-1
 272 192 l 1,45,-1
 208 256 l 1,46,-1
 256 256 l 1,47,-1
 256 336 l 1,41,-1
208 80 m 128,-1,49
 192 80 192 80 192 64 c 128,-1,50
 192 48 192 48 208 48 c 128,-1,51
 224 48 224 48 224 64 c 128,-1,48
 224 80 224 80 208 80 c 128,-1,49
352 80 m 128,-1,53
 336 80 336 80 336 64 c 128,-1,54
 336 48 336 48 352 48 c 128,-1,55
 368 48 368 48 368 64 c 128,-1,52
 368 80 368 80 352 80 c 128,-1,53
EndSplineSet
EndChar

StartChar: cart-plus
Encoding: 61806 61806 114
Width: 512
Flags: W
LayerCount: 2
Fore
SplineSet
64 336 m 2,0,-1
 100 336 l 2,1,2
 111 336 111 336 119.5 329.5 c 128,-1,3
 128 323 128 323 130 312 c 2,4,-1
 172 144 l 1,5,-1
 372 144 l 1,6,-1
 410 288 l 1,7,-1
 444 288 l 1,8,-1
 402 136 l 2,9,10
 400 125 400 125 391.5 118.5 c 128,-1,11
 383 112 383 112 372 112 c 2,12,-1
 352 112 l 1,13,-1
 208 112 l 1,14,-1
 172 112 l 2,15,16
 161 112 161 112 152.5 118.5 c 128,-1,17
 144 125 144 125 142 136 c 2,18,-1
 100 304 l 1,19,-1
 64 304 l 2,20,21
 57 304 57 304 52.5 308.5 c 128,-1,22
 48 313 48 313 48 320 c 128,-1,23
 48 327 48 327 52.5 331.5 c 128,-1,24
 57 336 57 336 64 336 c 2,0,-1
352 112 m 128,-1,26
 372 112 372 112 386 98 c 128,-1,27
 400 84 400 84 400 64 c 128,-1,28
 400 44 400 44 386 30 c 128,-1,29
 372 16 372 16 352 16 c 128,-1,30
 332 16 332 16 318 30 c 128,-1,31
 304 44 304 44 304 64 c 128,-1,32
 304 84 304 84 318 98 c 128,-1,25
 332 112 332 112 352 112 c 128,-1,26
208 112 m 128,-1,34
 228 112 228 112 242 98 c 128,-1,35
 256 84 256 84 256 64 c 128,-1,36
 256 44 256 44 242 30 c 128,-1,37
 228 16 228 16 208 16 c 128,-1,38
 188 16 188 16 174 30 c 128,-1,39
 160 44 160 44 160 64 c 128,-1,40
 160 84 160 84 174 98 c 128,-1,33
 188 112 188 112 208 112 c 128,-1,34
256 336 m 1,41,-1
 288 336 l 1,42,-1
 288 288 l 1,43,-1
 336 288 l 1,44,-1
 336 256 l 1,45,-1
 288 256 l 1,46,-1
 288 208 l 1,47,-1
 256 208 l 1,48,-1
 256 256 l 1,49,-1
 208 256 l 1,50,-1
 208 288 l 1,51,-1
 256 288 l 1,52,-1
 256 336 l 1,41,-1
208 80 m 128,-1,54
 192 80 192 80 192 64 c 128,-1,55
 192 48 192 48 208 48 c 128,-1,56
 224 48 224 48 224 64 c 128,-1,53
 224 80 224 80 208 80 c 128,-1,54
352 80 m 128,-1,58
 336 80 336 80 336 64 c 128,-1,59
 336 48 336 48 352 48 c 128,-1,60
 368 48 368 48 368 64 c 128,-1,57
 368 80 368 80 352 80 c 128,-1,58
EndSplineSet
EndChar

StartChar: cc
Encoding: 61807 61807 115
Width: 512
Flags: W
LayerCount: 2
Fore
SplineSet
32 352 m 1,0,-1
 48 352 l 1,1,-1
 464 352 l 1,2,-1
 480 352 l 1,3,-1
 480 336 l 1,4,-1
 480 82 l 1,5,-1
 480 66 l 1,6,-1
 464 66 l 1,7,-1
 48 66 l 1,8,-1
 32 66 l 1,9,-1
 32 82 l 1,10,-1
 32 336 l 1,11,-1
 32 352 l 1,0,-1
64 320 m 1,12,-1
 64 98 l 1,13,-1
 448 98 l 1,14,-1
 448 320 l 1,15,-1
 64 320 l 1,12,-1
192 288 m 0,16,17
 220 288 220 288 242 270 c 1,18,-1
 222 245 l 1,19,20
 208 256 208 256 192 256 c 0,21,22
 172 256 172 256 158 242 c 128,-1,23
 144 228 144 228 144 208 c 128,-1,24
 144 188 144 188 158 174 c 128,-1,25
 172 160 172 160 192 160 c 0,26,27
 208 160 208 160 222 171 c 1,28,-1
 242 146 l 1,29,30
 220 128 220 128 192 128 c 0,31,32
 159 128 159 128 135.5 151.5 c 128,-1,33
 112 175 112 175 112 208 c 128,-1,34
 112 241 112 241 135.5 264.5 c 128,-1,35
 159 288 159 288 192 288 c 0,16,17
352 288 m 0,36,37
 380 288 380 288 402 270 c 1,38,-1
 382 245 l 1,39,40
 368 256 368 256 352 256 c 0,41,42
 332 256 332 256 318 242 c 128,-1,43
 304 228 304 228 304 208 c 128,-1,44
 304 188 304 188 318 174 c 128,-1,45
 332 160 332 160 352 160 c 0,46,47
 368 160 368 160 382 171 c 1,48,-1
 402 146 l 1,49,50
 380 128 380 128 352 128 c 0,51,52
 319 128 319 128 295.5 151.5 c 128,-1,53
 272 175 272 175 272 208 c 128,-1,54
 272 241 272 241 295.5 264.5 c 128,-1,55
 319 288 319 288 352 288 c 0,36,37
EndSplineSet
EndChar

StartChar: cc-amex
Encoding: 61808 61808 116
Width: 512
Flags: W
LayerCount: 2
Fore
SplineSet
80 352 m 2,0,-1
 432 352 l 2,1,2
 452 352 452 352 466 338 c 128,-1,3
 480 324 480 324 480 304 c 2,4,-1
 480 80 l 2,5,6
 480 60 480 60 466 46 c 128,-1,7
 452 32 452 32 432 32 c 2,8,-1
 80 32 l 2,9,10
 60 32 60 32 46 46 c 128,-1,11
 32 60 32 60 32 80 c 2,12,-1
 32 304 l 2,13,14
 32 324 32 324 46 338 c 128,-1,15
 60 352 60 352 80 352 c 2,0,-1
80 320 m 2,16,17
 64 320 64 320 64 304 c 2,18,-1
 64 80 l 2,19,20
 64 64 64 64 80 64 c 2,21,-1
 432 64 l 2,22,23
 448 64 448 64 448 80 c 2,24,-1
 448 304 l 2,25,26
 448 320 448 320 432 320 c 2,27,-1
 80 320 l 2,16,17
113 236 m 1,28,-1
 137 236 l 1,29,-1
 168 152 l 1,30,-1
 168 236 l 1,31,-1
 199 236 l 1,32,-1
 221 176 l 1,33,-1
 243 236 l 1,34,-1
 272 236 l 1,35,-1
 272 148 l 1,36,-1
 254 148 l 1,37,-1
 254 212 l 1,38,-1
 230 148 l 1,39,-1
 212 148 l 1,40,-1
 188 214 l 1,41,-1
 188 148 l 1,42,-1
 150 148 l 1,43,-1
 144 168 l 1,44,-1
 106 168 l 1,45,-1
 100 148 l 1,46,-1
 80 148 l 1,47,-1
 113 236 l 1,28,-1
296 236 m 1,48,-1
 368 236 l 1,49,-1
 386 210 l 1,50,-1
 408 236 l 1,51,-1
 432 236 l 1,52,-1
 399 192 l 1,53,-1
 432 148 l 1,54,-1
 410 148 l 1,55,-1
 388 176 l 1,56,-1
 366 148 l 1,57,-1
 296 148 l 1,58,-1
 296 236 l 1,48,-1
124 218 m 1,59,-1
 113 188 l 1,60,-1
 135 188 l 1,61,-1
 124 218 l 1,59,-1
313 216 m 1,62,-1
 313 201 l 1,63,-1
 353 201 l 1,64,-1
 353 183 l 1,65,-1
 313 183 l 1,66,-1
 313 166 l 1,67,-1
 355 166 l 1,68,-1
 375 192 l 1,69,-1
 357 216 l 1,70,-1
 313 216 l 1,62,-1
EndSplineSet
EndChar

StartChar: cc-diners-club
Encoding: 61809 61809 117
Width: 512
Flags: W
LayerCount: 2
Fore
SplineSet
80 352 m 2,0,-1
 432 352 l 2,1,2
 452 352 452 352 466 338 c 128,-1,3
 480 324 480 324 480 304 c 2,4,-1
 480 80 l 2,5,6
 480 60 480 60 466 46 c 128,-1,7
 452 32 452 32 432 32 c 2,8,-1
 80 32 l 2,9,10
 60 32 60 32 46 46 c 128,-1,11
 32 60 32 60 32 80 c 2,12,-1
 32 304 l 2,13,14
 32 324 32 324 46 338 c 128,-1,15
 60 352 60 352 80 352 c 2,0,-1
80 320 m 2,16,17
 64 320 64 320 64 304 c 2,18,-1
 64 80 l 2,19,20
 64 64 64 64 80 64 c 2,21,-1
 432 64 l 2,22,23
 448 64 448 64 448 80 c 2,24,-1
 448 304 l 2,25,26
 448 320 448 320 432 320 c 2,27,-1
 80 320 l 2,16,17
240 288 m 2,28,-1
 272 288 l 2,29,30
 312 288 312 288 340 260 c 128,-1,31
 368 232 368 232 368 192 c 128,-1,32
 368 152 368 152 340 124 c 128,-1,33
 312 96 312 96 272 96 c 2,34,-1
 240 96 l 2,35,36
 200 96 200 96 172 124 c 128,-1,37
 144 152 144 152 144 192 c 128,-1,38
 144 232 144 232 172 260 c 128,-1,39
 200 288 200 288 240 288 c 2,28,-1
240 256 m 128,-1,41
 213 256 213 256 194.5 237.5 c 128,-1,42
 176 219 176 219 176 192 c 128,-1,43
 176 165 176 165 194.5 146.5 c 128,-1,44
 213 128 213 128 240 128 c 128,-1,45
 267 128 267 128 285.5 146.5 c 128,-1,46
 304 165 304 165 304 192 c 128,-1,47
 304 219 304 219 285.5 237.5 c 128,-1,40
 267 256 267 256 240 256 c 128,-1,41
227 230 m 1,48,-1
 227 154 l 1,49,50
 215 159 215 159 207.5 169 c 128,-1,51
 200 179 200 179 200 192 c 128,-1,52
 200 205 200 205 207.5 215 c 128,-1,53
 215 225 215 225 227 230 c 1,48,-1
253 230 m 1,54,55
 265 225 265 225 272.5 215 c 128,-1,56
 280 205 280 205 280 192 c 128,-1,57
 280 179 280 179 272.5 169 c 128,-1,58
 265 159 265 159 253 154 c 1,59,-1
 253 230 l 1,54,55
EndSplineSet
EndChar

StartChar: cc-discover
Encoding: 61810 61810 118
Width: 512
Flags: W
LayerCount: 2
Fore
SplineSet
80 352 m 2,0,-1
 432 352 l 2,1,2
 452 352 452 352 466 338 c 128,-1,3
 480 324 480 324 480 304 c 2,4,-1
 480 80 l 2,5,6
 480 60 480 60 466 46 c 128,-1,7
 452 32 452 32 432 32 c 2,8,-1
 80 32 l 2,9,10
 60 32 60 32 46 46 c 128,-1,11
 32 60 32 60 32 80 c 2,12,-1
 32 304 l 2,13,14
 32 324 32 324 46 338 c 128,-1,15
 60 352 60 352 80 352 c 2,0,-1
80 320 m 2,16,17
 64 320 64 320 64 304 c 2,18,-1
 64 80 l 2,19,20
 64 64 64 64 80 64 c 2,21,-1
 432 64 l 2,22,23
 448 64 448 64 448 80 c 2,24,-1
 448 304 l 2,25,26
 448 320 448 320 432 320 c 2,27,-1
 80 320 l 2,16,17
167 222 m 0,28,29
 177 222 177 222 184 215 c 1,30,-1
 178 208 l 1,31,32
 174 212 174 212 169 212 c 0,33,34
 161 212 161 212 161 206 c 0,35,36
 161 202 161 202 170 199 c 0,37,38
 185 193 185 193 186 181 c 0,39,40
 186 173 186 173 180.5 167.5 c 128,-1,41
 175 162 175 162 166 162 c 0,42,43
 154 162 154 162 146 174 c 1,44,-1
 154 180 l 1,45,46
 158 172 158 172 166 172 c 256,47,48
 174 172 174 172 174 180 c 0,49,50
 174 185 174 185 164 190 c 0,51,52
 150 195 150 195 150 205 c 0,53,54
 150 212 150 212 155 217 c 128,-1,55
 160 222 160 222 167 222 c 0,28,29
219 222 m 0,56,57
 227 222 227 222 233 218 c 1,58,-1
 233 206 l 1,59,60
 227 212 227 212 219 212 c 128,-1,61
 211 212 211 212 205.5 206.5 c 128,-1,62
 200 201 200 201 200 192 c 0,63,64
 200 184 200 184 205.5 178.5 c 128,-1,65
 211 173 211 173 220 173 c 0,66,67
 227 173 227 173 233 179 c 1,68,-1
 233 166 l 1,69,70
 226 162 226 162 219 162 c 0,71,72
 206 162 206 162 197.5 171 c 128,-1,73
 189 180 189 180 189 192 c 128,-1,74
 189 204 189 204 197.5 212.5 c 128,-1,75
 206 221 206 221 219 222 c 0,56,57
265.5 222 m 128,-1,77
 278 222 278 222 286.5 213 c 128,-1,78
 295 204 295 204 295 192 c 128,-1,79
 295 180 295 180 286.5 171 c 128,-1,80
 278 162 278 162 265.5 162 c 128,-1,81
 253 162 253 162 244.5 171 c 128,-1,82
 236 180 236 180 236 192 c 128,-1,83
 236 204 236 204 244.5 213 c 128,-1,76
 253 222 253 222 265.5 222 c 128,-1,77
80 220 m 1,84,-1
 96 220 l 2,85,86
 109 220 109 220 117.5 212 c 128,-1,87
 126 204 126 204 126 192 c 0,88,89
 126 183 126 183 119 173.5 c 128,-1,90
 112 164 112 164 96 164 c 2,91,-1
 80 164 l 1,92,-1
 80 220 l 1,84,-1
132 220 m 1,93,-1
 142 220 l 1,94,-1
 142 164 l 1,95,-1
 132 164 l 1,96,-1
 132 220 l 1,93,-1
293 220 m 1,97,-1
 305 220 l 1,98,-1
 320 182 l 1,99,-1
 336 220 l 1,100,-1
 348 220 l 1,101,-1
 323 162 l 1,102,-1
 317 162 l 1,103,-1
 293 220 l 1,97,-1
352 220 m 1,104,-1
 384 220 l 1,105,-1
 384 211 l 1,106,-1
 364 211 l 1,107,-1
 364 198 l 1,108,-1
 383 198 l 1,109,-1
 383 189 l 1,110,-1
 364 189 l 1,111,-1
 364 174 l 1,112,-1
 384 174 l 1,113,-1
 384 164 l 1,114,-1
 352 164 l 1,115,-1
 352 220 l 1,104,-1
391 220 m 1,116,-1
 407 220 l 2,117,118
 427 220 427 220 427 204 c 0,119,120
 427 191 427 191 414 188 c 1,121,-1
 432 164 l 1,122,-1
 418 164 l 1,123,-1
 403 186 l 1,124,-1
 402 186 l 1,125,-1
 402 164 l 1,126,-1
 391 164 l 1,127,-1
 391 220 l 1,116,-1
402 212 m 1,128,-1
 402 194 l 1,129,-1
 405 194 l 2,130,131
 416 194 416 194 416 203 c 128,-1,132
 416 212 416 212 405 212 c 2,133,-1
 402 212 l 1,128,-1
91 211 m 1,134,-1
 91 174 l 1,135,-1
 94 174 l 2,136,137
 115 174 115 174 115 192 c 0,138,139
 115 211 115 211 94 211 c 2,140,-1
 91 211 l 1,134,-1
EndSplineSet
EndChar

StartChar: cc-jcb
Encoding: 61811 61811 119
Width: 512
Flags: W
LayerCount: 2
Fore
SplineSet
80 352 m 2,0,-1
 432 352 l 2,1,2
 452 352 452 352 466 338 c 128,-1,3
 480 324 480 324 480 304 c 2,4,-1
 480 80 l 2,5,6
 480 60 480 60 466 46 c 128,-1,7
 452 32 452 32 432 32 c 2,8,-1
 80 32 l 2,9,10
 60 32 60 32 46 46 c 128,-1,11
 32 60 32 60 32 80 c 2,12,-1
 32 304 l 2,13,14
 32 324 32 324 46 338 c 128,-1,15
 60 352 60 352 80 352 c 2,0,-1
80 320 m 2,16,17
 64 320 64 320 64 304 c 2,18,-1
 64 80 l 2,19,20
 64 64 64 64 80 64 c 2,21,-1
 432 64 l 2,22,23
 448 64 448 64 448 80 c 2,24,-1
 448 304 l 2,25,26
 448 320 448 320 432 320 c 2,27,-1
 80 320 l 2,16,17
130 272 m 2,28,-1
 192 272 l 1,29,-1
 192 145 l 2,30,31
 192 132 192 132 181.5 122 c 128,-1,32
 171 112 171 112 159 112 c 2,33,-1
 96 112 l 1,34,-1
 96 190 l 1,35,-1
 96 238 l 2,36,37
 96 254 96 254 105.5 263 c 128,-1,38
 115 272 115 272 130 272 c 2,28,-1
242 272 m 2,39,-1
 304 272 l 1,40,-1
 304 146 l 2,41,42
 304 133 304 133 293.5 123 c 128,-1,43
 283 113 283 113 271 113 c 2,44,-1
 208 113 l 1,45,-1
 208 238 l 2,46,47
 208 254 208 254 217.5 263 c 128,-1,48
 227 272 227 272 242 272 c 2,39,-1
354 272 m 2,49,-1
 416 272 l 1,50,-1
 416 183 l 1,51,-1
 416 146 l 2,52,53
 416 133 416 133 405.5 123 c 128,-1,54
 395 113 395 113 382 113 c 2,55,-1
 320 113 l 1,56,-1
 320 238 l 2,57,58
 320 254 320 254 329.5 263 c 128,-1,59
 339 272 339 272 354 272 c 2,49,-1
246 224 m 2,60,61
 235 224 235 224 227.5 215.5 c 128,-1,62
 220 207 220 207 220 196 c 128,-1,63
 220 185 220 185 227.5 176.5 c 128,-1,64
 235 168 235 168 246 168 c 2,65,-1
 292 168 l 1,66,-1
 292 178 l 1,67,68
 277 174 277 174 265 174 c 0,69,70
 256 174 256 174 250 180.5 c 128,-1,71
 244 187 244 187 244 196 c 128,-1,72
 244 205 244 205 250 211.5 c 128,-1,73
 256 218 256 218 265 218 c 0,74,75
 275 218 275 218 292 214 c 1,76,-1
 292 224 l 1,77,-1
 246 224 l 2,60,61
334 224 m 1,78,-1
 334 169 l 1,79,-1
 394 169 l 2,80,81
 399 169 399 169 403.5 173.5 c 128,-1,82
 408 178 408 178 408 183 c 256,83,84
 408 188 408 188 404 192 c 128,-1,85
 400 196 400 196 394 196 c 1,86,87
 399 196 399 196 402.5 200.5 c 128,-1,88
 406 205 406 205 406 210.5 c 128,-1,89
 406 216 406 216 402 220 c 128,-1,90
 398 224 398 224 392 224 c 2,91,-1
 334 224 l 1,78,-1
152 224 m 1,92,-1
 152 192 l 2,93,94
 152 186 152 186 146.5 181 c 128,-1,95
 141 176 141 176 134 176 c 0,96,97
 118 176 118 176 116 190 c 1,98,-1
 104 190 l 1,99,100
 106 180 106 180 116.5 173 c 128,-1,101
 127 166 127 166 140 166 c 0,102,103
 154 166 154 166 166.5 173.5 c 128,-1,104
 179 181 179 181 179 192 c 2,105,-1
 179 224 l 1,106,-1
 152 224 l 1,92,-1
356 218 m 1,107,-1
 375 218 l 2,108,109
 379 218 379 218 381.5 215.5 c 128,-1,110
 384 213 384 213 384 209 c 0,111,112
 384 200 384 200 375 200 c 2,113,-1
 356 200 l 1,114,-1
 356 218 l 1,107,-1
356 193 m 1,115,-1
 376 193 l 2,116,117
 379 193 379 193 381.5 190 c 128,-1,118
 384 187 384 187 384 183.5 c 128,-1,119
 384 180 384 180 381.5 177 c 128,-1,120
 379 174 379 174 376 174 c 2,121,-1
 356 174 l 1,122,-1
 356 193 l 1,115,-1
EndSplineSet
EndChar

StartChar: cc-mastercard
Encoding: 61812 61812 120
Width: 512
Flags: W
LayerCount: 2
Fore
SplineSet
80 352 m 2,0,-1
 432 352 l 2,1,2
 452 352 452 352 466 338 c 128,-1,3
 480 324 480 324 480 304 c 2,4,-1
 480 80 l 2,5,6
 480 60 480 60 466 46 c 128,-1,7
 452 32 452 32 432 32 c 2,8,-1
 80 32 l 2,9,10
 60 32 60 32 46 46 c 128,-1,11
 32 60 32 60 32 80 c 2,12,-1
 32 304 l 2,13,14
 32 324 32 324 46 338 c 128,-1,15
 60 352 60 352 80 352 c 2,0,-1
80 320 m 2,16,17
 64 320 64 320 64 304 c 2,18,-1
 64 80 l 2,19,20
 64 64 64 64 80 64 c 2,21,-1
 432 64 l 2,22,23
 448 64 448 64 448 80 c 2,24,-1
 448 304 l 2,25,26
 448 320 448 320 432 320 c 2,27,-1
 80 320 l 2,16,17
192 304 m 0,28,29
 227 304 227 304 256 284 c 1,30,31
 285 304 285 304 320 304 c 0,32,33
 366 304 366 304 399 271 c 128,-1,34
 432 238 432 238 432 192 c 128,-1,35
 432 146 432 146 399 113 c 128,-1,36
 366 80 366 80 320 80 c 0,37,38
 285 80 285 80 256 100 c 1,39,40
 227 80 227 80 192 80 c 0,41,42
 146 80 146 80 113 113 c 128,-1,43
 80 146 80 146 80 192 c 128,-1,44
 80 238 80 238 113 271 c 128,-1,45
 146 304 146 304 192 304 c 0,28,29
192 272 m 0,46,47
 159 272 159 272 135.5 248.5 c 128,-1,48
 112 225 112 225 112 192 c 128,-1,49
 112 159 112 159 135.5 135.5 c 128,-1,50
 159 112 159 112 192 112 c 0,51,52
 222 112 222 112 245 132 c 1,53,54
 235 146 235 146 230 160 c 1,55,-1
 265 160 l 1,56,57
 269 170 269 170 270 176 c 1,58,-1
 226 176 l 1,59,60
 224 185 224 185 224 192 c 128,-1,61
 224 199 224 199 226 208 c 1,62,-1
 270 208 l 1,63,64
 269 214 269 214 265 224 c 1,65,-1
 230 224 l 1,66,67
 235 239 235 239 245 252 c 1,68,69
 222 272 222 272 192 272 c 0,46,47
320 272 m 0,70,71
 299 272 299 272 280 261 c 1,72,73
 304 231 304 231 304 192 c 128,-1,74
 304 153 304 153 280 123 c 1,75,76
 299 112 299 112 320 112 c 0,77,78
 353 112 353 112 376.5 135.5 c 128,-1,79
 400 159 400 159 400 192 c 128,-1,80
 400 225 400 225 376.5 248.5 c 128,-1,81
 353 272 353 272 320 272 c 0,70,71
EndSplineSet
EndChar

StartChar: cc-paypal
Encoding: 61813 61813 121
Width: 512
Flags: W
LayerCount: 2
Fore
SplineSet
142 368 m 1,0,-1
 155 368 l 1,1,-1
 289 368 l 2,2,3
 330 368 330 368 356 340 c 0,4,5
 371 324 371 324 376 301 c 1,6,7
 406 294 406 294 424 272 c 0,8,9
 450 240 450 240 440 192 c 0,10,11
 430 146 430 146 394.5 118 c 128,-1,12
 359 90 359 90 314 90 c 2,13,-1
 270 90 l 1,14,-1
 254 13 l 1,15,-1
 252 0 l 1,16,-1
 238 0 l 1,17,-1
 160 0 l 1,18,-1
 140 0 l 1,19,-1
 144 20 l 1,20,-1
 154 64 l 1,21,-1
 96 64 l 1,22,-1
 76 64 l 1,23,-1
 80 84 l 1,24,-1
 140 356 l 1,25,-1
 142 368 l 1,0,-1
168 336 m 1,26,-1
 116 96 l 1,27,-1
 161 96 l 1,28,-1
 162 96 l 1,29,-1
 178 174 l 1,30,-1
 180 186 l 1,31,-1
 194 186 l 1,32,-1
 250 186 l 2,33,34
 285 186 285 186 311 206 c 128,-1,35
 337 226 337 226 344 263 c 0,36,37
 352 299 352 299 333 318 c 0,38,39
 316 336 316 336 289 336 c 2,40,-1
 168 336 l 1,26,-1
209 312 m 1,41,-1
 222 312 l 1,42,-1
 260 312 l 2,43,44
 283 312 283 312 296 295 c 0,45,46
 308 278 308 278 302 256 c 1,47,-1
 302 255 l 1,48,49
 296 234 296 234 279.5 220 c 128,-1,50
 263 206 263 206 242 206 c 2,51,-1
 205 206 l 1,52,-1
 185 206 l 1,53,-1
 190 226 l 1,54,-1
 206 300 l 1,55,-1
 209 312 l 1,41,-1
234 280 m 1,56,-1
 225 238 l 1,57,-1
 242 238 l 2,58,59
 250 238 250 238 259.5 246 c 128,-1,60
 269 254 269 254 271 263 c 2,61,-1
 271 264 l 2,62,63
 273 271 273 271 270 276 c 0,64,65
 267 280 267 280 260 280 c 2,66,-1
 234 280 l 1,56,-1
378 266 m 1,67,68
 376 258 376 258 376 256 c 0,69,70
 366 210 366 210 330.5 182 c 128,-1,71
 295 154 295 154 250 154 c 2,72,-1
 206 154 l 1,73,-1
 190 77 l 1,74,-1
 188 64 l 1,75,-1
 187 64 l 1,76,-1
 180 32 l 1,77,-1
 226 32 l 1,78,-1
 242 110 l 1,79,-1
 244 122 l 1,80,-1
 258 122 l 1,81,-1
 314 122 l 2,82,83
 349 122 349 122 375 142 c 128,-1,84
 401 162 401 162 408 199 c 0,85,86
 416 232 416 232 400 252 c 0,87,88
 392 261 392 261 378 266 c 1,67,68
EndSplineSet
EndChar

StartChar: cc-stripe
Encoding: 61814 61814 122
Width: 512
Flags: W
LayerCount: 2
Fore
SplineSet
80 352 m 2,0,-1
 432 352 l 2,1,2
 452 352 452 352 466 338 c 128,-1,3
 480 324 480 324 480 304 c 2,4,-1
 480 80 l 2,5,6
 480 60 480 60 466 46 c 128,-1,7
 452 32 452 32 432 32 c 2,8,-1
 80 32 l 2,9,10
 60 32 60 32 46 46 c 128,-1,11
 32 60 32 60 32 80 c 2,12,-1
 32 304 l 2,13,14
 32 324 32 324 46 338 c 128,-1,15
 60 352 60 352 80 352 c 2,0,-1
80 320 m 2,16,17
 64 320 64 320 64 304 c 2,18,-1
 64 80 l 2,19,20
 64 64 64 64 80 64 c 2,21,-1
 432 64 l 2,22,23
 448 64 448 64 448 80 c 2,24,-1
 448 304 l 2,25,26
 448 320 448 320 432 320 c 2,27,-1
 80 320 l 2,16,17
264 265 m 128,-1,29
 270 265 270 265 274 261 c 128,-1,30
 278 257 278 257 278 251.5 c 128,-1,31
 278 246 278 246 274 242 c 128,-1,32
 270 238 270 238 264 238 c 128,-1,33
 258 238 258 238 254 242 c 128,-1,34
 250 246 250 246 250 251.5 c 128,-1,35
 250 257 250 257 254 261 c 128,-1,28
 258 265 258 265 264 265 c 128,-1,29
177 253 m 1,36,-1
 177 230 l 1,37,-1
 194 230 l 1,38,-1
 190 210 l 1,39,-1
 177 210 l 1,40,-1
 177 177 l 2,41,42
 177 168 177 168 184 168 c 0,43,44
 188 168 188 168 192 170 c 1,45,-1
 192 150 l 1,46,47
 184 148 184 148 178 148 c 0,48,49
 166 148 166 148 160 152 c 0,50,51
 152 159 152 159 152 173 c 2,52,-1
 152 210 l 1,53,-1
 141 210 l 1,54,-1
 144 228 l 1,55,-1
 152 230 l 1,56,-1
 155 250 l 1,57,-1
 177 253 l 1,36,-1
110 232 m 0,58,59
 124 232 124 232 136 226 c 1,60,-1
 133 206 l 1,61,62
 121 212 121 212 112 212 c 0,63,64
 105 212 105 212 105 208 c 256,65,66
 105 204 105 204 117 200 c 0,67,68
 140 191 140 191 140 174 c 0,69,70
 140 161 140 161 131 154 c 0,71,72
 124 148 124 148 109 148 c 0,73,74
 92 148 92 148 80 154 c 1,75,-1
 83 174 l 1,76,77
 96 166 96 166 108 166 c 0,78,79
 116 166 116 166 116 172 c 0,80,81
 116 177 116 177 104 181 c 0,82,83
 81 189 81 189 81 206 c 0,84,85
 81 218 81 218 89 225 c 256,86,87
 97 232 97 232 110 232 c 0,58,59
332 232 m 256,88,89
 344 232 344 232 350 222 c 0,90,91
 358 213 358 213 358 192 c 0,92,93
 358 168 358 168 348 157 c 0,94,95
 339 148 339 148 324 148 c 0,96,97
 318 148 318 148 313 149 c 1,98,-1
 313 124 l 1,99,-1
 287 119 l 1,100,-1
 287 230 l 1,101,-1
 310 230 l 1,102,-1
 311 222 l 1,103,104
 320 232 320 232 332 232 c 256,88,89
399 232 m 256,105,106
 415 232 415 232 423.5 220.5 c 128,-1,107
 432 209 432 209 432 190 c 0,108,109
 432 185 432 185 432 181 c 1,110,-1
 389 181 l 1,111,112
 390 173 390 173 394 170 c 0,113,114
 398 166 398 166 404 166 c 0,115,116
 416 166 416 166 426 172 c 1,117,-1
 430 154 l 1,118,119
 420 148 420 148 402 148 c 0,120,121
 383 148 383 148 374 156 c 0,122,123
 364 167 364 167 364 189 c 0,124,125
 364 209 364 209 373.5 220.5 c 128,-1,126
 383 232 383 232 399 232 c 256,105,106
240 231 m 0,127,128
 243 231 243 231 245 230 c 2,129,-1
 245 206 l 2,130,131
 242 207 242 207 240 207 c 0,132,133
 231 207 231 207 226 202 c 1,134,-1
 226 149 l 1,135,-1
 200 149 l 1,136,-1
 200 230 l 1,137,-1
 223 230 l 1,138,-1
 224 220 l 1,139,140
 228 231 228 231 240 231 c 0,127,128
251 230 m 1,141,-1
 277 230 l 1,142,-1
 277 149 l 1,143,-1
 251 149 l 1,144,-1
 251 230 l 1,141,-1
398.5 214 m 128,-1,146
 390 214 390 214 389 197 c 1,147,-1
 408 197 l 1,148,145
 407 214 407 214 398.5 214 c 128,-1,146
322 212 m 0,149,150
 318 212 318 212 313 206 c 1,151,-1
 313 168 l 2,152,153
 316 166 316 166 320 166 c 0,154,155
 326 166 326 166 329 172 c 0,156,157
 333 179 333 179 332 191 c 0,158,159
 332 212 332 212 322 212 c 0,149,150
EndSplineSet
EndChar

StartChar: cc-visa
Encoding: 61815 61815 123
Width: 512
Flags: W
LayerCount: 2
Fore
SplineSet
80 352 m 2,0,-1
 432 352 l 2,1,2
 452 352 452 352 466 338 c 128,-1,3
 480 324 480 324 480 304 c 2,4,-1
 480 80 l 2,5,6
 480 60 480 60 466 46 c 128,-1,7
 452 32 452 32 432 32 c 2,8,-1
 80 32 l 2,9,10
 60 32 60 32 46 46 c 128,-1,11
 32 60 32 60 32 80 c 2,12,-1
 32 304 l 2,13,14
 32 324 32 324 46 338 c 128,-1,15
 60 352 60 352 80 352 c 2,0,-1
80 320 m 2,16,17
 64 320 64 320 64 304 c 2,18,-1
 64 80 l 2,19,20
 64 64 64 64 80 64 c 2,21,-1
 432 64 l 2,22,23
 448 64 448 64 448 80 c 2,24,-1
 448 304 l 2,25,26
 448 320 448 320 432 320 c 2,27,-1
 80 320 l 2,16,17
310 250 m 0,28,29
 317 250 317 250 323.5 248.5 c 128,-1,30
 330 247 330 247 334 246 c 2,31,-1
 338 244 l 1,32,-1
 333 220 l 1,33,34
 322 228 322 228 313 228 c 0,35,36
 293 228 293 228 293 216 c 0,37,38
 293 212 293 212 313.5 201 c 128,-1,39
 334 190 334 190 334 173.5 c 128,-1,40
 334 157 334 157 317.5 145.5 c 128,-1,41
 301 134 301 134 284 134 c 0,42,43
 274 134 274 134 266 135.5 c 128,-1,44
 258 137 258 137 255 139 c 2,45,-1
 252 140 l 1,46,-1
 257 164 l 1,47,48
 268 158 268 158 285 158 c 0,49,50
 304 158 304 158 304 168 c 0,51,52
 304 173 304 173 298 177.5 c 128,-1,53
 292 182 292 182 284 185 c 128,-1,54
 276 188 276 188 270 196 c 128,-1,55
 264 204 264 204 264 216 c 0,56,57
 264 231 264 231 276 240.5 c 128,-1,58
 288 250 288 250 310 250 c 0,28,29
179 248 m 1,59,-1
 210 248 l 1,60,-1
 166 138 l 1,61,-1
 134 138 l 1,62,-1
 110 227 l 1,63,64
 135 214 135 214 150 180 c 1,65,-1
 152 169 l 1,66,-1
 179 248 l 1,59,-1
222 248 m 1,67,-1
 252 248 l 1,68,-1
 234 138 l 1,69,-1
 204 138 l 1,70,-1
 222 248 l 1,67,-1
381 248 m 1,71,-1
 412 248 l 1,72,-1
 434 138 l 1,73,-1
 408 138 l 1,74,-1
 405 153 l 1,75,-1
 368 153 l 1,76,-1
 362 138 l 1,77,-1
 333 138 l 1,78,-1
 381 248 l 1,71,-1
78 248 m 1,79,-1
 122 248 l 2,80,81
 128 248 128 248 132 245 c 128,-1,82
 136 242 136 242 137 239 c 2,83,-1
 138 236 l 1,84,-1
 148 186 l 2,85,86
 143 206 143 206 125 221 c 128,-1,87
 107 236 107 236 92 242 c 2,88,-1
 78 248 l 1,79,-1
392 216 m 1,89,-1
 376 174 l 1,90,-1
 400 174 l 1,91,-1
 392 216 l 1,89,-1
EndSplineSet
EndChar

StartChar: certificate
Encoding: 61816 61816 124
Width: 512
Flags: W
LayerCount: 2
Fore
SplineSet
256 400 m 128,-1,1
 271 400 271 400 284 390 c 2,2,-1
 311 372 l 1,3,-1
 341 368 l 1,4,-1
 342 368 l 2,5,6
 357 366 357 366 368.5 354.5 c 128,-1,7
 380 343 380 343 382 328 c 0,8,9
 382 327 382 327 382 327 c 129,-1,10
 382 327 382 327 382 326 c 2,11,-1
 388 296 l 1,12,-1
 406 270 l 2,13,14
 426 243 426 243 407 212 c 1,15,-1
 406 212 l 1,16,-1
 388 185 l 1,17,-1
 384 155 l 1,18,-1
 434 79 l 1,19,-1
 450 54 l 1,20,-1
 421 54 l 1,21,-1
 374 54 l 1,22,-1
 356 12 l 1,23,-1
 344 -16 l 1,24,-1
 328 9 l 1,25,-1
 277 85 l 1,26,27
 257 76 257 76 235 85 c 1,28,-1
 184 9 l 1,29,-1
 168 -16 l 1,30,-1
 156 12 l 1,31,-1
 138 54 l 1,32,-1
 91 54 l 1,33,-1
 62 54 l 1,34,-1
 78 79 l 1,35,-1
 130 158 l 1,36,-1
 124 185 l 1,37,-1
 106 212 l 2,38,39
 86 239 86 239 105 270 c 1,40,-1
 106 270 l 1,41,-1
 124 294 l 1,42,-1
 128 326 l 1,43,-1
 128 326 l 1,44,45
 132 342 132 342 143 353 c 128,-1,46
 154 364 154 364 170 368 c 1,47,-1
 170 368 l 1,48,-1
 201 372 l 1,49,-1
 228 390 l 2,50,0
 241 400 241 400 256 400 c 128,-1,1
256 368 m 128,-1,52
 250 368 250 368 246 364 c 2,53,-1
 218 344 l 1,54,-1
 214 342 l 1,55,-1
 210 341 l 1,56,-1
 176 336 l 1,57,58
 176 336 176 336 176 336 c 1,59,60
 163 333 163 333 160 320 c 1,61,62
 160 320 160 320 160 320 c 1,63,-1
 155 286 l 1,64,-1
 154 282 l 1,65,-1
 152 278 l 1,66,-1
 132 252 l 2,67,68
 124 240 124 240 132 230 c 2,69,-1
 152 202 l 1,70,-1
 154 198 l 1,71,-1
 155 194 l 1,72,-1
 162 158 l 1,73,-1
 162 157 l 2,74,75
 162 154 162 154 164 151 c 0,76,77
 167 145 167 145 174 144 c 2,78,-1
 175 144 l 1,79,-1
 210 139 l 1,80,-1
 214 138 l 1,81,-1
 218 136 l 1,82,-1
 244 116 l 2,83,84
 256 108 256 108 266 116 c 2,85,-1
 294 136 l 1,86,-1
 298 138 l 1,87,-1
 302 139 l 1,88,-1
 338 146 l 1,89,-1
 339 146 l 2,90,91
 345 146 345 146 348 150 c 2,92,-1
 348 151 l 1,93,-1
 350 152 l 2,94,95
 352 155 352 155 352 158 c 2,96,-1
 352 159 l 1,97,-1
 357 194 l 1,98,-1
 358 198 l 1,99,-1
 360 202 l 1,100,-1
 380 230 l 2,101,102
 388 242 388 242 380 252 c 2,103,-1
 360 280 l 1,104,-1
 358 283 l 1,105,-1
 357 286 l 1,106,-1
 350 322 l 1,107,-1
 350 323 l 2,108,109
 349 335 349 335 338 336 c 2,110,-1
 337 336 l 1,111,-1
 302 341 l 1,112,-1
 298 342 l 1,113,-1
 294 344 l 1,114,-1
 266 364 l 2,115,51
 262 368 262 368 256 368 c 128,-1,52
366 124 m 1,116,117
 356 116 356 116 344 114 c 0,118,119
 343 114 343 114 343 114 c 129,-1,120
 343 114 343 114 342 114 c 2,121,-1
 311 108 l 1,122,-1
 304 103 l 1,123,-1
 338 51 l 1,124,-1
 348 76 l 1,125,-1
 352 86 l 1,126,-1
 363 86 l 1,127,-1
 391 86 l 1,128,-1
 366 124 l 1,116,117
146 124 m 1,129,-1
 121 86 l 1,130,-1
 149 86 l 1,131,-1
 160 86 l 1,132,-1
 164 76 l 1,133,-1
 174 51 l 1,134,-1
 208 102 l 1,135,-1
 202 108 l 1,136,-1
 171 112 l 1,137,-1
 170 112 l 2,138,139
 156 114 156 114 146 124 c 1,129,-1
EndSplineSet
EndChar

StartChar: chain
Encoding: 61817 61817 125
Width: 512
Flags: W
LayerCount: 2
Fore
SplineSet
348 384 m 0,0,1
 389 384 389 384 418.5 354.5 c 128,-1,2
 448 325 448 325 448 284 c 0,3,4
 448 242 448 242 418 213 c 2,5,-1
 395 190 l 2,6,7
 366 160 366 160 324 160 c 0,8,9
 305 160 305 160 288 167 c 1,10,-1
 314 193 l 1,11,12
 319 192 319 192 324 192 c 0,13,14
 352 192 352 192 372 212 c 2,15,-1
 396 236 l 2,16,17
 416 255 416 255 416 283.5 c 128,-1,18
 416 312 416 312 396 332 c 128,-1,19
 376 352 376 352 348 352 c 0,20,21
 319 352 319 352 300 332 c 2,22,-1
 276 308 l 2,23,24
 252 284 252 284 257 250 c 1,25,-1
 231 224 l 1,26,27
 224 241 224 241 224 260 c 0,28,29
 224 302 224 302 254 331 c 2,30,-1
 277 354 l 2,31,32
 306 384 306 384 348 384 c 0,0,1
308 268 m 1,33,-1
 332 244 l 1,34,-1
 204 116 l 1,35,-1
 180 140 l 1,36,-1
 308 268 l 1,33,-1
188 224 m 0,37,38
 207 224 207 224 224 217 c 1,39,-1
 198 191 l 1,40,41
 193 192 193 192 188 192 c 0,42,43
 160 192 160 192 140 172 c 2,44,-1
 116 148 l 2,45,46
 96 129 96 129 96 100.5 c 128,-1,47
 96 72 96 72 116 52 c 128,-1,48
 136 32 136 32 164 32 c 0,49,50
 193 32 193 32 212 52 c 2,51,-1
 236 76 l 2,52,53
 260 100 260 100 255 134 c 1,54,-1
 281 160 l 1,55,56
 288 143 288 143 288 124 c 0,57,58
 288 82 288 82 258 53 c 2,59,-1
 235 30 l 2,60,61
 206 0 206 0 164 0 c 0,62,63
 123 0 123 0 93.5 29.5 c 128,-1,64
 64 59 64 59 64 100 c 0,65,66
 64 142 64 142 94 171 c 2,67,-1
 117 194 l 2,68,69
 146 224 146 224 188 224 c 0,37,38
EndSplineSet
EndChar

StartChar: chain-broken
Encoding: 61818 61818 126
Width: 512
Flags: W
LayerCount: 2
Fore
SplineSet
348 384 m 0,0,1
 389 384 389 384 418 354 c 0,2,3
 448 325 448 325 448 283.5 c 128,-1,4
 448 242 448 242 418 213 c 2,5,-1
 395 190 l 2,6,7
 371 165 371 165 337 161 c 1,8,-1
 333 193 l 1,9,10
 356 196 356 196 372 212 c 2,11,-1
 396 236 l 2,12,13
 416 256 416 256 416 284 c 128,-1,14
 416 312 416 312 396 332 c 128,-1,15
 376 352 376 352 348 352 c 128,-1,16
 320 352 320 352 300 332 c 2,17,-1
 276 308 l 2,18,19
 260 292 260 292 257 269 c 1,20,-1
 225 273 l 1,21,22
 229 307 229 307 254 331 c 2,23,-1
 277 354 l 2,24,25
 306 384 306 384 348 384 c 0,0,1
124 348 m 1,26,-1
 188 284 l 1,27,-1
 164 260 l 1,28,-1
 100 324 l 1,29,-1
 124 348 l 1,26,-1
175 223 m 1,30,-1
 179 191 l 1,31,32
 156 188 156 188 140 172 c 2,33,-1
 116 148 l 2,34,35
 96 128 96 128 96 100 c 128,-1,36
 96 72 96 72 116 52 c 128,-1,37
 136 32 136 32 164 32 c 128,-1,38
 192 32 192 32 212 52 c 2,39,-1
 236 76 l 2,40,41
 252 92 252 92 255 115 c 1,42,-1
 287 111 l 1,43,44
 283 77 283 77 258 53 c 2,45,-1
 235 30 l 2,46,47
 206 0 206 0 164.5 0 c 128,-1,48
 123 0 123 0 93.5 29.5 c 128,-1,49
 64 59 64 59 64 100.5 c 128,-1,50
 64 142 64 142 94 171 c 2,51,-1
 117 194 l 2,52,53
 141 219 141 219 175 223 c 1,30,-1
348 124 m 1,54,-1
 412 60 l 1,55,-1
 388 36 l 1,56,-1
 324 100 l 1,57,-1
 348 124 l 1,54,-1
EndSplineSet
EndChar

StartChar: check
Encoding: 61819 61819 127
Width: 512
Flags: W
LayerCount: 2
Fore
SplineSet
452 348 m 1,0,-1
 476 324 l 1,1,-1
 188 36 l 1,2,-1
 176 26 l 1,3,-1
 164 36 l 1,4,-1
 36 164 l 1,5,-1
 60 188 l 1,6,-1
 176 71 l 1,7,-1
 452 348 l 1,0,-1
EndSplineSet
EndChar

StartChar: check-circle
Encoding: 61820 61820 128
Width: 512
Flags: W
LayerCount: 2
Fore
SplineSet
256 400 m 0,0,1
 341 400 341 400 400 341 c 1,2,-1
 378 318 l 1,3,4
 328 368 328 368 256 368 c 0,5,6
 183 368 183 368 131.5 316.5 c 128,-1,7
 80 265 80 265 80 192 c 128,-1,8
 80 119 80 119 131.5 67.5 c 128,-1,9
 183 16 183 16 256 16 c 128,-1,10
 329 16 329 16 380.5 67.5 c 128,-1,11
 432 119 432 119 432 192 c 0,12,13
 432 212 432 212 427 232 c 1,14,-1
 453 258 l 1,15,16
 464 229 464 229 464 192 c 0,17,18
 464 106 464 106 403 45 c 128,-1,19
 342 -16 342 -16 256 -16 c 128,-1,20
 170 -16 170 -16 109 45 c 128,-1,21
 48 106 48 106 48 192 c 128,-1,22
 48 278 48 278 109 339 c 128,-1,23
 170 400 170 400 256 400 c 0,0,1
436 332 m 1,24,-1
 460 308 l 1,25,-1
 268 116 l 1,26,-1
 256 106 l 1,27,-1
 244 116 l 1,28,-1
 164 196 l 1,29,-1
 188 220 l 1,30,-1
 256 151 l 1,31,-1
 436 332 l 1,24,-1
EndSplineSet
EndChar

StartChar: check-circle-o
Encoding: 61821 61821 129
Width: 512
Flags: W
LayerCount: 2
Fore
SplineSet
256 400 m 0,0,1
 341 400 341 400 400 341 c 1,2,-1
 378 318 l 1,3,4
 328 368 328 368 256 368 c 0,5,6
 183 368 183 368 131.5 316.5 c 128,-1,7
 80 265 80 265 80 192 c 128,-1,8
 80 119 80 119 131.5 67.5 c 128,-1,9
 183 16 183 16 256 16 c 128,-1,10
 329 16 329 16 380.5 67.5 c 128,-1,11
 432 119 432 119 432 192 c 0,12,13
 432 212 432 212 427 232 c 1,14,-1
 453 258 l 1,15,16
 464 229 464 229 464 192 c 0,17,18
 464 106 464 106 403 45 c 128,-1,19
 342 -16 342 -16 256 -16 c 128,-1,20
 170 -16 170 -16 109 45 c 128,-1,21
 48 106 48 106 48 192 c 128,-1,22
 48 278 48 278 109 339 c 128,-1,23
 170 400 170 400 256 400 c 0,0,1
436 332 m 1,24,-1
 460 308 l 1,25,-1
 268 116 l 1,26,-1
 256 106 l 1,27,-1
 244 116 l 1,28,-1
 164 196 l 1,29,-1
 188 220 l 1,30,-1
 256 151 l 1,31,-1
 436 332 l 1,24,-1
EndSplineSet
EndChar

StartChar: check-square
Encoding: 61822 61822 130
Width: 512
Flags: W
LayerCount: 2
Fore
SplineSet
64 384 m 1,0,-1
 445 384 l 1,1,-1
 413 352 l 1,2,-1
 96 352 l 1,3,-1
 96 32 l 1,4,-1
 416 32 l 1,5,-1
 416 221 l 1,6,-1
 448 253 l 1,7,-1
 448 0 l 1,8,-1
 64 0 l 1,9,-1
 64 384 l 1,0,-1
436 332 m 1,10,-1
 460 308 l 1,11,-1
 268 116 l 1,12,-1
 256 106 l 1,13,-1
 244 116 l 1,14,-1
 164 196 l 1,15,-1
 188 220 l 1,16,-1
 256 151 l 1,17,-1
 436 332 l 1,10,-1
EndSplineSet
EndChar

StartChar: check-square-o
Encoding: 61823 61823 131
Width: 512
Flags: W
LayerCount: 2
Fore
SplineSet
64 384 m 1,0,-1
 445 384 l 1,1,-1
 413 352 l 1,2,-1
 96 352 l 1,3,-1
 96 32 l 1,4,-1
 416 32 l 1,5,-1
 416 221 l 1,6,-1
 448 253 l 1,7,-1
 448 0 l 1,8,-1
 64 0 l 1,9,-1
 64 384 l 1,0,-1
436 332 m 1,10,-1
 460 308 l 1,11,-1
 268 116 l 1,12,-1
 256 106 l 1,13,-1
 244 116 l 1,14,-1
 164 196 l 1,15,-1
 188 220 l 1,16,-1
 256 151 l 1,17,-1
 436 332 l 1,10,-1
EndSplineSet
EndChar

StartChar: chevron-circle-down
Encoding: 61824 61824 132
Width: 512
Flags: W
LayerCount: 2
Fore
SplineSet
256 400 m 128,-1,1
 342 400 342 400 403 339 c 128,-1,2
 464 278 464 278 464 192 c 128,-1,3
 464 106 464 106 403 45 c 128,-1,4
 342 -16 342 -16 256 -16 c 128,-1,5
 170 -16 170 -16 109 45 c 128,-1,6
 48 106 48 106 48 192 c 128,-1,7
 48 278 48 278 109 339 c 128,-1,0
 170 400 170 400 256 400 c 128,-1,1
256 368 m 128,-1,9
 183 368 183 368 131.5 316.5 c 128,-1,10
 80 265 80 265 80 192 c 128,-1,11
 80 119 80 119 131.5 67.5 c 128,-1,12
 183 16 183 16 256 16 c 128,-1,13
 329 16 329 16 380.5 67.5 c 128,-1,14
 432 119 432 119 432 192 c 128,-1,15
 432 265 432 265 380.5 316.5 c 128,-1,8
 329 368 329 368 256 368 c 128,-1,9
172 244 m 1,16,-1
 256 159 l 1,17,-1
 340 244 l 1,18,-1
 364 220 l 1,19,-1
 268 124 l 1,20,-1
 256 114 l 1,21,-1
 244 124 l 1,22,-1
 148 220 l 1,23,-1
 172 244 l 1,16,-1
EndSplineSet
EndChar

StartChar: chevron-circle-left
Encoding: 61825 61825 133
Width: 512
Flags: W
LayerCount: 2
Fore
SplineSet
256 400 m 128,-1,1
 342 400 342 400 403 339 c 128,-1,2
 464 278 464 278 464 192 c 128,-1,3
 464 106 464 106 403 45 c 128,-1,4
 342 -16 342 -16 256 -16 c 128,-1,5
 170 -16 170 -16 109 45 c 128,-1,6
 48 106 48 106 48 192 c 128,-1,7
 48 278 48 278 109 339 c 128,-1,0
 170 400 170 400 256 400 c 128,-1,1
256 368 m 128,-1,9
 183 368 183 368 131.5 316.5 c 128,-1,10
 80 265 80 265 80 192 c 128,-1,11
 80 119 80 119 131.5 67.5 c 128,-1,12
 183 16 183 16 256 16 c 128,-1,13
 329 16 329 16 380.5 67.5 c 128,-1,14
 432 119 432 119 432 192 c 128,-1,15
 432 265 432 265 380.5 316.5 c 128,-1,8
 329 368 329 368 256 368 c 128,-1,9
284 300 m 1,16,-1
 308 276 l 1,17,-1
 223 192 l 1,18,-1
 308 108 l 1,19,-1
 284 84 l 1,20,-1
 188 180 l 1,21,-1
 178 192 l 1,22,-1
 188 204 l 1,23,-1
 284 300 l 1,16,-1
EndSplineSet
EndChar

StartChar: chevron-circle-right
Encoding: 61826 61826 134
Width: 512
Flags: W
LayerCount: 2
Fore
SplineSet
256 400 m 128,-1,1
 342 400 342 400 403 339 c 128,-1,2
 464 278 464 278 464 192 c 128,-1,3
 464 106 464 106 403 45 c 128,-1,4
 342 -16 342 -16 256 -16 c 128,-1,5
 170 -16 170 -16 109 45 c 128,-1,6
 48 106 48 106 48 192 c 128,-1,7
 48 278 48 278 109 339 c 128,-1,0
 170 400 170 400 256 400 c 128,-1,1
256 368 m 128,-1,9
 183 368 183 368 131.5 316.5 c 128,-1,10
 80 265 80 265 80 192 c 128,-1,11
 80 119 80 119 131.5 67.5 c 128,-1,12
 183 16 183 16 256 16 c 128,-1,13
 329 16 329 16 380.5 67.5 c 128,-1,14
 432 119 432 119 432 192 c 128,-1,15
 432 265 432 265 380.5 316.5 c 128,-1,8
 329 368 329 368 256 368 c 128,-1,9
228 300 m 1,16,-1
 324 204 l 1,17,-1
 334 192 l 1,18,-1
 324 180 l 1,19,-1
 228 84 l 1,20,-1
 204 108 l 1,21,-1
 289 192 l 1,22,-1
 204 276 l 1,23,-1
 228 300 l 1,16,-1
EndSplineSet
EndChar

StartChar: chevron-circle-up
Encoding: 61827 61827 135
Width: 512
Flags: W
LayerCount: 2
Fore
SplineSet
256 400 m 128,-1,1
 342 400 342 400 403 339 c 128,-1,2
 464 278 464 278 464 192 c 128,-1,3
 464 106 464 106 403 45 c 128,-1,4
 342 -16 342 -16 256 -16 c 128,-1,5
 170 -16 170 -16 109 45 c 128,-1,6
 48 106 48 106 48 192 c 128,-1,7
 48 278 48 278 109 339 c 128,-1,0
 170 400 170 400 256 400 c 128,-1,1
256 368 m 128,-1,9
 183 368 183 368 131.5 316.5 c 128,-1,10
 80 265 80 265 80 192 c 128,-1,11
 80 119 80 119 131.5 67.5 c 128,-1,12
 183 16 183 16 256 16 c 128,-1,13
 329 16 329 16 380.5 67.5 c 128,-1,14
 432 119 432 119 432 192 c 128,-1,15
 432 265 432 265 380.5 316.5 c 128,-1,8
 329 368 329 368 256 368 c 128,-1,9
256 270 m 1,16,-1
 268 260 l 1,17,-1
 364 164 l 1,18,-1
 340 140 l 1,19,-1
 256 225 l 1,20,-1
 172 140 l 1,21,-1
 148 164 l 1,22,-1
 244 260 l 1,23,-1
 256 270 l 1,16,-1
EndSplineSet
EndChar

StartChar: chevron-down
Encoding: 61828 61828 136
Width: 512
Flags: W
LayerCount: 2
Fore
SplineSet
110 342 m 1,0,-1
 122 332 l 1,1,-1
 256 197 l 1,2,-1
 390 332 l 1,3,-1
 402 342 l 1,4,-1
 413 332 l 1,5,-1
 476 269 l 1,6,-1
 486 258 l 1,7,-1
 476 246 l 1,8,-1
 268 38 l 1,9,-1
 256 27 l 1,10,-1
 244 38 l 1,11,-1
 36 246 l 1,12,-1
 26 258 l 1,13,-1
 36 269 l 1,14,-1
 99 332 l 1,15,-1
 110 342 l 1,0,-1
110 297 m 1,16,-1
 71 258 l 1,17,-1
 256 72 l 1,18,-1
 441 258 l 1,19,-1
 402 297 l 1,20,-1
 268 163 l 1,21,-1
 256 152 l 1,22,-1
 244 163 l 1,23,-1
 110 297 l 1,16,-1
EndSplineSet
EndChar

StartChar: chevron-left
Encoding: 61829 61829 137
Width: 512
Flags: W
LayerCount: 2
Fore
SplineSet
316 406 m 1,0,-1
 328 396 l 1,1,-1
 385 338 l 1,2,-1
 396 326 l 1,3,-1
 385 315 l 1,4,-1
 262 192 l 1,5,-1
 385 69 l 1,6,-1
 396 58 l 1,7,-1
 385 46 l 1,8,-1
 328 -12 l 1,9,-1
 316 -22 l 1,10,-1
 304 -12 l 1,11,-1
 112 180 l 1,12,-1
 102 192 l 1,13,-1
 112 204 l 1,14,-1
 304 396 l 1,15,-1
 316 406 l 1,0,-1
316 361 m 1,16,-1
 147 192 l 1,17,-1
 316 23 l 1,18,-1
 351 58 l 1,19,-1
 228 180 l 1,20,-1
 216 192 l 1,21,-1
 228 204 l 1,22,-1
 351 326 l 1,23,-1
 316 361 l 1,16,-1
EndSplineSet
EndChar

StartChar: chevron-right
Encoding: 61830 61830 138
Width: 512
Flags: W
LayerCount: 2
Fore
SplineSet
196 406 m 1,0,-1
 208 396 l 1,1,-1
 400 204 l 1,2,-1
 410 192 l 1,3,-1
 400 180 l 1,4,-1
 208 -12 l 1,5,-1
 196 -22 l 1,6,-1
 184 -12 l 1,7,-1
 127 46 l 1,8,-1
 116 58 l 1,9,-1
 127 69 l 1,10,-1
 250 192 l 1,11,-1
 127 315 l 1,12,-1
 116 326 l 1,13,-1
 127 338 l 1,14,-1
 184 396 l 1,15,-1
 196 406 l 1,0,-1
196 361 m 1,16,-1
 161 326 l 1,17,-1
 284 204 l 1,18,-1
 296 192 l 1,19,-1
 284 180 l 1,20,-1
 161 58 l 1,21,-1
 196 23 l 1,22,-1
 365 192 l 1,23,-1
 196 361 l 1,16,-1
EndSplineSet
EndChar

StartChar: chevron-up
Encoding: 61831 61831 139
Width: 512
Flags: W
LayerCount: 2
Fore
SplineSet
256 357 m 1,0,-1
 268 346 l 1,1,-1
 476 138 l 1,2,-1
 486 126 l 1,3,-1
 476 115 l 1,4,-1
 413 52 l 1,5,-1
 402 42 l 1,6,-1
 390 52 l 1,7,-1
 256 187 l 1,8,-1
 122 52 l 1,9,-1
 110 42 l 1,10,-1
 99 52 l 1,11,-1
 36 115 l 1,12,-1
 26 126 l 1,13,-1
 36 138 l 1,14,-1
 244 346 l 1,15,-1
 256 357 l 1,0,-1
256 312 m 1,16,-1
 71 126 l 1,17,-1
 110 87 l 1,18,-1
 244 221 l 1,19,-1
 256 232 l 1,20,-1
 268 221 l 1,21,-1
 402 87 l 1,22,-1
 441 126 l 1,23,-1
 256 312 l 1,16,-1
EndSplineSet
EndChar

StartChar: child
Encoding: 61832 61832 140
Width: 512
Flags: W
LayerCount: 2
Fore
SplineSet
192 400 m 1,0,1
 244 400 244 400 264 363 c 0,2,3
 265 363 265 363 265 364 c 128,-1,4
 265 365 265 365 266 365 c 0,5,6
 279 384 279 384 304 384 c 1,7,-1
 304 352 l 1,8,9
 296 352 296 352 292 348 c 1,10,11
 339 336 339 336 371.5 301 c 128,-1,12
 404 266 404 266 414 218 c 1,13,14
 448 207 448 207 448 176 c 0,15,16
 448 160 448 160 437.5 149 c 128,-1,17
 427 138 427 138 412 133 c 1,18,19
 402 76 402 76 358 38 c 128,-1,20
 314 0 314 0 256 0 c 128,-1,21
 198 0 198 0 154 38 c 128,-1,22
 110 76 110 76 100 133 c 1,23,24
 85 138 85 138 74.5 149 c 128,-1,25
 64 160 64 160 64 176 c 128,-1,26
 64 192 64 192 74.5 203 c 128,-1,27
 85 214 85 214 100 219 c 1,28,29
 109 270 109 270 146.5 307 c 128,-1,30
 184 344 184 344 235 350 c 1,31,32
 223 368 223 368 192 368 c 1,33,-1
 192 400 l 1,0,1
256 320 m 128,-1,35
 207 320 207 320 171 287 c 128,-1,36
 135 254 135 254 130 206 c 2,37,-1
 128 192 l 1,38,-1
 114 192 l 1,39,-1
 112 192 l 2,40,41
 105 192 105 192 100.5 187.5 c 128,-1,42
 96 183 96 183 96 176 c 128,-1,43
 96 169 96 169 100.5 164.5 c 128,-1,44
 105 160 105 160 112 160 c 2,45,-1
 114 160 l 1,46,-1
 128 160 l 1,47,-1
 130 146 l 2,48,49
 135 98 135 98 171 65 c 128,-1,50
 207 32 207 32 256 32 c 128,-1,51
 305 32 305 32 341 65 c 128,-1,52
 377 98 377 98 382 146 c 2,53,-1
 384 160 l 1,54,-1
 398 160 l 1,55,-1
 400 160 l 2,56,57
 407 160 407 160 411.5 164.5 c 128,-1,58
 416 169 416 169 416 176 c 128,-1,59
 416 183 416 183 411.5 187.5 c 128,-1,60
 407 192 407 192 400 192 c 2,61,-1
 386 192 l 1,62,-1
 384 206 l 2,63,64
 378 255 378 255 341.5 287.5 c 128,-1,34
 305 320 305 320 256 320 c 128,-1,35
200 192 m 128,-1,66
 210 192 210 192 217 185 c 128,-1,67
 224 178 224 178 224 168 c 128,-1,68
 224 158 224 158 217 151 c 128,-1,69
 210 144 210 144 200 144 c 128,-1,70
 190 144 190 144 183 151 c 128,-1,71
 176 158 176 158 176 168 c 128,-1,72
 176 178 176 178 183 185 c 128,-1,65
 190 192 190 192 200 192 c 128,-1,66
312 192 m 128,-1,74
 322 192 322 192 329 185 c 128,-1,75
 336 178 336 178 336 168 c 128,-1,76
 336 158 336 158 329 151 c 128,-1,77
 322 144 322 144 312 144 c 128,-1,78
 302 144 302 144 295 151 c 128,-1,79
 288 158 288 158 288 168 c 128,-1,80
 288 178 288 178 295 185 c 128,-1,73
 302 192 302 192 312 192 c 128,-1,74
EndSplineSet
EndChar

StartChar: chrome
Encoding: 61833 61833 141
Width: 512
Flags: W
LayerCount: 2
Fore
SplineSet
256 384 m 128,-1,1
 335 384 335 384 391.5 327.5 c 128,-1,2
 448 271 448 271 448 192 c 128,-1,3
 448 113 448 113 391.5 56.5 c 128,-1,4
 335 0 335 0 256 0 c 128,-1,5
 177 0 177 0 120.5 56.5 c 128,-1,6
 64 113 64 113 64 192 c 128,-1,7
 64 271 64 271 120.5 327.5 c 128,-1,0
 177 384 177 384 256 384 c 128,-1,1
256 352 m 0,8,9
 183 352 183 352 135 296 c 1,10,-1
 192 240 l 1,11,12
 216 272 216 272 256 272 c 0,13,14
 274 272 274 272 291 264 c 1,15,-1
 399 264 l 1,16,17
 379 304 379 304 340.5 328 c 128,-1,18
 302 352 302 352 256 352 c 0,8,9
122 279 m 1,19,20
 96 239 96 239 96 192 c 0,21,22
 96 134 96 134 133 89.5 c 128,-1,23
 170 45 170 45 226 34 c 1,24,-1
 246 112 l 1,25,26
 218 116 218 116 198.5 136.5 c 128,-1,27
 179 157 179 157 176 184 c 1,28,-1
 122 279 l 1,19,20
408 244 m 1,29,-1
 330 222 l 1,30,31
 336 207 336 207 336 192 c 0,32,33
 336 151 336 151 302 126 c 1,34,-1
 248 32 l 1,35,36
 248 32 248 32 251 32 c 128,-1,37
 254 32 254 32 256 32 c 0,38,39
 322 32 322 32 369 79 c 128,-1,40
 416 126 416 126 416 192 c 0,41,42
 416 219 416 219 408 244 c 1,29,-1
256 240 m 0,43,44
 236 240 236 240 222 226 c 128,-1,45
 208 212 208 212 208 192 c 128,-1,46
 208 172 208 172 222 158 c 128,-1,47
 236 144 236 144 256 144 c 128,-1,48
 276 144 276 144 290 158 c 128,-1,49
 304 172 304 172 304 192 c 0,50,51
 304 218 304 218 283 232 c 0,52,53
 271 240 271 240 256 240 c 0,43,44
EndSplineSet
EndChar

StartChar: circle
Encoding: 61834 61834 142
Width: 512
Flags: W
LayerCount: 2
Fore
SplineSet
256 384 m 128,-1,1
 335 384 335 384 391.5 327.5 c 128,-1,2
 448 271 448 271 448 192 c 128,-1,3
 448 113 448 113 391.5 56.5 c 128,-1,4
 335 0 335 0 256 0 c 128,-1,5
 177 0 177 0 120.5 56.5 c 128,-1,6
 64 113 64 113 64 192 c 128,-1,7
 64 271 64 271 120.5 327.5 c 128,-1,0
 177 384 177 384 256 384 c 128,-1,1
256 352 m 128,-1,9
 190 352 190 352 143 305 c 128,-1,10
 96 258 96 258 96 192 c 128,-1,11
 96 126 96 126 143 79 c 128,-1,12
 190 32 190 32 256 32 c 128,-1,13
 322 32 322 32 369 79 c 128,-1,14
 416 126 416 126 416 192 c 128,-1,15
 416 258 416 258 369 305 c 128,-1,8
 322 352 322 352 256 352 c 128,-1,9
EndSplineSet
EndChar

StartChar: circle-o
Encoding: 61835 61835 143
Width: 512
Flags: W
LayerCount: 2
Fore
SplineSet
256 384 m 128,-1,1
 335 384 335 384 391.5 327.5 c 128,-1,2
 448 271 448 271 448 192 c 128,-1,3
 448 113 448 113 391.5 56.5 c 128,-1,4
 335 0 335 0 256 0 c 128,-1,5
 177 0 177 0 120.5 56.5 c 128,-1,6
 64 113 64 113 64 192 c 128,-1,7
 64 271 64 271 120.5 327.5 c 128,-1,0
 177 384 177 384 256 384 c 128,-1,1
256 352 m 128,-1,9
 190 352 190 352 143 305 c 128,-1,10
 96 258 96 258 96 192 c 128,-1,11
 96 126 96 126 143 79 c 128,-1,12
 190 32 190 32 256 32 c 128,-1,13
 322 32 322 32 369 79 c 128,-1,14
 416 126 416 126 416 192 c 128,-1,15
 416 258 416 258 369 305 c 128,-1,8
 322 352 322 352 256 352 c 128,-1,9
EndSplineSet
EndChar

StartChar: circle-o-notch
Encoding: 61836 61836 144
Width: 512
Flags: W
LayerCount: 2
Fore
SplineSet
288 381 m 1,0,1
 357 370 357 370 402.5 316.5 c 128,-1,2
 448 263 448 263 448 192 c 0,3,4
 448 113 448 113 391.5 56.5 c 128,-1,5
 335 0 335 0 256 0 c 128,-1,6
 177 0 177 0 120.5 56.5 c 128,-1,7
 64 113 64 113 64 192 c 0,8,9
 64 263 64 263 109.5 316.5 c 128,-1,10
 155 370 155 370 224 381 c 1,11,-1
 224 349 l 1,12,13
 169 338 169 338 132.5 293.5 c 128,-1,14
 96 249 96 249 96 192 c 0,15,16
 96 126 96 126 143 79 c 128,-1,17
 190 32 190 32 256 32 c 128,-1,18
 322 32 322 32 369 79 c 128,-1,19
 416 126 416 126 416 192 c 0,20,21
 416 249 416 249 379.5 293.5 c 128,-1,22
 343 338 343 338 288 349 c 1,23,-1
 288 381 l 1,0,1
EndSplineSet
EndChar

StartChar: circle-thin
Encoding: 61837 61837 145
Width: 512
Flags: W
LayerCount: 2
Fore
SplineSet
256 384 m 128,-1,1
 335 384 335 384 391.5 327.5 c 128,-1,2
 448 271 448 271 448 192 c 128,-1,3
 448 113 448 113 391.5 56.5 c 128,-1,4
 335 0 335 0 256 0 c 128,-1,5
 177 0 177 0 120.5 56.5 c 128,-1,6
 64 113 64 113 64 192 c 128,-1,7
 64 271 64 271 120.5 327.5 c 128,-1,0
 177 384 177 384 256 384 c 128,-1,1
256 368 m 128,-1,9
 183 368 183 368 131.5 316.5 c 128,-1,10
 80 265 80 265 80 192 c 128,-1,11
 80 119 80 119 131.5 67.5 c 128,-1,12
 183 16 183 16 256 16 c 128,-1,13
 329 16 329 16 380.5 67.5 c 128,-1,14
 432 119 432 119 432 192 c 128,-1,15
 432 265 432 265 380.5 316.5 c 128,-1,8
 329 368 329 368 256 368 c 128,-1,9
EndSplineSet
EndChar

StartChar: clipboard
Encoding: 61838 61838 146
Width: 512
Flags: W
LayerCount: 2
Fore
SplineSet
240 400 m 128,-1,1
 269 400 269 400 282 368 c 1,2,-1
 320 368 l 1,3,-1
 336 368 l 1,4,-1
 384 368 l 1,5,-1
 400 368 l 1,6,-1
 400 352 l 1,7,-1
 400 16 l 1,8,-1
 400 0 l 1,9,-1
 384 0 l 1,10,-1
 96 0 l 1,11,-1
 80 0 l 1,12,-1
 80 16 l 1,13,-1
 80 352 l 1,14,-1
 80 368 l 1,15,-1
 96 368 l 1,16,-1
 144 368 l 1,17,-1
 160 368 l 1,18,-1
 198 368 l 1,19,0
 211 400 211 400 240 400 c 128,-1,1
240 368 m 128,-1,21
 233 368 233 368 228.5 363.5 c 128,-1,22
 224 359 224 359 224 352 c 2,23,-1
 224 336 l 1,24,-1
 208 336 l 1,25,-1
 176 336 l 1,26,-1
 176 304 l 1,27,-1
 304 304 l 1,28,-1
 304 336 l 1,29,-1
 272 336 l 1,30,-1
 256 336 l 1,31,-1
 256 352 l 2,32,33
 256 359 256 359 251.5 363.5 c 128,-1,20
 247 368 247 368 240 368 c 128,-1,21
112 336 m 1,34,-1
 112 32 l 1,35,-1
 368 32 l 1,36,-1
 368 336 l 1,37,-1
 336 336 l 1,38,-1
 336 288 l 1,39,-1
 336 272 l 1,40,-1
 320 272 l 1,41,-1
 160 272 l 1,42,-1
 144 272 l 1,43,-1
 144 288 l 1,44,-1
 144 336 l 1,45,-1
 112 336 l 1,34,-1
EndSplineSet
EndChar

StartChar: clock-o
Encoding: 61839 61839 147
Width: 512
Flags: W
LayerCount: 2
Fore
SplineSet
256 384 m 128,-1,1
 335 384 335 384 391.5 327.5 c 128,-1,2
 448 271 448 271 448 192 c 128,-1,3
 448 113 448 113 391.5 56.5 c 128,-1,4
 335 0 335 0 256 0 c 128,-1,5
 177 0 177 0 120.5 56.5 c 128,-1,6
 64 113 64 113 64 192 c 128,-1,7
 64 271 64 271 120.5 327.5 c 128,-1,0
 177 384 177 384 256 384 c 128,-1,1
256 352 m 128,-1,9
 190 352 190 352 143 305 c 128,-1,10
 96 258 96 258 96 192 c 128,-1,11
 96 126 96 126 143 79 c 128,-1,12
 190 32 190 32 256 32 c 128,-1,13
 322 32 322 32 369 79 c 128,-1,14
 416 126 416 126 416 192 c 128,-1,15
 416 258 416 258 369 305 c 128,-1,8
 322 352 322 352 256 352 c 128,-1,9
240 320 m 1,16,-1
 272 320 l 1,17,-1
 272 208 l 1,18,-1
 352 208 l 1,19,-1
 352 176 l 1,20,-1
 256 176 l 1,21,-1
 240 176 l 1,22,-1
 240 192 l 1,23,-1
 240 320 l 1,16,-1
EndSplineSet
EndChar

StartChar: clone
Encoding: 61840 61840 148
Width: 512
Flags: W
LayerCount: 2
Fore
SplineSet
80 368 m 1,0,-1
 96 368 l 1,1,-1
 336 368 l 1,2,-1
 352 368 l 1,3,-1
 352 352 l 1,4,-1
 352 304 l 1,5,-1
 320 304 l 1,6,-1
 320 336 l 1,7,-1
 112 336 l 1,8,-1
 112 128 l 1,9,-1
 144 128 l 1,10,-1
 144 96 l 1,11,-1
 96 96 l 1,12,-1
 80 96 l 1,13,-1
 80 112 l 1,14,-1
 80 352 l 1,15,-1
 80 368 l 1,0,-1
160 288 m 1,16,-1
 176 288 l 1,17,-1
 416 288 l 1,18,-1
 432 288 l 1,19,-1
 432 272 l 1,20,-1
 432 32 l 1,21,-1
 432 16 l 1,22,-1
 416 16 l 1,23,-1
 176 16 l 1,24,-1
 160 16 l 1,25,-1
 160 32 l 1,26,-1
 160 272 l 1,27,-1
 160 288 l 1,16,-1
192 256 m 1,28,-1
 192 48 l 1,29,-1
 400 48 l 1,30,-1
 400 256 l 1,31,-1
 192 256 l 1,28,-1
EndSplineSet
EndChar

StartChar: close
Encoding: 61841 61841 149
Width: 512
Flags: W
LayerCount: 2
Fore
SplineSet
116 356 m 1,0,-1
 256 215 l 1,1,-1
 396 356 l 1,2,-1
 420 332 l 1,3,-1
 279 192 l 1,4,-1
 420 52 l 1,5,-1
 396 28 l 1,6,-1
 256 169 l 1,7,-1
 116 28 l 1,8,-1
 92 52 l 1,9,-1
 233 192 l 1,10,-1
 92 332 l 1,11,-1
 116 356 l 1,0,-1
EndSplineSet
EndChar

StartChar: cloud
Encoding: 61842 61842 150
Width: 512
Flags: W
LayerCount: 2
Fore
SplineSet
256 368 m 0,0,1
 315 368 315 368 349 316 c 1,2,3
 364 320 364 320 368 320 c 0,4,5
 408 320 408 320 436 292 c 128,-1,6
 464 264 464 264 464 224 c 1,7,8
 512 195 512 195 512 144 c 0,9,10
 512 104 512 104 484 76 c 128,-1,11
 456 48 456 48 416 48 c 2,12,-1
 96 48 l 2,13,14
 56 48 56 48 28 76 c 128,-1,15
 0 104 0 104 0 144 c 128,-1,16
 0 184 0 184 28 212 c 128,-1,17
 56 240 56 240 96 240 c 0,18,19
 97 240 97 240 106 239 c 1,20,21
 119 268 119 268 148 280 c 1,22,23
 156 318 156 318 186.5 343 c 128,-1,24
 217 368 217 368 256 368 c 0,0,1
256 336 m 0,25,26
 226 336 226 336 203.5 316.5 c 128,-1,27
 181 297 181 297 177 268 c 2,28,-1
 176 257 l 1,29,-1
 165 254 l 2,30,31
 152 251 152 251 142 241.5 c 128,-1,32
 132 232 132 232 129 218 c 2,33,-1
 126 203 l 1,34,-1
 110 206 l 2,35,36
 103 208 103 208 96 208 c 0,37,38
 69 208 69 208 50.5 189.5 c 128,-1,39
 32 171 32 171 32 144 c 128,-1,40
 32 117 32 117 50.5 98.5 c 128,-1,41
 69 80 69 80 96 80 c 2,42,-1
 416 80 l 2,43,44
 443 80 443 80 461.5 98.5 c 128,-1,45
 480 117 480 117 480 144 c 0,46,47
 480 186 480 186 441 203 c 2,48,-1
 430 208 l 1,49,-1
 432 219 l 1,50,-1
 432 224 l 2,51,52
 432 251 432 251 413.5 269.5 c 128,-1,53
 395 288 395 288 368 288 c 0,54,55
 358 288 358 288 347 284 c 2,56,-1
 334 280 l 1,57,-1
 328 292 l 2,58,59
 317 312 317 312 298 324 c 128,-1,60
 279 336 279 336 256 336 c 0,25,26
EndSplineSet
EndChar

StartChar: cloud-download
Encoding: 61843 61843 151
Width: 512
Flags: W
LayerCount: 2
Fore
SplineSet
256 368 m 0,0,1
 296 368 296 368 327.5 345.5 c 128,-1,2
 359 323 359 323 374 287 c 1,3,4
 416 285 416 285 446 255 c 128,-1,5
 476 225 476 225 478 183 c 1,6,7
 512 153 512 153 512 112 c 0,8,9
 512 72 512 72 484 44 c 128,-1,10
 456 16 456 16 416 16 c 2,11,-1
 96 16 l 2,12,13
 56 16 56 16 28 44 c 128,-1,14
 0 72 0 72 0 112 c 0,15,16
 0 144 0 144 19.5 169 c 128,-1,17
 39 194 39 194 70 202 c 1,18,19
 77 223 77 223 93 236.5 c 128,-1,20
 109 250 109 250 131 254 c 1,21,22
 137 302 137 302 172 335 c 128,-1,23
 207 368 207 368 256 368 c 0,0,1
256 336 m 0,24,25
 216 336 216 336 188 308 c 128,-1,26
 160 280 160 280 160 240 c 2,27,-1
 160 224 l 1,28,-1
 144 224 l 2,29,30
 127 224 127 224 114 213.5 c 128,-1,31
 101 203 101 203 97 187 c 2,32,-1
 95 176 l 1,33,-1
 84 174 l 2,34,35
 62 171 62 171 47 153.5 c 128,-1,36
 32 136 32 136 32 112 c 0,37,38
 32 85 32 85 50.5 66.5 c 128,-1,39
 69 48 69 48 96 48 c 2,40,-1
 416 48 l 2,41,42
 443 48 443 48 461.5 66.5 c 128,-1,43
 480 85 480 85 480 112 c 0,44,45
 480 144 480 144 454 163 c 2,46,-1
 448 168 l 1,47,-1
 448 176 l 2,48,49
 448 209 448 209 424.5 232.5 c 128,-1,50
 401 256 401 256 368 256 c 2,51,-1
 363 256 l 1,52,-1
 352 256 l 1,53,-1
 348 268 l 2,54,55
 339 298 339 298 314 317 c 128,-1,56
 289 336 289 336 256 336 c 0,24,25
240 256 m 1,57,-1
 272 256 l 1,58,-1
 272 151 l 1,59,-1
 308 188 l 1,60,-1
 332 164 l 1,61,-1
 268 100 l 1,62,-1
 256 90 l 1,63,-1
 244 100 l 1,64,-1
 180 164 l 1,65,-1
 204 188 l 1,66,-1
 240 151 l 1,67,-1
 240 256 l 1,57,-1
EndSplineSet
EndChar

StartChar: cloud-upload
Encoding: 61844 61844 152
Width: 512
Flags: W
LayerCount: 2
Fore
SplineSet
256 384 m 0,0,1
 296 384 296 384 327.5 361.5 c 128,-1,2
 359 339 359 339 374 303 c 1,3,4
 416 301 416 301 446 271 c 128,-1,5
 476 241 476 241 478 199 c 1,6,7
 512 169 512 169 512 128 c 0,8,9
 512 88 512 88 484 60 c 128,-1,10
 456 32 456 32 416 32 c 2,11,-1
 96 32 l 2,12,13
 56 32 56 32 28 60 c 128,-1,14
 0 88 0 88 0 128 c 0,15,16
 0 160 0 160 19.5 185 c 128,-1,17
 39 210 39 210 70 218 c 1,18,19
 77 239 77 239 93 252.5 c 128,-1,20
 109 266 109 266 131 270 c 1,21,22
 137 318 137 318 172 351 c 128,-1,23
 207 384 207 384 256 384 c 0,0,1
256 352 m 0,24,25
 216 352 216 352 188 324 c 128,-1,26
 160 296 160 296 160 256 c 2,27,-1
 160 240 l 1,28,-1
 144 240 l 2,29,30
 127 240 127 240 114 229.5 c 128,-1,31
 101 219 101 219 97 203 c 2,32,-1
 95 192 l 1,33,-1
 84 190 l 2,34,35
 62 187 62 187 47 169.5 c 128,-1,36
 32 152 32 152 32 128 c 0,37,38
 32 101 32 101 50.5 82.5 c 128,-1,39
 69 64 69 64 96 64 c 2,40,-1
 416 64 l 2,41,42
 443 64 443 64 461.5 82.5 c 128,-1,43
 480 101 480 101 480 128 c 0,44,45
 480 160 480 160 454 179 c 2,46,-1
 448 184 l 1,47,-1
 448 192 l 2,48,49
 448 225 448 225 424.5 248.5 c 128,-1,50
 401 272 401 272 368 272 c 2,51,-1
 363 272 l 1,52,-1
 352 272 l 1,53,-1
 348 284 l 2,54,55
 339 314 339 314 314 333 c 128,-1,56
 289 352 289 352 256 352 c 0,24,25
256 262 m 1,57,-1
 268 252 l 1,58,-1
 332 188 l 1,59,-1
 308 164 l 1,60,-1
 272 201 l 1,61,-1
 272 96 l 1,62,-1
 240 96 l 1,63,-1
 240 201 l 1,64,-1
 204 164 l 1,65,-1
 180 188 l 1,66,-1
 244 252 l 1,67,-1
 256 262 l 1,57,-1
EndSplineSet
EndChar

StartChar: cny
Encoding: 61845 61845 153
Width: 512
Flags: W
LayerCount: 2
Fore
SplineSet
115 368 m 1,0,-1
 153 368 l 1,1,-1
 256 202 l 1,2,-1
 359 368 l 1,3,-1
 397 368 l 1,4,-1
 287 192 l 1,5,-1
 352 192 l 1,6,-1
 352 160 l 1,7,-1
 272 160 l 1,8,-1
 272 128 l 1,9,-1
 352 128 l 1,10,-1
 352 96 l 1,11,-1
 272 96 l 1,12,-1
 272 16 l 1,13,-1
 240 16 l 1,14,-1
 240 96 l 1,15,-1
 160 96 l 1,16,-1
 160 128 l 1,17,-1
 240 128 l 1,18,-1
 240 160 l 1,19,-1
 160 160 l 1,20,-1
 160 192 l 1,21,-1
 225 192 l 1,22,-1
 115 368 l 1,0,-1
EndSplineSet
EndChar

StartChar: code
Encoding: 61846 61846 154
Width: 512
Flags: W
LayerCount: 2
Fore
SplineSet
288 368 m 1,0,-1
 320 368 l 1,1,-1
 224 16 l 1,2,-1
 192 16 l 1,3,-1
 288 368 l 1,0,-1
127 346 m 1,4,-1
 153 326 l 1,5,-1
 52 192 l 1,6,-1
 153 58 l 1,7,-1
 127 38 l 1,8,-1
 19 182 l 1,9,-1
 12 192 l 1,10,-1
 19 202 l 1,11,-1
 127 346 l 1,4,-1
385 346 m 1,12,-1
 493 202 l 1,13,-1
 500 192 l 1,14,-1
 493 182 l 1,15,-1
 385 38 l 1,16,-1
 359 58 l 1,17,-1
 460 192 l 1,18,-1
 359 326 l 1,19,-1
 385 346 l 1,12,-1
EndSplineSet
EndChar

StartChar: code-fork
Encoding: 61847 61847 155
Width: 512
Flags: W
LayerCount: 2
Fore
SplineSet
64 368 m 1,0,-1
 80 368 l 1,1,-1
 432 368 l 1,2,-1
 448 368 l 1,3,-1
 448 352 l 1,4,-1
 448 32 l 1,5,-1
 448 16 l 1,6,-1
 432 16 l 1,7,-1
 80 16 l 1,8,-1
 64 16 l 1,9,-1
 64 32 l 1,10,-1
 64 352 l 1,11,-1
 64 368 l 1,0,-1
96 336 m 1,12,-1
 96 304 l 1,13,-1
 416 304 l 1,14,-1
 416 336 l 1,15,-1
 96 336 l 1,12,-1
96 272 m 1,16,-1
 96 48 l 1,17,-1
 416 48 l 1,18,-1
 416 272 l 1,19,-1
 96 272 l 1,16,-1
256 240 m 1,20,-1
 288 240 l 1,21,-1
 256 80 l 1,22,-1
 224 80 l 1,23,-1
 256 240 l 1,20,-1
179 234 m 1,24,-1
 205 214 l 1,25,-1
 164 160 l 1,26,-1
 205 106 l 1,27,-1
 179 86 l 1,28,-1
 131 150 l 1,29,-1
 124 160 l 1,30,-1
 131 170 l 1,31,-1
 179 234 l 1,24,-1
333 234 m 1,32,-1
 381 170 l 1,33,-1
 388 160 l 1,34,-1
 381 150 l 1,35,-1
 333 86 l 1,36,-1
 307 106 l 1,37,-1
 348 160 l 1,38,-1
 307 214 l 1,39,-1
 333 234 l 1,32,-1
EndSplineSet
EndChar

StartChar: codepen
Encoding: 61848 61848 156
Width: 512
Flags: W
LayerCount: 2
Fore
SplineSet
256 402 m 1,0,-1
 265 396 l 1,1,-1
 457 268 l 1,2,-1
 464 264 l 1,3,-1
 464 255 l 1,4,-1
 464 129 l 1,5,-1
 464 120 l 1,6,-1
 457 116 l 1,7,-1
 265 -12 l 1,8,-1
 256 -18 l 1,9,-1
 247 -12 l 1,10,-1
 55 116 l 1,11,-1
 48 120 l 1,12,-1
 48 129 l 1,13,-1
 48 255 l 1,14,-1
 48 264 l 1,15,-1
 55 268 l 1,16,-1
 247 396 l 1,17,-1
 256 402 l 1,0,-1
240 354 m 1,18,-1
 93 254 l 1,19,-1
 158 211 l 1,20,-1
 240 266 l 1,21,-1
 240 354 l 1,18,-1
272 354 m 1,22,-1
 272 266 l 1,23,-1
 354 211 l 1,24,-1
 419 254 l 1,25,-1
 272 354 l 1,22,-1
256 238 m 1,26,-1
 186 192 l 1,27,-1
 256 146 l 1,28,-1
 326 192 l 1,29,-1
 256 238 l 1,26,-1
80 225 m 1,30,-1
 80 159 l 1,31,-1
 129 192 l 1,32,-1
 80 225 l 1,30,-1
432 225 m 1,33,-1
 383 192 l 1,34,-1
 432 159 l 1,35,-1
 432 225 l 1,33,-1
158 173 m 1,36,-1
 93 130 l 1,37,-1
 240 30 l 1,38,-1
 240 118 l 1,39,-1
 158 173 l 1,36,-1
354 173 m 1,40,-1
 272 118 l 1,41,-1
 272 30 l 1,42,-1
 419 130 l 1,43,-1
 354 173 l 1,40,-1
EndSplineSet
EndChar

StartChar: coffee
Encoding: 61849 61849 157
Width: 512
Flags: W
LayerCount: 2
Fore
SplineSet
256 480 m 1,0,-1
 288 480 l 1,1,-1
 288 416 l 1,2,-1
 256 416 l 1,3,-1
 256 480 l 1,0,-1
320 464 m 1,4,-1
 352 464 l 1,5,-1
 352 416 l 1,6,-1
 320 416 l 1,7,-1
 320 464 l 1,4,-1
160 400 m 1,8,-1
 176 400 l 1,9,-1
 432 400 l 1,10,-1
 448 400 l 1,11,-1
 448 384 l 1,12,-1
 448 336 l 1,13,-1
 480 336 l 2,14,15
 500 336 500 336 514 322 c 128,-1,16
 528 308 528 308 528 288 c 2,17,-1
 528 240 l 2,18,19
 528 220 528 220 514 206 c 128,-1,20
 500 192 500 192 480 192 c 2,21,-1
 448 192 l 1,22,-1
 448 112 l 2,23,24
 448 92 448 92 434 78 c 128,-1,25
 420 64 420 64 400 64 c 2,26,-1
 208 64 l 2,27,28
 188 64 188 64 174 78 c 128,-1,29
 160 92 160 92 160 112 c 2,30,-1
 160 384 l 1,31,-1
 160 400 l 1,8,-1
192 368 m 1,32,-1
 192 112 l 2,33,34
 192 105 192 105 196.5 100.5 c 128,-1,35
 201 96 201 96 208 96 c 2,36,-1
 400 96 l 2,37,38
 407 96 407 96 411.5 100.5 c 128,-1,39
 416 105 416 105 416 112 c 2,40,-1
 416 368 l 1,41,-1
 192 368 l 1,32,-1
448 304 m 1,42,-1
 448 224 l 1,43,-1
 480 224 l 2,44,45
 487 224 487 224 491.5 228.5 c 128,-1,46
 496 233 496 233 496 240 c 2,47,-1
 496 288 l 2,48,49
 496 295 496 295 491.5 299.5 c 128,-1,50
 487 304 487 304 480 304 c 2,51,-1
 448 304 l 1,42,-1
EndSplineSet
EndChar

StartChar: cog
Encoding: 61850 61850 158
Width: 512
Flags: W
LayerCount: 2
Fore
SplineSet
211 400 m 1,0,-1
 224 400 l 1,1,-1
 288 400 l 1,2,-1
 301 400 l 1,3,-1
 304 387 l 1,4,-1
 313 340 l 1,5,6
 335 331 335 331 354 315 c 1,7,-1
 401 331 l 1,8,-1
 414 335 l 1,9,-1
 420 324 l 1,10,-1
 452 268 l 1,11,-1
 458 257 l 1,12,-1
 449 248 l 1,13,-1
 413 217 l 1,14,15
 416 199 416 199 416 192 c 128,-1,16
 416 185 416 185 413 167 c 1,17,-1
 449 136 l 1,18,-1
 458 127 l 1,19,-1
 452 116 l 1,20,-1
 420 60 l 1,21,-1
 414 49 l 1,22,-1
 401 53 l 1,23,-1
 354 69 l 1,24,25
 335 53 335 53 313 44 c 1,26,-1
 304 -3 l 1,27,-1
 301 -16 l 1,28,-1
 288 -16 l 1,29,-1
 224 -16 l 1,30,-1
 211 -16 l 1,31,-1
 208 -3 l 1,32,-1
 199 44 l 1,33,34
 177 53 177 53 158 69 c 1,35,-1
 111 53 l 1,36,-1
 98 49 l 1,37,-1
 92 60 l 1,38,-1
 60 116 l 1,39,-1
 54 127 l 1,40,-1
 63 136 l 1,41,-1
 99 167 l 1,42,43
 96 185 96 185 96 192 c 128,-1,44
 96 199 96 199 99 217 c 1,45,-1
 63 248 l 1,46,-1
 54 257 l 1,47,-1
 60 268 l 1,48,-1
 92 324 l 1,49,-1
 98 335 l 1,50,-1
 111 331 l 1,51,-1
 158 315 l 1,52,53
 177 331 177 331 199 340 c 1,54,-1
 208 387 l 1,55,-1
 211 400 l 1,0,-1
237 368 m 1,56,-1
 229 326 l 1,57,-1
 227 317 l 1,58,-1
 218 314 l 2,59,60
 191 305 191 305 170 286 c 2,61,-1
 162 280 l 1,62,-1
 154 282 l 1,63,-1
 113 296 l 1,64,-1
 94 264 l 1,65,-1
 126 236 l 1,66,-1
 134 230 l 1,67,-1
 131 220 l 2,68,69
 128 207 128 207 128 192 c 128,-1,70
 128 177 128 177 131 164 c 2,71,-1
 134 154 l 1,72,-1
 126 148 l 1,73,-1
 94 120 l 1,74,-1
 113 88 l 1,75,-1
 154 102 l 1,76,-1
 162 104 l 1,77,-1
 170 98 l 2,78,79
 191 79 191 79 218 70 c 2,80,-1
 227 67 l 1,81,-1
 229 58 l 1,82,-1
 237 16 l 1,83,-1
 275 16 l 1,84,-1
 283 58 l 1,85,-1
 285 67 l 1,86,-1
 294 70 l 2,87,88
 321 79 321 79 342 98 c 2,89,-1
 350 104 l 1,90,-1
 358 102 l 1,91,-1
 399 88 l 1,92,-1
 418 120 l 1,93,-1
 386 148 l 1,94,-1
 379 154 l 1,95,-1
 381 164 l 2,96,97
 384 177 384 177 384 192 c 128,-1,98
 384 207 384 207 381 220 c 2,99,-1
 378 230 l 1,100,-1
 386 236 l 1,101,-1
 418 264 l 1,102,-1
 399 296 l 1,103,-1
 358 282 l 1,104,-1
 350 280 l 1,105,-1
 342 286 l 2,106,107
 321 305 321 305 294 314 c 2,108,-1
 285 317 l 1,109,-1
 283 326 l 1,110,-1
 275 368 l 1,111,-1
 237 368 l 1,56,-1
256 272 m 128,-1,113
 289 272 289 272 312.5 248.5 c 128,-1,114
 336 225 336 225 336 192 c 128,-1,115
 336 159 336 159 312.5 135.5 c 128,-1,116
 289 112 289 112 256 112 c 128,-1,117
 223 112 223 112 199.5 135.5 c 128,-1,118
 176 159 176 159 176 192 c 128,-1,119
 176 225 176 225 199.5 248.5 c 128,-1,112
 223 272 223 272 256 272 c 128,-1,113
256 240 m 128,-1,121
 236 240 236 240 222 226 c 128,-1,122
 208 212 208 212 208 192 c 128,-1,123
 208 172 208 172 222 158 c 128,-1,124
 236 144 236 144 256 144 c 128,-1,125
 276 144 276 144 290 158 c 128,-1,126
 304 172 304 172 304 192 c 128,-1,127
 304 212 304 212 290 226 c 128,-1,120
 276 240 276 240 256 240 c 128,-1,121
EndSplineSet
EndChar

StartChar: cogs
Encoding: 61851 61851 159
Width: 512
Flags: W
LayerCount: 2
Fore
SplineSet
344 408 m 1,0,-1
 376 408 l 1,1,-1
 376 386 l 1,2,3
 395 382 395 382 412 370 c 1,4,-1
 427 386 l 1,5,-1
 450 363 l 1,6,-1
 434 348 l 1,7,8
 446 331 446 331 450 312 c 1,9,-1
 472 312 l 1,10,-1
 472 280 l 1,11,-1
 450 280 l 1,12,13
 446 260 446 260 434 244 c 1,14,-1
 450 227 l 1,15,-1
 426 205 l 1,16,-1
 412 221 l 1,17,18
 395 210 395 210 376 206 c 1,19,-1
 376 184 l 1,20,-1
 344 184 l 1,21,-1
 344 206 l 1,22,23
 325 210 325 210 308 222 c 1,24,-1
 292 204 l 1,25,-1
 268 228 l 1,26,-1
 286 244 l 1,27,28
 274 261 274 261 270 280 c 1,29,-1
 248 280 l 1,30,-1
 248 312 l 1,31,-1
 270 312 l 1,32,33
 274 331 274 331 285 348 c 1,34,-1
 269 362 l 1,35,-1
 291 386 l 1,36,-1
 308 370 l 1,37,38
 324 382 324 382 344 386 c 1,39,-1
 344 408 l 1,0,-1
360 355 m 128,-1,41
 335 355 335 355 318 338 c 128,-1,42
 301 321 301 321 301 296 c 128,-1,43
 301 271 301 271 318 254 c 128,-1,44
 335 237 335 237 360 237 c 128,-1,45
 385 237 385 237 402 254 c 128,-1,46
 419 271 419 271 419 296 c 128,-1,47
 419 321 419 321 402 338 c 128,-1,40
 385 355 385 355 360 355 c 128,-1,41
152 260 m 1,48,-1
 164 232 l 1,49,50
 178 235 178 235 190.5 235 c 128,-1,51
 203 235 203 235 217 232 c 1,52,-1
 228 260 l 1,53,-1
 258 248 l 1,54,-1
 246 220 l 1,55,56
 269 206 269 206 284 182 c 1,57,-1
 312 194 l 1,58,-1
 324 164 l 1,59,-1
 296 153 l 1,60,61
 299 139 299 139 299 126.5 c 128,-1,62
 299 114 299 114 296 100 c 1,63,-1
 324 88 l 1,64,-1
 312 59 l 1,65,-1
 284 70 l 1,66,67
 269 47 269 47 246 33 c 1,68,-1
 258 4 l 1,69,-1
 228 -8 l 1,70,-1
 217 21 l 1,71,72
 203 18 203 18 190.5 18 c 128,-1,73
 178 18 178 18 164 21 c 1,74,-1
 152 -8 l 1,75,-1
 123 4 l 1,76,-1
 134 33 l 1,77,78
 111 47 111 47 97 70 c 1,79,-1
 68 59 l 1,80,-1
 56 88 l 1,81,-1
 85 100 l 1,82,83
 82 114 82 114 82 126.5 c 128,-1,84
 82 139 82 139 85 153 c 1,85,-1
 56 164 l 1,86,-1
 68 194 l 1,87,-1
 97 182 l 1,88,89
 111 205 111 205 134 220 c 1,90,-1
 123 248 l 1,91,-1
 152 260 l 1,48,-1
190 203 m 256,92,93
 158 203 158 203 136 180.5 c 128,-1,94
 114 158 114 158 114 126.5 c 128,-1,95
 114 95 114 95 136.5 72.5 c 128,-1,96
 159 50 159 50 190.5 50 c 128,-1,97
 222 50 222 50 244.5 72 c 128,-1,98
 267 94 267 94 267 126 c 256,99,100
 267 158 267 158 244.5 180.5 c 128,-1,101
 222 203 222 203 190 203 c 256,92,93
EndSplineSet
EndChar

StartChar: columns
Encoding: 61852 61852 160
Width: 512
Flags: W
LayerCount: 2
Fore
SplineSet
80 368 m 1,0,-1
 96 368 l 1,1,-1
 416 368 l 1,2,-1
 432 368 l 1,3,-1
 432 352 l 1,4,-1
 432 32 l 1,5,-1
 432 16 l 1,6,-1
 416 16 l 1,7,-1
 96 16 l 1,8,-1
 80 16 l 1,9,-1
 80 32 l 1,10,-1
 80 352 l 1,11,-1
 80 368 l 1,0,-1
112 336 m 1,12,-1
 112 48 l 1,13,-1
 240 48 l 1,14,-1
 240 336 l 1,15,-1
 112 336 l 1,12,-1
272 336 m 1,16,-1
 272 48 l 1,17,-1
 400 48 l 1,18,-1
 400 336 l 1,19,-1
 272 336 l 1,16,-1
EndSplineSet
EndChar

StartChar: comment
Encoding: 61853 61853 161
Width: 512
Flags: W
LayerCount: 2
Fore
SplineSet
48 352 m 1,0,-1
 64 352 l 1,1,-1
 448 352 l 1,2,-1
 464 352 l 1,3,-1
 464 336 l 1,4,-1
 464 48 l 1,5,-1
 464 32 l 1,6,-1
 448 32 l 1,7,-1
 311 32 l 1,8,-1
 268 -12 l 1,9,-1
 256 -22 l 1,10,-1
 244 -12 l 1,11,-1
 201 32 l 1,12,-1
 64 32 l 1,13,-1
 48 32 l 1,14,-1
 48 48 l 1,15,-1
 48 336 l 1,16,-1
 48 352 l 1,0,-1
80 320 m 1,17,-1
 80 64 l 1,18,-1
 208 64 l 1,19,-1
 214 64 l 1,20,-1
 220 60 l 1,21,-1
 256 23 l 1,22,-1
 292 60 l 1,23,-1
 298 64 l 1,24,-1
 304 64 l 1,25,-1
 432 64 l 1,26,-1
 432 320 l 1,27,-1
 80 320 l 1,17,-1
144 272 m 1,28,-1
 368 272 l 1,29,-1
 368 240 l 1,30,-1
 144 240 l 1,31,-1
 144 272 l 1,28,-1
144 208 m 1,32,-1
 368 208 l 1,33,-1
 368 176 l 1,34,-1
 144 176 l 1,35,-1
 144 208 l 1,32,-1
144 144 m 1,36,-1
 304 144 l 1,37,-1
 304 112 l 1,38,-1
 144 112 l 1,39,-1
 144 144 l 1,36,-1
EndSplineSet
EndChar

StartChar: comment-o
Encoding: 61854 61854 162
Width: 512
Flags: W
LayerCount: 2
Fore
SplineSet
48 352 m 1,0,-1
 64 352 l 1,1,-1
 448 352 l 1,2,-1
 464 352 l 1,3,-1
 464 336 l 1,4,-1
 464 48 l 1,5,-1
 464 32 l 1,6,-1
 448 32 l 1,7,-1
 311 32 l 1,8,-1
 268 -12 l 1,9,-1
 256 -22 l 1,10,-1
 244 -12 l 1,11,-1
 201 32 l 1,12,-1
 64 32 l 1,13,-1
 48 32 l 1,14,-1
 48 48 l 1,15,-1
 48 336 l 1,16,-1
 48 352 l 1,0,-1
80 320 m 1,17,-1
 80 64 l 1,18,-1
 208 64 l 1,19,-1
 214 64 l 1,20,-1
 220 60 l 1,21,-1
 256 23 l 1,22,-1
 292 60 l 1,23,-1
 298 64 l 1,24,-1
 304 64 l 1,25,-1
 432 64 l 1,26,-1
 432 320 l 1,27,-1
 80 320 l 1,17,-1
144 272 m 1,28,-1
 368 272 l 1,29,-1
 368 240 l 1,30,-1
 144 240 l 1,31,-1
 144 272 l 1,28,-1
144 208 m 1,32,-1
 368 208 l 1,33,-1
 368 176 l 1,34,-1
 144 176 l 1,35,-1
 144 208 l 1,32,-1
144 144 m 1,36,-1
 304 144 l 1,37,-1
 304 112 l 1,38,-1
 144 112 l 1,39,-1
 144 144 l 1,36,-1
EndSplineSet
EndChar

StartChar: commenting
Encoding: 61855 61855 163
Width: 512
Flags: W
LayerCount: 2
Fore
SplineSet
48 352 m 1,0,-1
 64 352 l 1,1,-1
 448 352 l 1,2,-1
 464 352 l 1,3,-1
 464 336 l 1,4,-1
 464 48 l 1,5,-1
 464 32 l 1,6,-1
 448 32 l 1,7,-1
 311 32 l 1,8,-1
 268 -12 l 1,9,-1
 256 -22 l 1,10,-1
 244 -12 l 1,11,-1
 201 32 l 1,12,-1
 64 32 l 1,13,-1
 48 32 l 1,14,-1
 48 48 l 1,15,-1
 48 336 l 1,16,-1
 48 352 l 1,0,-1
80 320 m 1,17,-1
 80 64 l 1,18,-1
 208 64 l 1,19,-1
 214 64 l 1,20,-1
 220 60 l 1,21,-1
 256 23 l 1,22,-1
 292 60 l 1,23,-1
 298 64 l 1,24,-1
 304 64 l 1,25,-1
 432 64 l 1,26,-1
 432 320 l 1,27,-1
 80 320 l 1,17,-1
144 272 m 1,28,-1
 368 272 l 1,29,-1
 368 240 l 1,30,-1
 144 240 l 1,31,-1
 144 272 l 1,28,-1
144 208 m 1,32,-1
 368 208 l 1,33,-1
 368 176 l 1,34,-1
 144 176 l 1,35,-1
 144 208 l 1,32,-1
144 144 m 1,36,-1
 304 144 l 1,37,-1
 304 112 l 1,38,-1
 144 112 l 1,39,-1
 144 144 l 1,36,-1
EndSplineSet
EndChar

StartChar: commenting-o
Encoding: 61856 61856 164
Width: 512
Flags: W
LayerCount: 2
Fore
SplineSet
48 352 m 1,0,-1
 64 352 l 1,1,-1
 448 352 l 1,2,-1
 464 352 l 1,3,-1
 464 336 l 1,4,-1
 464 48 l 1,5,-1
 464 32 l 1,6,-1
 448 32 l 1,7,-1
 311 32 l 1,8,-1
 268 -12 l 1,9,-1
 256 -22 l 1,10,-1
 244 -12 l 1,11,-1
 201 32 l 1,12,-1
 64 32 l 1,13,-1
 48 32 l 1,14,-1
 48 48 l 1,15,-1
 48 336 l 1,16,-1
 48 352 l 1,0,-1
80 320 m 1,17,-1
 80 64 l 1,18,-1
 208 64 l 1,19,-1
 214 64 l 1,20,-1
 220 60 l 1,21,-1
 256 23 l 1,22,-1
 292 60 l 1,23,-1
 298 64 l 1,24,-1
 304 64 l 1,25,-1
 432 64 l 1,26,-1
 432 320 l 1,27,-1
 80 320 l 1,17,-1
144 272 m 1,28,-1
 368 272 l 1,29,-1
 368 240 l 1,30,-1
 144 240 l 1,31,-1
 144 272 l 1,28,-1
144 208 m 1,32,-1
 368 208 l 1,33,-1
 368 176 l 1,34,-1
 144 176 l 1,35,-1
 144 208 l 1,32,-1
144 144 m 1,36,-1
 304 144 l 1,37,-1
 304 112 l 1,38,-1
 144 112 l 1,39,-1
 144 144 l 1,36,-1
EndSplineSet
EndChar

StartChar: comments
Encoding: 61857 61857 165
Width: 512
Flags: W
LayerCount: 2
Fore
SplineSet
32 368 m 1,0,-1
 48 368 l 1,1,-1
 336 368 l 1,2,-1
 352 368 l 1,3,-1
 352 352 l 1,4,-1
 352 128 l 1,5,-1
 352 112 l 1,6,-1
 336 112 l 1,7,-1
 198 112 l 1,8,-1
 122 52 l 1,9,-1
 96 30 l 1,10,-1
 96 64 l 1,11,-1
 96 112 l 1,12,-1
 48 112 l 1,13,-1
 32 112 l 1,14,-1
 32 128 l 1,15,-1
 32 352 l 1,16,-1
 32 368 l 1,0,-1
64 336 m 1,17,-1
 64 144 l 1,18,-1
 112 144 l 1,19,-1
 128 144 l 1,20,-1
 128 128 l 1,21,-1
 128 98 l 1,22,-1
 182 140 l 1,23,-1
 186 144 l 1,24,-1
 192 144 l 1,25,-1
 320 144 l 1,26,-1
 320 336 l 1,27,-1
 64 336 l 1,17,-1
384 304 m 1,28,-1
 480 304 l 1,29,-1
 480 48 l 1,30,-1
 416 48 l 1,31,-1
 416 -34 l 1,32,-1
 314 48 l 1,33,-1
 166 48 l 1,34,-1
 206 80 l 1,35,-1
 326 80 l 1,36,-1
 384 34 l 1,37,-1
 384 80 l 1,38,-1
 448 80 l 1,39,-1
 448 272 l 1,40,-1
 384 272 l 1,41,-1
 384 304 l 1,28,-1
EndSplineSet
EndChar

StartChar: comments-o
Encoding: 61858 61858 166
Width: 512
Flags: W
LayerCount: 2
Fore
SplineSet
32 368 m 1,0,-1
 48 368 l 1,1,-1
 336 368 l 1,2,-1
 352 368 l 1,3,-1
 352 352 l 1,4,-1
 352 128 l 1,5,-1
 352 112 l 1,6,-1
 336 112 l 1,7,-1
 198 112 l 1,8,-1
 122 52 l 1,9,-1
 96 30 l 1,10,-1
 96 64 l 1,11,-1
 96 112 l 1,12,-1
 48 112 l 1,13,-1
 32 112 l 1,14,-1
 32 128 l 1,15,-1
 32 352 l 1,16,-1
 32 368 l 1,0,-1
64 336 m 1,17,-1
 64 144 l 1,18,-1
 112 144 l 1,19,-1
 128 144 l 1,20,-1
 128 128 l 1,21,-1
 128 98 l 1,22,-1
 182 140 l 1,23,-1
 186 144 l 1,24,-1
 192 144 l 1,25,-1
 320 144 l 1,26,-1
 320 336 l 1,27,-1
 64 336 l 1,17,-1
384 304 m 1,28,-1
 480 304 l 1,29,-1
 480 48 l 1,30,-1
 416 48 l 1,31,-1
 416 -34 l 1,32,-1
 314 48 l 1,33,-1
 166 48 l 1,34,-1
 206 80 l 1,35,-1
 326 80 l 1,36,-1
 384 34 l 1,37,-1
 384 80 l 1,38,-1
 448 80 l 1,39,-1
 448 272 l 1,40,-1
 384 272 l 1,41,-1
 384 304 l 1,28,-1
EndSplineSet
EndChar

StartChar: compass
Encoding: 61859 61859 167
Width: 512
Flags: W
LayerCount: 2
Fore
SplineSet
256 400 m 128,-1,1
 342 400 342 400 403 339 c 128,-1,2
 464 278 464 278 464 192 c 128,-1,3
 464 106 464 106 403 45 c 128,-1,4
 342 -16 342 -16 256 -16 c 128,-1,5
 170 -16 170 -16 109 45 c 128,-1,6
 48 106 48 106 48 192 c 128,-1,7
 48 278 48 278 109 339 c 128,-1,0
 170 400 170 400 256 400 c 128,-1,1
238 367 m 1,8,9
 175 361 175 361 131 316 c 128,-1,10
 87 271 87 271 81 208 c 1,11,-1
 96 208 l 1,12,-1
 96 176 l 1,13,-1
 81 176 l 1,14,15
 87 113 87 113 132 68 c 128,-1,16
 177 23 177 23 240 17 c 1,17,-1
 240 32 l 1,18,-1
 272 32 l 1,19,-1
 272 17 l 1,20,21
 335 23 335 23 380 68 c 128,-1,22
 425 113 425 113 431 176 c 1,23,-1
 416 176 l 1,24,-1
 416 208 l 1,25,-1
 431 208 l 1,26,27
 425 271 425 271 380 316 c 128,-1,28
 335 361 335 361 272 367 c 1,29,-1
 272 352 l 1,30,-1
 240 352 l 1,31,-1
 240 367 l 1,32,-1
 239 367 l 1,33,-1
 238 367 l 1,8,9
354 290 m 1,34,-1
 294 154 l 1,35,-1
 158 94 l 1,36,-1
 218 230 l 1,37,-1
 354 290 l 1,34,-1
256 216 m 128,-1,39
 246 216 246 216 239 209 c 128,-1,40
 232 202 232 202 232 192 c 128,-1,41
 232 182 232 182 239 175 c 128,-1,42
 246 168 246 168 256 168 c 128,-1,43
 266 168 266 168 273 175 c 128,-1,44
 280 182 280 182 280 192 c 128,-1,45
 280 202 280 202 273 209 c 128,-1,38
 266 216 266 216 256 216 c 128,-1,39
EndSplineSet
EndChar

